<?xml version="1.0" standalone="no"?>
<!DOCTYPE svg PUBLIC "-//W3C//DTD SVG 1.0//EN" "http://www.w3.org/TR/2001/REC-SVG-20010904/DTD/svg10.dtd">
<svg xmlns="http://www.w3.org/2000/svg" xmlns:xlink="http://www.w3.org/1999/xlink" id="body_1" width="49" height="49">

<g transform="matrix(0.066576086 0 0 0.066576086 0 0)">
	<g transform="matrix(0.1 0 -0 -0.1 0 736)">
		<path  d="M5551 5901C 5543 5896 5542 5890 5548 5886C 5553 5883 5560 5887 5564 5895C 5570 5912 5570 5913 5551 5901z" stroke="none"  fill="#000000" fill-rule="nonzero" />
		<path  d="M5310 5875C 5303 5866 5302 5860 5308 5860C 5313 5860 5320 5867 5324 5875C 5327 5883 5328 5890 5326 5890C 5324 5890 5317 5883 5310 5875z" stroke="none"  fill="#000000" fill-rule="nonzero" />
		<path  d="M5536 5861C 5527 5847 5541 5819 5552 5826C 5558 5830 5557 5836 5549 5841C 5537 5849 5538 5852 5550 5860C 5559 5866 5560 5870 5553 5870C 5547 5870 5539 5866 5536 5861z" stroke="none"  fill="#000000" fill-rule="nonzero" />
		<path  d="M5543 5756C 5564 5742 5589 5730 5598 5730C 5612 5731 5612 5732 5595 5742C 5584 5748 5573 5757 5570 5761C 5567 5765 5551 5772 5535 5776C 5506 5782 5506 5782 5543 5756z" stroke="none"  fill="#000000" fill-rule="nonzero" />
		<path  d="M5362 5739C 5352 5723 5341 5719 5315 5722C 5297 5724 5284 5722 5286 5718C 5289 5714 5285 5710 5278 5710C 5270 5710 5272 5705 5283 5699C 5296 5691 5305 5692 5317 5702C 5332 5714 5332 5713 5320 5691C 5309 5670 5310 5665 5326 5653C 5336 5646 5350 5640 5357 5640C 5364 5640 5370 5636 5370 5631C 5370 5626 5379 5620 5390 5617C 5401 5614 5410 5607 5410 5600C 5410 5594 5406 5592 5400 5595C 5395 5598 5390 5597 5390 5591C 5390 5574 5463 5523 5468 5538C 5474 5558 5497 5552 5504 5528C 5515 5486 5510 5462 5487 5443C 5456 5419 5448 5403 5443 5364C 5438 5320 5524 5189 5570 5170C 5617 5151 5628 5125 5634 5020C 5637 4968 5639 4924 5639 4923C 5641 4916 5714 4921 5760 4931C 5804 4940 5809 4944 5798 4957C 5787 4971 5788 4972 5807 4966C 5824 4961 5841 4967 5874 4992C 5898 5010 5920 5032 5923 5041C 5927 5057 5982 5090 6005 5090C 6022 5090 6067 5141 6084 5180C 6092 5199 6115 5231 6134 5249C 6170 5284 6183 5330 6157 5330C 6150 5330 6139 5335 6132 5342C 6126 5348 6106 5355 6089 5357C 6071 5359 6052 5365 6045 5370C 6039 5375 6025 5381 6014 5383C 5983 5387 5972 5398 5965 5430C 5957 5467 5926 5490 5883 5490C 5861 5490 5847 5496 5840 5510C 5834 5521 5825 5530 5819 5530C 5814 5530 5800 5538 5790 5548C 5777 5560 5756 5566 5728 5565C 5704 5564 5679 5569 5673 5576C 5666 5583 5651 5586 5639 5583C 5625 5579 5619 5581 5623 5587C 5633 5603 5566 5577 5546 5557C 5526 5538 5510 5535 5510 5551C 5510 5558 5498 5560 5476 5556C 5431 5547 5413 5574 5429 5622C 5446 5669 5443 5672 5395 5668C 5350 5665 5336 5672 5366 5684C 5375 5688 5379 5697 5376 5707C 5373 5717 5375 5732 5381 5740C 5390 5753 5391 5752 5386 5738C 5379 5714 5392 5715 5408 5740C 5419 5758 5418 5760 5397 5760C 5385 5760 5369 5751 5362 5739zM5630 5560C 5630 5555 5626 5550 5620 5550C 5615 5550 5610 5555 5610 5560C 5610 5566 5615 5570 5620 5570C 5626 5570 5630 5566 5630 5560z" stroke="none"  fill="#000000" fill-rule="nonzero" />
		<path  d="M5235 5710C 5245 5699 5255 5690 5258 5690C 5261 5690 5255 5699 5245 5710C 5235 5721 5225 5730 5222 5730C 5219 5730 5225 5721 5235 5710z" stroke="none"  fill="#000000" fill-rule="nonzero" />
		<path  d="M5642 5709C 5644 5703 5649 5699 5653 5699C 5657 5700 5670 5700 5683 5700C 5701 5700 5702 5702 5690 5710C 5670 5723 5637 5723 5642 5709z" stroke="none"  fill="#000000" fill-rule="nonzero" />
		<path  d="M2865 5390C 2761 5381 2639 5370 2595 5367C 2551 5363 2414 5351 2290 5340C 2166 5329 2036 5318 2000 5315C 1964 5312 1879 5305 1810 5300C 1741 5294 1629 5285 1560 5280C 1491 5274 1408 5268 1374 5265C 1341 5262 1300 5255 1283 5250C 1257 5241 1254 5235 1258 5212C 1260 5197 1264 5167 1266 5145C 1278 5005 1291 4844 1295 4780C 1298 4739 1304 4662 1309 4610C 1317 4525 1325 4418 1335 4250C 1340 4160 1350 4120 1369 4120C 1385 4120 1933 4190 2065 4209C 2104 4215 2154 4220 2177 4220C 2217 4220 2218 4219 2214 4193C 2211 4178 2208 4165 2207 4164C 2206 4164 2124 4153 2026 4141C 1927 4128 1836 4113 1823 4107C 1786 4091 1793 4051 1840 4005C 1904 3942 1915 3943 2611 4045C 2702 4058 2784 4072 2793 4076C 2802 4079 2810 4092 2810 4104C 2810 4132 2713 4207 2665 4216C 2635 4221 2519 4211 2423 4194C 2392 4188 2390 4189 2390 4218C 2390 4245 2394 4250 2423 4255C 2451 4260 2844 4311 3085 4341C 3135 4348 3178 4355 3182 4359C 3187 4363 3166 5390 3161 5408C 3159 5413 3043 5406 2865 5390zM2392 5283C 2386 5281 2382 5275 2385 5270C 2395 5253 2360 5243 2250 5232C 2050 5211 1757 5189 1752 5195C 1749 5198 1753 5200 1762 5200C 1770 5200 1777 5207 1777 5215C 1777 5223 1770 5230 1762 5230C 1679 5230 2039 5273 2210 5283C 2302 5289 2406 5289 2392 5283zM2580 5156L2580 5084L2517 5071C 2391 5046 2227 5058 2132 5100C 2088 5120 2030 5165 2030 5180C 2030 5186 2315 5211 2365 5210C 2388 5210 2540 5228 2555 5234C 2575 5241 2580 5227 2580 5156zM3011 5221C 2978 5212 2973 5192 3002 5188C 3029 5184 3038 5149 3017 5131C 3001 5118 2970 5126 2970 5143C 2970 5151 2973 5151 2981 5143C 2997 5127 3020 5138 3020 5162C 3020 5179 3015 5181 2995 5176C 2972 5170 2970 5173 2970 5200C 2970 5227 2973 5230 3003 5229C 3032 5228 3032 5227 3011 5221zM2852 5180C 2862 5129 2854 5110 2820 5110C 2804 5110 2788 5115 2784 5121C 2779 5129 2774 5127 2768 5116C 2747 5078 2700 5105 2700 5155C 2700 5216 2750 5231 2775 5178C 2787 5153 2789 5151 2786 5169C 2774 5228 2839 5239 2852 5180zM2955 5170C 2955 5128 2953 5125 2928 5122C 2912 5120 2900 5123 2900 5128C 2900 5133 2910 5136 2923 5136C 2936 5135 2945 5141 2945 5150C 2945 5158 2939 5164 2933 5163C 2915 5159 2917 5171 2938 5186C 2954 5198 2954 5199 2936 5206C 2925 5210 2915 5208 2909 5199C 2904 5191 2900 5190 2900 5196C 2900 5213 2913 5221 2935 5218C 2952 5215 2955 5208 2955 5170zM1980 5163C 1961 5155 1939 5141 1930 5131C 1915 5115 1797 5021 1773 5006C 1763 5001 1760 5011 1760 5047C 1760 5078 1763 5090 1769 5081C 1781 5063 1799 5074 1850 5133C 1892 5180 1892 5180 1953 5179L1953 5179L2015 5178L1980 5163zM1579 5116C 1570 5107 1460 5102 1466 5111C 1469 5116 1496 5120 1527 5120C 1558 5120 1581 5118 1579 5116zM1420 5101C 1420 5096 1411 5094 1400 5097C 1389 5100 1380 5104 1380 5106C 1380 5108 1389 5110 1400 5110C 1411 5110 1420 5106 1420 5101zM1640 5070C 1640 5065 1621 5060 1598 5059C 1574 5059 1547 5057 1538 5055C 1528 5053 1520 5056 1520 5060C 1520 5065 1541 5071 1568 5073C 1594 5075 1621 5077 1628 5078C 1634 5079 1640 5076 1640 5070zM2023 5050C 2039 5037 2051 5034 2055 5040C 2064 5054 2093 5052 2126 5035C 2142 5027 2156 5024 2158 5030C 2160 5035 2169 5036 2178 5032C 2201 5024 2230 4988 2226 4974C 2223 4968 2234 4964 2251 4965C 2268 4966 2283 4963 2286 4958C 2289 4954 2296 4952 2301 4955C 2306 4959 2310 4956 2310 4950C 2310 4944 2304 4940 2298 4941C 2267 4945 2249 4939 2230 4918L2230 4918L2210 4896L2210 4923C 2210 4942 2206 4948 2195 4944C 2187 4940 2179 4930 2179 4921C 2178 4907 2177 4907 2173 4922C 2171 4931 2163 4937 2157 4935C 2150 4933 2132 4929 2116 4925C 2092 4920 2089 4922 2094 4936C 2099 4949 2095 4951 2073 4947C 2042 4941 2020 4948 2020 4962C 2020 4968 2027 4967 2035 4960C 2056 4943 2066 4955 2047 4974C 2039 4982 2030 4987 2027 4984C 2017 4974 1963 5009 1957 5029C 1952 5049 1966 5070 1986 5070C 1992 5070 2009 5061 2023 5050zM1460 5050C 1426 5039 1410 5038 1410 5048C 1410 5052 1427 5056 1448 5057C 1480 5058 1482 5057 1460 5050zM2910 4985C 2910 4977 2902 4974 2890 4977C 2879 4980 2873 4986 2876 4991C 2879 4996 2875 5000 2868 5000C 2858 5000 2859 5003 2870 5010C 2886 5020 2910 5005 2910 4985zM1625 4969C 1599 4959 1530 4958 1530 4968C 1530 4972 1556 4975 1587 4976C 1623 4976 1637 4974 1625 4969zM1473 4953C 1460 4951 1440 4951 1428 4953C 1415 4955 1425 4957 1450 4957C 1475 4957 1485 4955 1473 4953zM2973 4923C 2966 4921 2954 4921 2948 4923C 2941 4926 2946 4928 2960 4928C 2974 4928 2979 4926 2973 4923zM2090 4885C 2090 4871 2068 4860 2039 4860C 2013 4860 2015 4885 2043 4897C 2069 4909 2090 4903 2090 4885zM2989 4896C 2999 4890 3001 4891 2996 4898C 2992 4905 2994 4910 2999 4910C 3030 4910 2989 4851 2948 4837C 2922 4828 2926 4849 2953 4860L2953 4860L2975 4869L2953 4869C 2940 4870 2929 4876 2929 4883C 2928 4889 2924 4879 2920 4860L2920 4860L2913 4825L2911 4862C 2911 4883 2915 4900 2923 4903C 2939 4910 2972 4906 2989 4896zM2866 4884C 2863 4875 2864 4872 2871 4875C 2878 4880 2880 4867 2878 4838L2878 4838L2875 4795L2825 4795L2775 4795L2775 4840C 2775 4884 2776 4885 2810 4891C 2868 4901 2873 4901 2866 4884zM2013 4838C 2023 4833 2049 4826 2072 4822C 2109 4815 2142 4789 2129 4776C 2123 4769 1848 4739 1843 4744C 1841 4746 1860 4753 1884 4759C 1922 4768 1950 4791 1950 4813C 1950 4817 1922 4811 1803 4785C 1786 4781 1780 4784 1780 4796C 1780 4820 1810 4839 1850 4840C 1869 4841 1894 4845 1905 4850C 1927 4859 1984 4853 2013 4838zM3006 4814C 2997 4806 2995 4805 3000 4812C 3006 4819 3011 4833 3011 4845C 3012 4863 3013 4863 3017 4846C 3020 4836 3015 4821 3006 4814zM2941 4802C 2934 4800 2923 4803 2918 4808C 2910 4816 2914 4817 2931 4813C 2944 4809 2949 4805 2941 4802zM1540 4796C 1540 4793 1536 4788 1530 4785C 1525 4782 1520 4784 1520 4789C 1520 4795 1525 4800 1530 4800C 1536 4800 1540 4798 1540 4796zM1591 4791C 1583 4786 1571 4784 1563 4787C 1542 4795 1548 4800 1578 4800C 1598 4800 1601 4797 1591 4791zM1480 4786C 1480 4784 1469 4780 1455 4778C 1441 4775 1430 4777 1430 4781C 1430 4786 1441 4790 1455 4790C 1469 4790 1480 4788 1480 4786zM2983 4773C 2976 4771 2962 4771 2953 4773C 2943 4776 2949 4778 2965 4778C 2982 4778 2989 4776 2983 4773zM2837 4754C 2834 4751 2825 4750 2818 4753C 2810 4756 2813 4759 2824 4759C 2835 4760 2841 4757 2837 4754zM2955 4750C 2949 4741 2954 4739 2993 4736C 2999 4735 3004 4742 3002 4750C 3000 4758 3002 4761 3006 4757C 3017 4746 3020 4719 3009 4726C 3004 4729 3000 4722 3000 4712C 3000 4701 2993 4687 2984 4679C 2960 4660 2934 4680 2938 4716C 2940 4738 2938 4742 2930 4730C 2922 4717 2920 4717 2920 4732C 2920 4741 2928 4751 2938 4753C 2947 4756 2956 4758 2958 4759C 2960 4759 2958 4756 2955 4750zM2600 4735C 2600 4727 2593 4720 2585 4720C 2569 4720 2565 4732 2577 4743C 2588 4755 2600 4751 2600 4735zM2151 4718C 2147 4706 2137 4694 2130 4692C 2123 4689 2120 4692 2124 4698C 2127 4704 2117 4711 2100 4715C 2060 4724 2069 4735 2119 4738C 2157 4741 2159 4739 2151 4718zM2888 4722C 2893 4707 2864 4706 2855 4720C 2852 4726 2843 4730 2837 4730C 2830 4730 2836 4721 2849 4711C 2879 4688 2871 4660 2836 4660C 2805 4660 2794 4676 2811 4696C 2821 4708 2821 4713 2810 4723C 2800 4733 2799 4732 2805 4721C 2810 4712 2809 4709 2802 4714C 2794 4719 2790 4708 2790 4679C 2790 4639 2791 4638 2820 4642C 2839 4645 2847 4643 2841 4637C 2836 4632 2822 4630 2809 4632C 2789 4634 2784 4642 2782 4673C 2778 4725 2793 4742 2843 4737C 2866 4735 2886 4728 2888 4722zM2293 4713C 2286 4711 2274 4711 2268 4713C 2261 4716 2266 4718 2280 4718C 2294 4718 2299 4716 2293 4713zM2883 4649C 2877 4643 2876 4652 2879 4672C 2883 4700 2885 4701 2888 4681C 2890 4668 2888 4654 2883 4649zM2941 4652C 2934 4650 2923 4653 2918 4658C 2910 4666 2914 4667 2931 4663C 2944 4659 2949 4655 2941 4652zM3020 4666C 3020 4664 3013 4659 3004 4656C 2996 4653 2992 4654 2995 4660C 3001 4670 3020 4674 3020 4666zM2624 4614C 2627 4588 2630 4524 2630 4471L2630 4471L2630 4374L2448 4352C 1960 4290 1843 4273 1852 4265C 1855 4262 1901 4267 1956 4275C 2066 4292 2246 4316 2330 4324C 2379 4329 2383 4328 2367 4316C 2349 4302 2350 4301 2372 4298C 2399 4294 2298 4279 2018 4245C 1904 4232 1800 4218 1785 4214L1785 4214L1759 4207L1783 4234C 1796 4248 1815 4260 1825 4260C 1835 4260 1841 4262 1838 4265C 1835 4268 1773 4264 1700 4255C 1538 4236 1550 4236 1550 4261C 1550 4277 1546 4280 1528 4275C 1509 4270 1511 4273 1535 4289C 1571 4314 1565 4316 1521 4294C 1457 4262 1395 4299 1391 4371C 1390 4395 1388 4428 1386 4443C 1383 4465 1388 4474 1409 4484C 1446 4504 1495 4507 1514 4491C 1528 4479 1530 4481 1530 4509C 1530 4527 1535 4540 1543 4540C 1549 4540 1632 4549 1727 4560C 1821 4571 2022 4594 2172 4611C 2322 4628 2474 4645 2510 4649C 2623 4663 2617 4666 2624 4614zM1918 4622C 1920 4615 1916 4610 1908 4609C 1901 4609 1874 4606 1848 4604C 1802 4599 1774 4614 1800 4630C 1819 4642 1913 4635 1918 4622zM1777 4606C 1775 4600 1764 4594 1752 4594C 1740 4593 1729 4592 1728 4590C 1726 4589 1710 4587 1693 4585C 1667 4582 1660 4585 1660 4599C 1660 4613 1670 4616 1720 4617C 1762 4618 1780 4614 1777 4606zM2967 4614C 2964 4611 2955 4610 2948 4613C 2940 4616 2943 4619 2954 4619C 2965 4620 2971 4617 2967 4614zM1610 4596C 1610 4588 1605 4578 1598 4574C 1591 4569 1589 4572 1593 4583C 1596 4592 1594 4601 1587 4604C 1580 4606 1583 4609 1593 4609C 1602 4610 1610 4604 1610 4596zM1640 4595C 1640 4587 1636 4580 1632 4580C 1627 4580 1623 4587 1623 4595C 1623 4603 1627 4610 1632 4610C 1636 4610 1640 4603 1640 4595zM3017 4566C 3016 4547 3012 4534 3008 4537C 3003 4539 3000 4537 3000 4533C 3000 4528 2988 4524 2973 4525C 2954 4525 2941 4533 2932 4549C 2912 4587 2924 4600 2975 4600L2975 4600L3020 4600L3017 4566zM2887 4570C 2890 4560 2889 4559 2883 4566C 2879 4573 2866 4580 2855 4583C 2839 4588 2840 4588 2859 4587C 2873 4586 2885 4578 2887 4570zM2853 4524C 2849 4514 2844 4512 2838 4518C 2826 4530 2837 4553 2850 4545C 2855 4542 2856 4532 2853 4524zM3015 4510C 3012 4505 2997 4501 2982 4501L2982 4501L2955 4502L2985 4510C 3002 4514 3016 4518 3018 4519C 3020 4519 3018 4516 3015 4510zM2926 4423C 2919 4416 2870 4410 2870 4416C 2870 4424 2915 4438 2923 4433C 2928 4430 2929 4426 2926 4423zM2455 4324C 2430 4314 2428 4312 2445 4307C 2456 4304 2450 4302 2431 4303C 2412 4304 2395 4310 2393 4317C 2389 4329 2409 4336 2455 4336L2455 4336L2485 4337L2455 4324zM1449 4274C 1451 4272 1441 4270 1427 4270C 1409 4270 1400 4275 1400 4285C 1400 4298 1404 4299 1423 4289C 1435 4283 1447 4276 1449 4274z" stroke="none"  fill="#000000" fill-rule="nonzero" />
		<path  d="M2210 5180C 2188 5166 2214 5134 2244 5139C 2249 5140 2260 5134 2269 5126C 2283 5113 2293 5112 2335 5123C 2368 5131 2386 5141 2388 5153C 2392 5175 2364 5176 2352 5153C 2343 5139 2342 5139 2336 5158C 2332 5171 2320 5180 2309 5180C 2292 5180 2291 5177 2300 5159C 2307 5148 2309 5136 2307 5133C 2299 5126 2250 5161 2250 5174C 2250 5188 2227 5191 2210 5180z" stroke="none"  fill="#000000" fill-rule="nonzero" />
		<path  d="M2802 5188C 2808 5170 2830 5167 2830 5184C 2830 5193 2823 5200 2814 5200C 2805 5200 2800 5195 2802 5188z" stroke="none"  fill="#000000" fill-rule="nonzero" />
		<path  d="M2720 5155C 2720 5126 2723 5119 2738 5122C 2749 5124 2755 5135 2755 5155C 2755 5175 2749 5186 2738 5188C 2723 5191 2720 5184 2720 5155z" stroke="none"  fill="#000000" fill-rule="nonzero" />
		<path  d="M2804 5149C 2794 5132 2817 5113 2831 5127C 2843 5139 2835 5160 2820 5160C 2815 5160 2808 5155 2804 5149z" stroke="none"  fill="#000000" fill-rule="nonzero" />
		<path  d="M2786 4872C 2783 4867 2787 4863 2795 4863C 2803 4863 2810 4867 2810 4872C 2810 4876 2806 4880 2801 4880C 2795 4880 2789 4876 2786 4872z" stroke="none"  fill="#000000" fill-rule="nonzero" />
		<path  d="M2847 4859C 2854 4852 2862 4849 2865 4852C 2868 4855 2863 4861 2853 4864C 2839 4870 2838 4869 2847 4859z" stroke="none"  fill="#000000" fill-rule="nonzero" />
		<path  d="M2798 4833C 2805 4830 2814 4831 2817 4834C 2821 4837 2815 4840 2804 4839C 2793 4839 2790 4836 2798 4833z" stroke="none"  fill="#000000" fill-rule="nonzero" />
		<path  d="M2850 4826C 2850 4817 2855 4810 2860 4810C 2866 4810 2870 4814 2870 4819C 2870 4825 2866 4832 2860 4835C 2855 4838 2850 4834 2850 4826z" stroke="none"  fill="#000000" fill-rule="nonzero" />
		<path  d="M2485 4614C 2430 4607 2368 4600 2347 4599C 2326 4597 2306 4591 2302 4586C 2293 4571 2300 4397 2310 4386C 2320 4376 2549 4397 2589 4412C 2612 4420 2612 4422 2605 4518C 2601 4571 2595 4618 2592 4621C 2588 4624 2540 4621 2485 4614zM2540 4601C 2540 4596 2531 4590 2520 4587C 2509 4584 2500 4586 2500 4590C 2500 4595 2508 4601 2518 4603C 2527 4606 2536 4608 2538 4609C 2539 4609 2540 4606 2540 4601zM2590 4600C 2590 4595 2586 4590 2580 4590C 2575 4590 2570 4595 2570 4600C 2570 4606 2575 4610 2580 4610C 2586 4610 2590 4606 2590 4600zM2470 4590C 2470 4585 2466 4580 2460 4580C 2455 4580 2450 4585 2450 4590C 2450 4596 2455 4600 2460 4600C 2466 4600 2470 4596 2470 4590zM2420 4582C 2420 4578 2411 4574 2400 4573C 2389 4572 2380 4575 2380 4581C 2380 4586 2389 4590 2400 4590C 2411 4590 2420 4586 2420 4582zM2350 4570C 2350 4565 2346 4560 2340 4560C 2335 4560 2330 4565 2330 4570C 2330 4576 2335 4580 2340 4580C 2346 4580 2350 4576 2350 4570zM2505 4490C 2521 4474 2530 4460 2524 4460C 2519 4460 2504 4450 2490 4439C 2474 4425 2471 4420 2483 4424C 2492 4427 2500 4426 2500 4421C 2500 4416 2491 4410 2480 4407C 2446 4398 2458 4440 2493 4453C 2502 4456 2510 4464 2510 4469C 2510 4486 2491 4491 2469 4480C 2443 4465 2435 4473 2450 4499C 2464 4527 2471 4526 2505 4490zM2455 4438C 2458 4435 2454 4430 2446 4427C 2438 4424 2426 4428 2419 4436C 2409 4448 2411 4450 2428 4447C 2440 4445 2452 4441 2455 4438zM2595 4430C 2598 4425 2596 4420 2591 4420C 2585 4420 2580 4425 2580 4430C 2580 4436 2582 4440 2584 4440C 2587 4440 2592 4436 2595 4430zM2550 4420C 2550 4415 2546 4410 2540 4410C 2535 4410 2530 4415 2530 4420C 2530 4426 2535 4430 2540 4430C 2546 4430 2550 4426 2550 4420zM2430 4411C 2430 4406 2421 4400 2410 4397C 2398 4394 2390 4397 2390 4404C 2390 4410 2399 4416 2410 4417C 2421 4418 2430 4415 2430 4411zM2360 4400C 2360 4395 2356 4390 2350 4390C 2345 4390 2340 4395 2340 4400C 2340 4406 2345 4410 2350 4410C 2356 4410 2360 4406 2360 4400z" stroke="none"  fill="#000000" fill-rule="nonzero" />
		<path  d="M2109 4570C 2034 4561 1968 4550 1961 4545C 1951 4540 1950 4514 1955 4441C 1959 4388 1966 4343 1970 4340C 1984 4331 2080 4342 2080 4352C 2080 4358 2073 4360 2065 4356C 2056 4353 2050 4356 2050 4366C 2050 4374 2054 4378 2060 4375C 2066 4372 2067 4376 2064 4384C 2060 4395 2064 4400 2079 4400C 2092 4400 2100 4407 2101 4418C 2101 4432 2103 4432 2109 4415C 2114 4404 2115 4389 2113 4382C 2109 4374 2113 4372 2124 4376C 2133 4379 2140 4377 2140 4371C 2140 4356 2103 4357 2097 4373C 2094 4380 2091 4377 2091 4366C 2090 4349 2096 4349 2163 4355C 2279 4367 2275 4362 2271 4471C 2270 4527 2264 4569 2257 4576C 2248 4584 2208 4582 2109 4570zM2246 4533C 2242 4523 2234 4520 2222 4525C 2213 4529 2201 4533 2195 4534C 2174 4538 2160 4552 2167 4563C 2171 4570 2176 4567 2181 4554C 2188 4535 2189 4535 2189 4554C 2190 4574 2190 4574 2206 4554C 2219 4538 2221 4538 2216 4553C 2210 4572 2226 4577 2233 4558C 2236 4550 2239 4554 2240 4565C 2242 4583 2243 4583 2247 4567C 2250 4557 2249 4542 2246 4533zM2130 4549C 2130 4544 2126 4540 2120 4540C 2115 4540 2113 4533 2117 4525C 2120 4516 2119 4510 2114 4511C 2094 4514 2080 4509 2080 4499C 2080 4491 2095 4490 2125 4495C 2170 4501 2171 4501 2166 4475C 2163 4460 2165 4439 2169 4427C 2174 4413 2172 4395 2163 4380C 2156 4366 2150 4361 2150 4368C 2150 4375 2143 4388 2135 4397C 2127 4405 2123 4416 2126 4422C 2130 4428 2136 4427 2141 4419C 2148 4408 2150 4409 2150 4422C 2150 4443 2134 4454 2126 4438C 2121 4427 2119 4427 2114 4438C 2111 4444 2104 4448 2099 4445C 2094 4442 2081 4444 2070 4450C 2057 4457 2050 4457 2050 4450C 2050 4445 2057 4440 2065 4440C 2085 4440 2084 4424 2064 4416C 2053 4412 2042 4417 2033 4430C 2021 4447 2015 4449 2004 4439C 1983 4421 1971 4438 1967 4493C 1963 4537 1972 4556 1983 4528C 1987 4519 1989 4521 1989 4531C 1990 4549 2021 4553 2032 4536C 2037 4528 2040 4529 2040 4538C 2040 4544 2049 4550 2059 4550C 2070 4550 2081 4544 2083 4538C 2087 4529 2089 4530 2089 4540C 2090 4557 2130 4565 2130 4549zM2260 4495C 2260 4477 2256 4472 2245 4476C 2234 4481 2230 4474 2229 4449L2229 4449L2228 4415L2216 4443C 2205 4468 2202 4469 2190 4455C 2183 4447 2175 4442 2172 4445C 2169 4448 2175 4459 2185 4471C 2201 4488 2202 4493 2190 4500C 2180 4506 2188 4510 2216 4513C 2237 4515 2256 4517 2258 4518C 2259 4519 2260 4509 2260 4495zM2020 4420C 2013 4416 2010 4407 2014 4401C 2019 4394 2015 4392 2005 4396C 1994 4401 1989 4398 1990 4389C 1991 4381 1992 4366 1990 4355L1990 4355L1989 4335L1980 4355C 1965 4390 1968 4423 1985 4416C 1994 4413 2003 4417 2006 4425C 2010 4433 2017 4437 2022 4434C 2028 4430 2028 4425 2020 4420zM2240 4379C 2240 4373 2236 4372 2230 4375C 2225 4378 2220 4386 2220 4391C 2220 4397 2225 4398 2230 4395C 2236 4392 2240 4384 2240 4379zM2190 4380C 2190 4375 2186 4370 2180 4370C 2175 4370 2170 4375 2170 4380C 2170 4386 2175 4390 2180 4390C 2186 4390 2190 4386 2190 4380zM2040 4362C 2040 4358 2031 4354 2020 4353C 2009 4352 2000 4355 2000 4361C 2000 4366 2009 4370 2020 4370C 2031 4370 2040 4366 2040 4362z" stroke="none"  fill="#000000" fill-rule="nonzero" />
		<path  d="M2026 4481C 2022 4476 2024 4469 2029 4466C 2034 4462 2041 4464 2044 4469C 2048 4474 2046 4481 2041 4484C 2036 4488 2029 4486 2026 4481z" stroke="none"  fill="#000000" fill-rule="nonzero" />
		<path  d="M1760 4529C 1680 4519 1611 4511 1606 4511C 1596 4510 1608 4309 1619 4297C 1623 4293 1672 4295 1728 4301L1728 4301L1830 4313L1830 4350C 1830 4379 1826 4389 1810 4393C 1799 4396 1790 4394 1790 4390C 1790 4386 1781 4384 1770 4387C 1759 4390 1750 4396 1750 4401C 1750 4406 1741 4410 1729 4410C 1717 4410 1710 4405 1713 4398C 1715 4391 1713 4377 1709 4368C 1703 4358 1704 4349 1710 4345C 1723 4337 1723 4310 1710 4310C 1705 4310 1700 4318 1699 4328C 1699 4342 1697 4342 1690 4325C 1685 4314 1681 4311 1681 4318C 1680 4324 1676 4330 1670 4330C 1665 4330 1663 4323 1666 4315C 1670 4307 1667 4300 1662 4300C 1656 4300 1649 4308 1647 4318C 1643 4334 1642 4334 1641 4318C 1641 4308 1636 4300 1631 4300C 1625 4300 1621 4308 1622 4318C 1622 4327 1620 4372 1616 4418C 1613 4465 1614 4500 1619 4500C 1624 4500 1631 4494 1633 4488C 1637 4479 1639 4480 1639 4490C 1640 4508 1680 4515 1680 4497C 1680 4489 1683 4488 1688 4496C 1702 4516 1729 4520 1733 4502C 1737 4486 1738 4487 1739 4503C 1740 4522 1780 4527 1780 4508C 1780 4499 1783 4499 1788 4506C 1802 4526 1829 4530 1833 4512C 1837 4496 1838 4497 1839 4513C 1839 4522 1844 4530 1849 4530C 1854 4530 1861 4522 1863 4513C 1867 4498 1868 4497 1869 4511C 1870 4527 1910 4546 1910 4532C 1910 4528 1913 4492 1916 4453C 1920 4407 1919 4380 1912 4380C 1907 4380 1899 4373 1896 4364C 1892 4352 1894 4349 1905 4354C 1913 4357 1920 4354 1920 4347C 1920 4340 1911 4334 1900 4333C 1889 4332 1880 4337 1880 4346C 1880 4354 1874 4360 1868 4360C 1859 4360 1860 4363 1870 4370C 1878 4375 1881 4382 1877 4387C 1872 4391 1865 4388 1860 4380C 1854 4371 1855 4361 1860 4356C 1875 4341 1872 4332 1853 4327C 1843 4324 1855 4322 1880 4323L1880 4323L1925 4325L1925 4427C 1925 4483 1921 4533 1915 4538C 1909 4543 1845 4539 1760 4529zM1820 4334C 1820 4326 1811 4320 1800 4320C 1781 4320 1772 4348 1787 4363C 1796 4372 1820 4351 1820 4334zM1770 4329C 1770 4315 1750 4318 1749 4333C 1749 4339 1745 4336 1740 4325C 1734 4310 1731 4309 1731 4321C 1730 4330 1733 4339 1736 4343C 1744 4351 1770 4340 1770 4329z" stroke="none"  fill="#000000" fill-rule="nonzero" />
		<path  d="M1880 4499C 1880 4488 1884 4481 1890 4485C 1895 4488 1897 4497 1893 4505C 1886 4526 1880 4524 1880 4499z" stroke="none"  fill="#000000" fill-rule="nonzero" />
		<path  d="M1690 4470L1655 4463L1692 4461C 1712 4461 1732 4465 1735 4470C 1742 4481 1742 4481 1690 4470z" stroke="none"  fill="#000000" fill-rule="nonzero" />
		<path  d="M1790 4450C 1790 4433 1796 4430 1825 4433C 1846 4434 1860 4440 1860 4448C 1860 4457 1853 4459 1840 4455C 1829 4451 1820 4453 1820 4459C 1820 4465 1813 4470 1805 4470C 1797 4470 1790 4461 1790 4450z" stroke="none"  fill="#000000" fill-rule="nonzero" />
		<path  d="M1547 4395C 1554 4346 1560 4337 1560 4376C 1560 4392 1555 4412 1550 4420C 1544 4430 1543 4422 1547 4395z" stroke="none"  fill="#000000" fill-rule="nonzero" />
		<path  d="M1918 4253C 1925 4250 1934 4251 1937 4254C 1941 4257 1935 4260 1924 4259C 1913 4259 1910 4256 1918 4253z" stroke="none"  fill="#000000" fill-rule="nonzero" />
		<path  d="M2936 4581C 2932 4576 2939 4574 2949 4577C 2959 4580 2977 4577 2989 4571C 3005 4562 3010 4562 3010 4572C 3010 4587 2944 4595 2936 4581z" stroke="none"  fill="#000000" fill-rule="nonzero" />
		<path  d="M4820 4808C 4820 4674 4797 4324 4788 4319C 4783 4315 4737 4307 4686 4301C 4636 4294 4549 4282 4492 4274C 4435 4265 4386 4260 4384 4263C 4381 4265 4378 4387 4377 4534C 4375 4862 4358 4899 4348 4600C 4344 4487 4340 4364 4338 4325L4338 4325L4335 4255L4275 4245L4215 4235L4212 4178C 4209 4129 4212 4120 4232 4106C 4245 4097 4255 4086 4255 4082C 4256 4070 4284 4030 4292 4030C 4296 4030 4311 4019 4326 4005C 4340 3992 4356 3982 4360 3985C 4364 3988 4373 3983 4380 3975C 4387 3967 4396 3963 4401 3966C 4406 3969 4410 3967 4410 3962C 4410 3945 4503 3907 4562 3901C 4624 3893 4647 3896 4900 3936C 4985 3949 5087 3965 5125 3971C 5164 3977 5213 3986 5235 3991C 5257 3997 5284 4002 5295 4004C 5323 4008 5347 4058 5339 4095C 5332 4125 5332 4125 5331 4098C 5331 4083 5325 4068 5319 4064C 5310 4059 5013 4009 4726 3965C 4619 3949 4541 3946 4525 3958C 4519 3962 4515 3979 4515 3995C 4515 4012 4509 4028 4500 4032C 4488 4037 4488 4039 4503 4039C 4512 4040 4520 4044 4520 4049C 4520 4053 4541 4055 4568 4053C 4609 4049 4747 4067 5190 4136C 5242 4144 5295 4153 5308 4155C 5324 4159 5330 4156 5331 4143C 5332 4131 5335 4133 5340 4150C 5344 4164 5348 4181 5349 4188C 5351 4207 5141 4302 5110 4296C 5096 4293 5058 4288 5025 4285C 4993 4281 4963 4277 4959 4274C 4956 4272 4917 4266 4874 4261C 4830 4256 4752 4244 4700 4235C 4648 4226 4542 4211 4465 4201C 4386 4190 4324 4178 4322 4171C 4317 4157 4300 4167 4300 4185C 4300 4192 4315 4200 4338 4203C 4379 4208 4759 4264 4860 4279C 4896 4285 4965 4294 5014 4301L5014 4301L5104 4313L5065 4332C 5031 4350 5020 4351 4953 4341C 4826 4322 4840 4291 4840 4595C 4840 4765 4836 4860 4830 4860C 4825 4860 4820 4837 4820 4808zM4697 4283C 4688 4280 4683 4274 4686 4268C 4690 4262 4685 4260 4674 4264C 4663 4267 4637 4265 4615 4260C 4593 4255 4574 4253 4572 4255C 4566 4261 4655 4287 4685 4287C 4702 4287 4707 4285 4697 4283zM4663 4182C 4644 4137 4644 4136 4630 4145C 4621 4151 4621 4154 4631 4160C 4657 4176 4649 4196 4619 4192C 4600 4189 4590 4192 4590 4200C 4590 4208 4599 4210 4615 4206C 4629 4202 4640 4203 4640 4208C 4640 4212 4649 4216 4659 4217C 4677 4219 4678 4217 4663 4182zM4254 4201C 4258 4196 4257 4190 4253 4187C 4248 4185 4251 4185 4259 4187C 4267 4189 4282 4181 4292 4170C 4303 4159 4316 4152 4322 4156C 4328 4160 4335 4159 4339 4154C 4342 4149 4357 4139 4373 4133C 4406 4118 4409 4090 4377 4090C 4347 4090 4248 4139 4255 4151C 4259 4156 4254 4157 4246 4154C 4234 4149 4230 4155 4230 4179C 4230 4209 4243 4220 4254 4201zM4518 4183C 4508 4181 4490 4181 4478 4183C 4465 4185 4473 4187 4495 4187C 4517 4188 4527 4186 4518 4183zM4633 4173C 4626 4171 4612 4171 4603 4173C 4593 4176 4599 4178 4615 4178C 4632 4178 4639 4176 4633 4173zM4300 4094C 4300 4092 4291 4094 4280 4100C 4269 4106 4260 4113 4260 4116C 4260 4118 4269 4116 4280 4110C 4291 4104 4300 4097 4300 4094zM4583 4073C 4576 4071 4564 4071 4558 4073C 4551 4076 4556 4078 4570 4078C 4584 4078 4589 4076 4583 4073zM4637 4074C 4634 4071 4625 4070 4618 4073C 4610 4076 4613 4079 4624 4079C 4635 4080 4641 4077 4637 4074zM4500 4060C 4500 4055 4490 4050 4478 4051C 4456 4051 4456 4052 4475 4060C 4486 4065 4496 4069 4498 4069C 4499 4070 4500 4066 4500 4060zM4475 4030C 4478 4025 4477 4020 4471 4020C 4466 4020 4458 4025 4455 4030C 4452 4036 4453 4040 4459 4040C 4464 4040 4472 4036 4475 4030zM4464 4005C 4474 3997 4487 3993 4493 3997C 4499 4000 4500 3998 4496 3992C 4491 3984 4483 3983 4472 3990C 4439 4009 4425 4020 4435 4020C 4441 4019 4454 4013 4464 4005z" stroke="none"  fill="#000000" fill-rule="nonzero" />
		<path  d="M4271 4146C 4273 4144 4286 4137 4300 4131C 4324 4120 4324 4120 4306 4134C 4290 4147 4257 4158 4271 4146z" stroke="none"  fill="#000000" fill-rule="nonzero" />
		<path  d="M4333 4123C 4342 4109 4380 4099 4380 4111C 4380 4116 4376 4120 4371 4120C 4366 4120 4354 4123 4344 4127C 4333 4131 4329 4130 4333 4123z" stroke="none"  fill="#000000" fill-rule="nonzero" />
		<path  d="M5485 4836C 5451 4821 5459 4815 5525 4806C 5547 4804 5603 4794 5650 4785C 5736 4769 5854 4773 5866 4792C 5869 4797 5867 4807 5861 4814C 5852 4824 5808 4829 5697 4832C 5613 4835 5538 4839 5530 4843C 5522 4846 5502 4843 5485 4836z" stroke="none"  fill="#000000" fill-rule="nonzero" />
		<path  d="M5267 4803C 5263 4800 5243 4794 5223 4790L5223 4790L5185 4782L5228 4781C 5251 4781 5270 4776 5270 4770C 5270 4752 5298 4760 5303 4779C 5310 4807 5286 4823 5267 4803z" stroke="none"  fill="#000000" fill-rule="nonzero" />
		<path  d="M5750 4430C 5758 4425 5770 4420 5775 4420C 5781 4420 5778 4425 5770 4430C 5762 4435 5751 4440 5745 4440C 5740 4440 5742 4435 5750 4430z" stroke="none"  fill="#000000" fill-rule="nonzero" />
		<path  d="M5305 4320C 5302 4315 5304 4300 5311 4288L5311 4288L5323 4266L5340 4287C 5349 4299 5368 4310 5381 4313L5381 4313L5405 4317L5382 4319C 5369 4319 5350 4315 5340 4310C 5327 4303 5319 4303 5314 4312C 5309 4319 5311 4320 5320 4315C 5329 4310 5331 4311 5326 4318C 5317 4333 5313 4333 5305 4320z" stroke="none"  fill="#000000" fill-rule="nonzero" />
		<path  d="M5428 4323C 5435 4320 5444 4321 5447 4324C 5451 4327 5445 4330 5434 4329C 5423 4329 5420 4326 5428 4323z" stroke="none"  fill="#000000" fill-rule="nonzero" />
		<path  d="M6230 4290C 6238 4285 6250 4280 6255 4280C 6261 4280 6258 4285 6250 4290C 6242 4295 6231 4300 6225 4300C 6220 4300 6222 4295 6230 4290z" stroke="none"  fill="#000000" fill-rule="nonzero" />
		<path  d="M6163 4283C 6172 4281 6186 4281 6193 4283C 6199 4286 6192 4288 6175 4288C 6159 4288 6153 4286 6163 4283z" stroke="none"  fill="#000000" fill-rule="nonzero" />
		<path  d="M6098 4273C 6104 4271 6116 4271 6123 4273C 6129 4276 6124 4278 6110 4278C 6096 4278 6091 4276 6098 4273z" stroke="none"  fill="#000000" fill-rule="nonzero" />
		<path  d="M6038 4263C 6045 4260 6054 4261 6057 4264C 6061 4267 6055 4270 6044 4269C 6033 4269 6030 4266 6038 4263z" stroke="none"  fill="#000000" fill-rule="nonzero" />
		<path  d="M5963 4253C 5972 4251 5986 4251 5993 4253C 5999 4256 5992 4258 5975 4258C 5959 4258 5953 4256 5963 4253z" stroke="none"  fill="#000000" fill-rule="nonzero" />
		<path  d="M6124 4230C 5964 4204 5886 4202 5893 4223C 5895 4229 5907 4237 5921 4241L5921 4241L5945 4248L5920 4249C 5871 4251 5870 4246 5854 3999C 5846 3870 5842 3755 5845 3743C 5852 3712 5902 3699 5999 3702C 6064 3704 6080 3708 6079 3720C 6078 3728 6078 3767 6079 3805L6079 3805L6080 3876L6150 3888C 6269 3908 6264 3911 6257 3830C 6254 3790 6255 3758 6261 3755C 6272 3747 6327 3789 6334 3810C 6337 3818 6346 3916 6355 4028C 6373 4253 6371 4262 6316 4258C 6299 4257 6212 4244 6124 4230zM5882 3948C 5874 3940 5873 3944 5877 3961C 5881 3974 5885 3979 5888 3971C 5890 3964 5887 3953 5882 3948z" stroke="none"  fill="#000000" fill-rule="nonzero" />
		<path  d="M4020 4069C 4012 4065 3980 4057 3950 4051L3950 4051L3895 4042L3962 4047C 4018 4051 4031 4050 4036 4036C 4045 4014 4067 4016 4080 4040C 4093 4065 4082 4090 4068 4066C 4057 4046 4043 4045 4038 4064C 4036 4073 4030 4075 4020 4069z" stroke="none"  fill="#000000" fill-rule="nonzero" />
		<path  d="M3755 4025C 3717 4018 3699 4012 3715 4012C 3732 4012 3779 4017 3820 4025C 3861 4032 3879 4038 3860 4038C 3841 4038 3794 4032 3755 4025z" stroke="none"  fill="#000000" fill-rule="nonzero" />
		<path  d="M3585 4000C 3551 3994 3549 3993 3575 3992C 3592 3992 3623 3995 3645 3999C 3678 4006 3680 4008 3655 4007C 3639 4007 3607 4004 3585 4000z" stroke="none"  fill="#000000" fill-rule="nonzero" />
		<path  d="M4165 4001C 4159 3996 4144 3990 4130 3987C 4112 3984 4115 3982 4143 3981C 4163 3981 4180 3976 4180 3970C 4180 3954 4207 3959 4214 3976C 4225 4004 4220 4014 4207 3995C 4193 3977 4164 3982 4175 4001C 4183 4013 4177 4013 4165 4001z" stroke="none"  fill="#000000" fill-rule="nonzero" />
		<path  d="M3503 3983C 3512 3981 3526 3981 3533 3983C 3539 3986 3532 3988 3515 3988C 3499 3988 3493 3986 3503 3983z" stroke="none"  fill="#000000" fill-rule="nonzero" />
		<path  d="M3433 3973C 3442 3971 3458 3971 3468 3973C 3477 3976 3469 3978 3450 3978C 3431 3978 3423 3976 3433 3973z" stroke="none"  fill="#000000" fill-rule="nonzero" />
		<path  d="M4048 3973C 4060 3971 4078 3971 4088 3973C 4097 3976 4087 3978 4065 3977C 4043 3977 4035 3975 4048 3973z" stroke="none"  fill="#000000" fill-rule="nonzero" />
		<path  d="M3363 3963C 3372 3961 3388 3961 3398 3963C 3407 3966 3399 3968 3380 3968C 3361 3968 3353 3966 3363 3963z" stroke="none"  fill="#000000" fill-rule="nonzero" />
		<path  d="M3988 3963C 3994 3961 4006 3961 4013 3963C 4019 3966 4014 3968 4000 3968C 3986 3968 3981 3966 3988 3963z" stroke="none"  fill="#000000" fill-rule="nonzero" />
		<path  d="M2361 3933C 2360 3916 2365 3898 2370 3895C 2390 3883 2415 3900 2417 3926C 2417 3941 2415 3949 2412 3944C 2401 3930 2376 3933 2368 3950C 2364 3959 2361 3953 2361 3933z" stroke="none"  fill="#000000" fill-rule="nonzero" />
		<path  d="M3298 3953C 3304 3951 3316 3951 3323 3953C 3329 3956 3324 3958 3310 3958C 3296 3958 3291 3956 3298 3953z" stroke="none"  fill="#000000" fill-rule="nonzero" />
		<path  d="M3923 3953C 3932 3951 3946 3951 3953 3953C 3959 3956 3952 3958 3935 3958C 3919 3958 3913 3956 3923 3953z" stroke="none"  fill="#000000" fill-rule="nonzero" />
		<path  d="M3238 3943C 3244 3941 3256 3941 3263 3943C 3269 3946 3264 3948 3250 3948C 3236 3948 3231 3946 3238 3943z" stroke="none"  fill="#000000" fill-rule="nonzero" />
		<path  d="M3858 3943C 3864 3941 3876 3941 3883 3943C 3889 3946 3884 3948 3870 3948C 3856 3948 3851 3946 3858 3943z" stroke="none"  fill="#000000" fill-rule="nonzero" />
		<path  d="M3178 3933C 3185 3930 3194 3931 3197 3934C 3201 3937 3195 3940 3184 3939C 3173 3939 3170 3936 3178 3933z" stroke="none"  fill="#000000" fill-rule="nonzero" />
		<path  d="M3798 3933C 3805 3930 3814 3931 3817 3934C 3821 3937 3815 3940 3804 3939C 3793 3939 3790 3936 3798 3933z" stroke="none"  fill="#000000" fill-rule="nonzero" />
		<path  d="M3108 3923C 3115 3920 3124 3921 3127 3924C 3131 3927 3125 3930 3114 3929C 3103 3929 3100 3926 3108 3923z" stroke="none"  fill="#000000" fill-rule="nonzero" />
		<path  d="M1537 3904C 1440 3889 1414 3879 1406 3852C 1403 3843 1413 3725 1429 3592C 1458 3352 1470 3307 1504 3294C 1511 3291 1570 3298 1635 3309C 1765 3331 1779 3341 1780 3402C 1780 3422 1773 3500 1765 3577C 1729 3908 1725 3921 1662 3919C 1642 3918 1585 3912 1537 3904zM1699 3816C 1692 3808 1503 3780 1468 3781C 1421 3782 1442 3788 1545 3804C 1636 3818 1707 3824 1699 3816zM1590 3750C 1590 3745 1582 3743 1573 3747C 1557 3753 1557 3751 1575 3731C 1586 3719 1596 3713 1598 3719C 1600 3725 1606 3730 1612 3730C 1618 3730 1617 3723 1609 3714C 1602 3706 1588 3701 1577 3704C 1567 3706 1550 3700 1540 3690C 1530 3680 1518 3675 1514 3678C 1509 3682 1512 3676 1520 3665C 1528 3654 1539 3642 1545 3638C 1550 3634 1547 3628 1537 3624C 1525 3620 1522 3611 1526 3591C 1533 3562 1550 3538 1550 3558C 1550 3565 1558 3570 1568 3570C 1578 3570 1590 3574 1596 3580C 1609 3593 1635 3575 1625 3560C 1621 3554 1609 3550 1599 3553C 1589 3556 1577 3554 1574 3549C 1571 3544 1574 3540 1579 3540C 1585 3540 1590 3535 1590 3528C 1590 3522 1587 3520 1583 3523C 1580 3527 1570 3524 1562 3517C 1540 3499 1506 3502 1500 3523C 1497 3533 1491 3541 1485 3540C 1473 3539 1462 3573 1461 3618C 1460 3638 1464 3649 1470 3645C 1476 3641 1480 3650 1480 3665C 1480 3680 1484 3689 1490 3685C 1504 3676 1503 3693 1488 3708C 1481 3715 1479 3720 1482 3720C 1486 3720 1496 3713 1504 3704C 1519 3690 1521 3690 1527 3707C 1541 3746 1590 3780 1590 3750zM1660 3702C 1660 3690 1663 3690 1675 3700C 1699 3720 1719 3697 1702 3670C 1690 3650 1701 3633 1720 3645C 1733 3653 1733 3637 1719 3606C 1706 3578 1690 3581 1690 3611C 1690 3622 1680 3634 1666 3640C 1647 3647 1642 3655 1646 3674C 1648 3687 1646 3711 1640 3727C 1631 3753 1631 3754 1645 3736C 1653 3725 1660 3710 1660 3702zM1603 3683C 1596 3681 1584 3681 1578 3683C 1571 3686 1576 3688 1590 3688C 1604 3688 1609 3686 1603 3683zM1660 3580C 1660 3575 1655 3570 1649 3570C 1644 3570 1642 3575 1645 3580C 1648 3586 1653 3590 1656 3590C 1658 3590 1660 3586 1660 3580zM1625 3494C 1610 3483 1610 3481 1627 3471C 1637 3465 1640 3460 1634 3460C 1624 3460 1580 3493 1580 3501C 1580 3503 1594 3505 1611 3505C 1637 3506 1639 3504 1625 3494zM1700 3506C 1700 3495 1681 3491 1675 3500C 1672 3505 1676 3510 1684 3510C 1693 3510 1700 3508 1700 3506zM1549 3459C 1541 3454 1532 3456 1528 3463C 1516 3481 1518 3488 1538 3492C 1559 3496 1567 3471 1549 3459z" stroke="none"  fill="#000000" fill-rule="nonzero" />
		<path  d="M1475 3620C 1478 3615 1485 3610 1491 3610C 1496 3610 1500 3615 1500 3620C 1500 3626 1493 3630 1484 3630C 1476 3630 1472 3626 1475 3620z" stroke="none"  fill="#000000" fill-rule="nonzero" />
		<path  d="M4297 3913C 4293 3907 4223 3892 4140 3879C 4058 3867 3992 3854 3995 3852C 3997 3850 4067 3858 4150 3871C 4298 3893 4300 3893 4315 3874C 4330 3855 4330 3855 4345 3874C 4353 3885 4359 3901 4359 3909C 4358 3922 4357 3922 4353 3908C 4346 3882 4320 3878 4311 3902C 4307 3914 4301 3919 4297 3913z" stroke="none"  fill="#000000" fill-rule="nonzero" />
		<path  d="M5181 3876C 5174 3867 5164 3863 5159 3866C 5154 3869 5150 3864 5150 3856C 5150 3834 5168 3827 5189 3842C 5201 3850 5205 3861 5201 3873C 5195 3890 5193 3890 5181 3876z" stroke="none"  fill="#000000" fill-rule="nonzero" />
		<path  d="M4947 3853C 4944 3848 4946 3835 4951 3823C 4960 3798 4979 3793 4997 3811C 5005 3819 5084 3781 5295 3665C 5453 3578 5584 3500 5588 3492C 5595 3473 5556 3440 5526 3439C 5515 3439 5511 3436 5518 3433C 5539 3425 5589 3450 5596 3472C 5607 3508 5596 3515 5108 3777C 5048 3809 5000 3842 4999 3850C 4999 3860 4997 3861 4993 3853C 4991 3846 4979 3840 4969 3840C 4958 3840 4952 3845 4955 3850C 4958 3856 4959 3860 4956 3860C 4953 3860 4949 3857 4947 3853z" stroke="none"  fill="#000000" fill-rule="nonzero" />
		<path  d="M3943 3843C 3952 3841 3966 3841 3973 3843C 3979 3846 3972 3848 3955 3848C 3939 3848 3933 3846 3943 3843z" stroke="none"  fill="#000000" fill-rule="nonzero" />
		<path  d="M3883 3833C 3892 3831 3906 3831 3913 3833C 3919 3836 3912 3838 3895 3838C 3879 3838 3873 3836 3883 3833z" stroke="none"  fill="#000000" fill-rule="nonzero" />
		<path  d="M3823 3823C 3832 3821 3846 3821 3853 3823C 3859 3826 3852 3828 3835 3828C 3819 3828 3813 3826 3823 3823z" stroke="none"  fill="#000000" fill-rule="nonzero" />
		<path  d="M4783 3805C 4785 3778 4788 3775 4820 3775C 4841 3774 4879 3761 4913 3741C 4944 3723 4970 3711 4970 3713C 4970 3716 4941 3735 4905 3756C 4869 3777 4840 3800 4840 3806C 4840 3821 4800 3812 4799 3796C 4798 3790 4794 3796 4790 3810C 4781 3834 4781 3834 4783 3805z" stroke="none"  fill="#000000" fill-rule="nonzero" />
		<path  d="M3758 3813C 3764 3811 3776 3811 3783 3813C 3789 3816 3784 3818 3770 3818C 3756 3818 3751 3816 3758 3813z" stroke="none"  fill="#000000" fill-rule="nonzero" />
		<path  d="M4040 3764C 3964 3750 3294 3641 3141 3619C 3092 3611 3056 3601 3053 3593C 3050 3586 3060 3479 3075 3354C 3089 3230 3099 3126 3096 3122C 3093 3119 2983 3097 2852 3073C 2607 3029 2541 3011 2518 2982C 2509 2971 2517 2973 2543 2989C 2570 3006 2644 3024 2818 3056C 2948 3080 3066 3101 3080 3102L3080 3102L3104 3105L3136 2852C 3158 2669 3171 2595 3183 2582C 3192 2572 3205 2548 3212 2528C 3220 2505 3268 2445 3335 2375C 3396 2310 3465 2237 3489 2212C 3542 2154 3578 2130 3608 2130C 3631 2130 4602 2352 4683 2376C 4692 2379 4700 2390 4700 2400C 4700 2410 4709 2422 4720 2425C 4731 2428 4740 2438 4740 2445C 4740 2453 4638 2542 4513 2642C 4388 2743 4280 2830 4274 2835C 4266 2841 4242 3018 4211 3300C 4183 3550 4160 3761 4160 3768C 4160 3783 4137 3782 4040 3764zM4045 3651C 4039 3646 4015 3639 3990 3636C 3965 3633 3898 3622 3840 3611C 3715 3586 3389 3530 3340 3525C 3214 3511 3176 3508 3181 3513C 3188 3522 3683 3606 3930 3641C 3971 3647 4007 3654 4009 3656C 4011 3658 4022 3660 4034 3660C 4046 3660 4050 3656 4045 3651zM4008 3557C 4039 3524 4045 3479 4025 3437C 3983 3348 3880 3384 3880 3488C 3880 3567 3959 3610 4008 3557zM3710 3544C 3710 3536 3715 3532 3720 3535C 3726 3538 3730 3534 3730 3526C 3730 3517 3726 3510 3720 3510C 3715 3510 3710 3501 3710 3491C 3710 3478 3717 3472 3733 3472C 3745 3472 3771 3467 3790 3461C 3821 3451 3819 3451 3764 3455L3764 3455L3702 3459L3711 3422C 3716 3400 3715 3381 3710 3376C 3704 3370 3700 3355 3700 3342C 3700 3319 3668 3280 3649 3280C 3645 3280 3634 3287 3625 3296C 3616 3305 3607 3310 3604 3307C 3601 3304 3608 3293 3619 3283C 3644 3262 3645 3251 3624 3235C 3611 3226 3603 3229 3580 3249C 3496 3328 3435 3369 3422 3355C 3419 3352 3427 3336 3439 3319C 3457 3295 3459 3286 3450 3275C 3433 3255 3420 3266 3420 3300C 3420 3320 3411 3336 3388 3354C 3343 3389 3326 3374 3332 3302C 3336 3263 3333 3247 3323 3243C 3315 3240 3310 3225 3312 3204C 3314 3166 3305 3151 3288 3168C 3280 3176 3281 3187 3292 3209C 3302 3231 3305 3255 3300 3290C 3287 3388 3248 3381 3255 3282L3255 3282L3259 3227L3235 3250C 3212 3272 3177 3269 3199 3247C 3215 3231 3213 3200 3196 3200C 3183 3200 3181 3211 3164 3363C 3157 3424 3158 3425 3217 3423C 3224 3423 3232 3432 3236 3443C 3250 3488 3284 3506 3372 3515C 3424 3521 3445 3519 3462 3508C 3507 3479 3528 3480 3539 3511C 3546 3533 3557 3540 3587 3545C 3608 3549 3629 3552 3633 3553C 3672 3562 3710 3557 3710 3544zM4090 3360C 4090 3355 4086 3350 4080 3350C 4075 3350 4070 3355 4070 3360C 4070 3366 4075 3370 4080 3370C 4086 3370 4090 3366 4090 3360zM4030 3320C 4030 3315 4021 3310 4010 3310C 3999 3310 3990 3315 3990 3320C 3990 3326 3999 3330 4010 3330C 4021 3330 4030 3326 4030 3320zM3895 3299C 3895 3292 3887 3284 3878 3282C 3860 3279 3853 3300 3867 3314C 3877 3324 3895 3315 3895 3299zM3970 3310C 3951 3297 3940 3297 3940 3310C 3940 3316 3950 3320 3963 3320C 3981 3320 3982 3318 3970 3310zM4101 3308C 4101 3306 4107 3261 4114 3206C 4128 3091 4136 3100 4000 3075C 3953 3066 3905 3057 3893 3054C 3877 3051 3870 3054 3870 3065C 3870 3073 3863 3080 3855 3080C 3842 3080 3842 3076 3857 3053C 3870 3034 3871 3025 3862 3022C 3839 3015 3849 2981 3876 2974L3876 2974L3903 2967L3879 2954C 3866 2947 3857 2938 3859 2933C 3862 2925 3807 2903 3690 2864C 3657 2853 3604 2846 3558 2846C 3515 2845 3480 2842 3480 2837C 3480 2830 3420 2837 3411 2845C 3409 2848 3402 2846 3396 2841C 3377 2826 3332 2819 3325 2831C 3321 2837 3306 2838 3290 2835C 3257 2828 3243 2842 3266 2860C 3276 2870 3284 2870 3292 2862C 3298 2856 3309 2854 3316 2857C 3324 2860 3330 2857 3330 2850C 3330 2834 3382 2842 3388 2859C 3391 2869 3388 2870 3379 2864C 3354 2849 3340 2851 3329 2872C 3312 2904 3334 2918 3362 2894C 3380 2879 3382 2879 3371 2893C 3362 2905 3361 2910 3369 2910C 3375 2910 3383 2903 3386 2895C 3391 2884 3397 2888 3410 2912C 3419 2929 3433 2946 3441 2949C 3453 2952 3453 2951 3442 2937C 3431 2924 3431 2922 3447 2926C 3459 2929 3472 2921 3485 2900C 3496 2884 3512 2870 3520 2870C 3542 2870 3566 2888 3557 2897C 3552 2901 3545 2898 3540 2891C 3527 2868 3498 2886 3505 2912C 3510 2930 3509 2932 3501 2920C 3491 2907 3490 2907 3490 2920C 3490 2942 3502 2956 3528 2964C 3540 2968 3550 2975 3550 2979C 3550 2982 3566 2985 3585 2985C 3611 2984 3619 2987 3618 2999C 3616 3007 3627 3020 3642 3027C 3657 3035 3672 3049 3675 3060C 3684 3089 3700 3084 3701 3053C 3701 3036 3704 3031 3707 3040C 3711 3048 3724 3063 3737 3073C 3750 3083 3766 3098 3774 3105C 3788 3119 3852 3122 3844 3108C 3842 3104 3845 3098 3851 3094C 3860 3089 3861 3110 3856 3176L3856 3176L3849 3265L3962 3287C 4079 3309 4099 3312 4101 3308zM3257 3198C 3254 3190 3251 3193 3251 3204C 3250 3215 3253 3221 3256 3217C 3259 3214 3260 3205 3257 3198zM3630 3080C 3630 3075 3626 3070 3620 3070C 3615 3070 3610 3075 3610 3080C 3610 3086 3615 3090 3620 3090C 3626 3090 3630 3086 3630 3080zM3480 3060C 3480 3055 3476 3050 3470 3050C 3465 3050 3460 3055 3460 3060C 3460 3066 3465 3070 3470 3070C 3476 3070 3480 3066 3480 3060zM4024 3044C 4045 3036 4045 2981 4025 2974C 4017 2970 4004 2973 3996 2979C 3987 2987 3975 2987 3956 2980C 3942 2975 3930 2972 3929 2973C 3919 3004 3922 3020 3940 3021C 3975 3023 3979 3025 3992 3038C 4006 3052 4004 3052 4024 3044zM4107 3035C 4114 3016 4112 3015 4081 3005C 4061 2999 4058 3001 4063 3014C 4067 3023 4064 3030 4057 3030C 4041 3030 4071 3050 4088 3050C 4095 3050 4103 3043 4107 3035zM3687 2844C 3684 2841 3675 2840 3668 2843C 3660 2846 3663 2849 3674 2849C 3685 2850 3691 2847 3687 2844zM3637 2834C 3634 2831 3625 2830 3618 2833C 3610 2836 3613 2839 3624 2839C 3635 2840 3641 2837 3637 2834zM4180 2832C 4180 2828 4125 2813 4058 2801C 3990 2788 3929 2775 3923 2772C 3916 2770 3910 2772 3910 2777C 3910 2782 3967 2798 4038 2812C 4193 2843 4180 2842 4180 2832zM4383 2700L4481 2621L4443 2612C 4289 2574 4247 2567 4229 2578C 4214 2587 4212 2587 4216 2576C 4222 2561 4234 2564 3915 2495C 3800 2470 3687 2446 3665 2440C 3633 2433 3622 2434 3605 2448C 3586 2464 3586 2464 3599 2448C 3614 2428 3610 2425 3555 2415C 3451 2394 3461 2391 3375 2480C 3331 2525 3293 2566 3291 2571C 3289 2577 3300 2580 3316 2578C 3332 2576 3344 2570 3343 2563C 3341 2556 3347 2553 3355 2557C 3366 2561 3368 2566 3360 2575C 3352 2584 3356 2589 3377 2593C 3395 2597 3409 2594 3416 2584C 3422 2576 3431 2570 3435 2570C 3439 2570 3437 2576 3431 2584C 3421 2595 3423 2600 3439 2605C 3464 2613 3481 2604 3474 2586C 3471 2579 3477 2567 3487 2559C 3503 2547 3504 2547 3493 2560C 3468 2593 3484 2614 3538 2624C 3586 2632 3591 2631 3610 2609C 3628 2588 3628 2592 3606 2632L3606 2632L3581 2678L3603 2683C 3904 2749 3939 2754 3960 2735C 3979 2718 3984 2717 4051 2732C 4110 2745 4123 2745 4127 2734C 4130 2726 4139 2720 4148 2720C 4161 2720 4160 2722 4145 2734C 4128 2746 4132 2749 4191 2763C 4226 2771 4262 2778 4270 2779C 4279 2779 4329 2744 4383 2700zM3545 2701C 3532 2690 3270 2636 3263 2644C 3257 2650 3266 2652 3420 2684C 3557 2713 3557 2713 3545 2701zM4263 2465C 4302 2432 4323 2400 4306 2400C 4303 2400 4232 2384 4149 2365C 4065 2346 3985 2330 3972 2330C 3956 2330 3926 2351 3883 2393L3883 2393L3818 2456L3971 2489C 4056 2507 4136 2525 4150 2529C 4177 2538 4178 2537 4263 2465z" stroke="none"  fill="#000000" fill-rule="nonzero" />
		<path  d="M3909 3543C 3896 3527 3897 3526 3913 3539C 3929 3552 3934 3560 3926 3560C 3924 3560 3916 3552 3909 3543z" stroke="none"  fill="#000000" fill-rule="nonzero" />
		<path  d="M3930 3465C 3923 3457 3914 3453 3909 3456C 3897 3463 3898 3443 3910 3419C 3925 3391 3984 3393 4004 3422C 4013 3434 4020 3454 4019 3465C 4019 3485 4019 3485 4010 3465C 4005 3454 4001 3450 4001 3455C 4000 3461 3997 3460 3992 3454C 3981 3437 3943 3428 3935 3440C 3931 3446 3934 3457 3940 3465C 3947 3473 3950 3480 3947 3480C 3945 3480 3937 3473 3930 3465z" stroke="none"  fill="#000000" fill-rule="nonzero" />
		<path  d="M3620 3487C 3611 3480 3606 3468 3608 3458C 3612 3439 3588 3421 3582 3438C 3578 3452 3530 3454 3530 3441C 3530 3425 3581 3419 3616 3432C 3635 3438 3650 3450 3650 3458C 3650 3465 3646 3469 3641 3465C 3636 3462 3629 3464 3626 3469C 3622 3474 3628 3480 3637 3482C 3647 3484 3650 3488 3645 3492C 3639 3495 3628 3493 3620 3487z" stroke="none"  fill="#000000" fill-rule="nonzero" />
		<path  d="M3551 3400C 3550 3379 3590 3316 3598 3325C 3602 3329 3599 3335 3593 3337C 3586 3340 3580 3346 3580 3351C 3580 3357 3585 3358 3590 3355C 3596 3352 3600 3354 3600 3359C 3600 3365 3595 3370 3589 3370C 3584 3370 3582 3375 3585 3380C 3588 3386 3585 3390 3576 3390C 3568 3390 3559 3396 3557 3403C 3553 3411 3551 3410 3551 3400z" stroke="none"  fill="#000000" fill-rule="nonzero" />
		<path  d="M3507 3366C 3503 3356 3503 3343 3507 3336C 3521 3314 3600 3247 3606 3253C 3615 3262 3593 3295 3557 3327C 3538 3344 3521 3363 3518 3371C 3515 3380 3512 3379 3507 3366z" stroke="none"  fill="#000000" fill-rule="nonzero" />
		<path  d="M3560 2959C 3560 2954 3565 2952 3570 2955C 3576 2958 3580 2963 3580 2966C 3580 2968 3576 2970 3570 2970C 3565 2970 3560 2965 3560 2959z" stroke="none"  fill="#000000" fill-rule="nonzero" />
		<path  d="M3705 2960C 3709 2953 3707 2944 3699 2939C 3687 2932 3688 2930 3700 2930C 3713 2930 3713 2929 3700 2920C 3692 2915 3689 2908 3692 2905C 3704 2893 3720 2911 3720 2935C 3720 2948 3715 2962 3708 2966C 3701 2971 3700 2969 3705 2960z" stroke="none"  fill="#000000" fill-rule="nonzero" />
		<path  d="M3614 2938C 3619 2916 3617 2910 3605 2910C 3596 2910 3592 2915 3595 2920C 3598 2926 3598 2935 3594 2942C 3583 2960 3571 2919 3581 2899C 3587 2888 3598 2884 3615 2888C 3638 2892 3641 2896 3635 2919C 3631 2933 3624 2950 3618 2955C 3611 2962 3609 2957 3614 2938z" stroke="none"  fill="#000000" fill-rule="nonzero" />
		<path  d="M3417 2903C 3407 2893 3409 2862 3420 2855C 3438 2844 3470 2861 3470 2880C 3470 2890 3466 2901 3461 2904C 3456 2908 3454 2902 3457 2891C 3460 2880 3455 2870 3446 2867C 3428 2860 3416 2875 3424 2895C 3430 2911 3427 2914 3417 2903z" stroke="none"  fill="#000000" fill-rule="nonzero" />
		<path  d="M4235 2750C 4216 2742 4216 2741 4238 2741C 4250 2740 4260 2745 4260 2750C 4260 2756 4259 2760 4258 2759C 4256 2759 4246 2755 4235 2750z" stroke="none"  fill="#000000" fill-rule="nonzero" />
		<path  d="M4185 2740C 4182 2735 4184 2730 4189 2730C 4195 2730 4200 2735 4200 2740C 4200 2746 4198 2750 4196 2750C 4193 2750 4188 2746 4185 2740z" stroke="none"  fill="#000000" fill-rule="nonzero" />
		<path  d="M3954 2702C 3957 2697 3955 2690 3948 2688C 3940 2685 3939 2682 3947 2677C 3953 2673 3960 2677 3964 2685C 3967 2693 3964 2702 3958 2706C 3952 2710 3950 2709 3954 2702z" stroke="none"  fill="#000000" fill-rule="nonzero" />
		<path  d="M4015 2700C 4007 2687 4020 2687 4040 2700C 4053 2708 4053 2710 4038 2710C 4029 2710 4018 2706 4015 2700z" stroke="none"  fill="#000000" fill-rule="nonzero" />
		<path  d="M3896 2685C 3900 2677 3907 2670 3912 2670C 3918 2670 3917 2676 3910 2685C 3903 2693 3896 2700 3894 2700C 3892 2700 3893 2693 3896 2685z" stroke="none"  fill="#000000" fill-rule="nonzero" />
		<path  d="M3836 2675C 3840 2667 3847 2660 3852 2660C 3858 2660 3857 2666 3850 2675C 3843 2683 3836 2690 3834 2690C 3832 2690 3833 2683 3836 2675z" stroke="none"  fill="#000000" fill-rule="nonzero" />
		<path  d="M3713 2657C 3717 2647 3715 2640 3708 2640C 3702 2640 3699 2637 3703 2634C 3706 2631 3715 2632 3723 2637C 3736 2644 3736 2647 3722 2660C 3708 2673 3707 2672 3713 2657z" stroke="none"  fill="#000000" fill-rule="nonzero" />
		<path  d="M3662 2634C 3672 2624 3682 2618 3684 2621C 3687 2624 3679 2632 3667 2639C 3646 2652 3646 2651 3662 2634z" stroke="none"  fill="#000000" fill-rule="nonzero" />
		<path  d="M4080 2636C 4080 2634 4088 2626 4098 2619C 4113 2606 4114 2607 4101 2623C 4088 2639 4080 2644 4080 2636z" stroke="none"  fill="#000000" fill-rule="nonzero" />
		<path  d="M3525 2600C 3506 2592 3506 2591 3527 2591C 3539 2590 3552 2595 3555 2600C 3562 2612 3553 2612 3525 2600z" stroke="none"  fill="#000000" fill-rule="nonzero" />
		<path  d="M3510 2476C 3510 2474 3518 2466 3528 2459C 3543 2446 3544 2447 3531 2463C 3518 2479 3510 2484 3510 2476z" stroke="none"  fill="#000000" fill-rule="nonzero" />
		<path  d="M5416 3739C 5427 3721 5505 3708 5570 3715C 5627 3721 5638 3719 5644 3705C 5651 3686 5665 3692 5680 3720C 5687 3733 5687 3741 5678 3746C 5672 3750 5670 3749 5674 3742C 5685 3724 5658 3716 5645 3733C 5638 3743 5630 3746 5624 3740C 5605 3721 5498 3717 5453 3733C 5429 3741 5413 3744 5416 3739z" stroke="none"  fill="#000000" fill-rule="nonzero" />
		<path  d="M2478 3733C 2485 3730 2494 3731 2497 3734C 2501 3737 2495 3740 2484 3739C 2473 3739 2470 3736 2478 3733z" stroke="none"  fill="#000000" fill-rule="nonzero" />
		<path  d="M2418 3723C 2425 3720 2434 3721 2437 3724C 2441 3727 2435 3730 2424 3729C 2413 3729 2410 3726 2418 3723z" stroke="none"  fill="#000000" fill-rule="nonzero" />
		<path  d="M2343 3713C 2352 3711 2366 3711 2373 3713C 2379 3716 2372 3718 2355 3718C 2339 3718 2333 3716 2343 3713z" stroke="none"  fill="#000000" fill-rule="nonzero" />
		<path  d="M2273 3703C 2282 3701 2298 3701 2308 3703C 2317 3706 2309 3708 2290 3708C 2271 3708 2263 3706 2273 3703z" stroke="none"  fill="#000000" fill-rule="nonzero" />
		<path  d="M2203 3693C 2212 3691 2228 3691 2238 3693C 2247 3696 2239 3698 2220 3698C 2201 3698 2193 3696 2203 3693z" stroke="none"  fill="#000000" fill-rule="nonzero" />
		<path  d="M2045 3674C 2001 3666 1952 3658 1936 3655C 1901 3650 1896 3645 1903 3625C 1912 3603 1950 3606 1950 3629C 1950 3645 1967 3650 2068 3667C 2132 3679 2172 3688 2155 3688C 2139 3688 2089 3682 2045 3674z" stroke="none"  fill="#000000" fill-rule="nonzero" />
		<path  d="M990 3581C 864 3558 851 3553 844 3524C 837 3498 896 3001 910 2964C 915 2953 929 2936 942 2928C 965 2913 976 2913 1076 2931C 1136 2941 1191 2950 1198 2950C 1205 2950 1222 2961 1235 2975C 1268 3007 1267 3043 1231 3333C 1209 3507 1198 3566 1184 3581C 1163 3604 1122 3604 990 3581zM1175 3491C 1163 3480 891 3435 884 3443C 876 3451 1014 3477 1175 3499C 1181 3500 1181 3497 1175 3491zM1060 3430C 1060 3425 1050 3420 1038 3421C 1016 3421 1016 3422 1035 3430C 1046 3435 1056 3439 1058 3439C 1059 3440 1060 3436 1060 3430zM1113 3433C 1106 3431 1094 3431 1088 3433C 1081 3436 1086 3438 1100 3438C 1114 3438 1119 3436 1113 3433zM1010 3425C 1010 3419 972 3403 935 3394C 916 3389 910 3392 910 3403C 910 3414 922 3420 953 3423C 976 3425 998 3427 1003 3428C 1007 3429 1010 3428 1010 3425zM1145 3380C 1135 3368 1121 3361 1114 3364C 1108 3366 1086 3358 1067 3344C 1047 3331 1024 3320 1016 3320C 1008 3320 1000 3315 998 3309C 995 3300 988 3300 972 3309C 957 3317 950 3317 950 3310C 950 3304 945 3302 939 3306C 920 3317 952 3330 972 3319C 986 3312 992 3313 996 3324C 999 3332 1008 3336 1015 3333C 1023 3331 1041 3340 1056 3355C 1075 3374 1090 3380 1107 3377C 1122 3374 1134 3378 1137 3386C 1140 3394 1147 3400 1153 3400C 1158 3400 1155 3391 1145 3380zM1035 3380C 1038 3375 1036 3370 1031 3370C 1025 3370 1020 3375 1020 3380C 1020 3386 1022 3390 1024 3390C 1027 3390 1032 3386 1035 3380zM1220 3090C 1220 3085 1218 3080 1216 3080C 1213 3080 1208 3085 1205 3090C 1202 3096 1204 3100 1209 3100C 1215 3100 1220 3096 1220 3090zM1177 3084C 1174 3081 1165 3080 1158 3083C 1150 3086 1153 3089 1164 3089C 1175 3090 1181 3087 1177 3084zM1090 3070C 1070 3057 1057 3057 1065 3070C 1068 3076 1079 3080 1088 3080C 1103 3080 1103 3078 1090 3070zM960 3050C 960 3045 955 3040 949 3040C 944 3040 942 3045 945 3050C 948 3056 953 3060 956 3060C 958 3060 960 3056 960 3050zM1018 3048C 1012 3030 990 3027 990 3044C 990 3053 997 3060 1006 3060C 1015 3060 1020 3055 1018 3048zM1100 3050C 1100 3045 1096 3040 1090 3040C 1085 3040 1080 3045 1080 3050C 1080 3056 1085 3060 1090 3060C 1096 3060 1100 3056 1100 3050z" stroke="none"  fill="#000000" fill-rule="nonzero" />
		<path  d="M5468 3423C 5474 3421 5486 3421 5493 3423C 5499 3426 5494 3428 5480 3428C 5466 3428 5461 3426 5468 3423z" stroke="none"  fill="#000000" fill-rule="nonzero" />
		<path  d="M5418 3413C 5425 3410 5434 3411 5437 3414C 5441 3417 5435 3420 5424 3419C 5413 3419 5410 3416 5418 3413z" stroke="none"  fill="#000000" fill-rule="nonzero" />
		<path  d="M2338 3293C 2344 3291 2356 3291 2363 3293C 2369 3296 2364 3298 2350 3298C 2336 3298 2331 3296 2338 3293z" stroke="none"  fill="#000000" fill-rule="nonzero" />
		<path  d="M2278 3283C 2284 3281 2296 3281 2303 3283C 2309 3286 2304 3288 2290 3288C 2276 3288 2271 3286 2278 3283z" stroke="none"  fill="#000000" fill-rule="nonzero" />
		<path  d="M2218 3273C 2224 3271 2236 3271 2243 3273C 2249 3276 2244 3278 2230 3278C 2216 3278 2211 3276 2218 3273z" stroke="none"  fill="#000000" fill-rule="nonzero" />
		<path  d="M1825 3213C 1611 3176 1499 3153 1487 3142C 1471 3128 1470 3128 1475 3142C 1479 3153 1474 3159 1455 3162C 1439 3165 1427 3163 1424 3155C 1418 3140 1437 3090 1449 3090C 1472 3090 1490 3104 1490 3120C 1490 3142 1489 3141 1830 3201C 2159 3258 2209 3268 2175 3268C 2159 3268 2001 3243 1825 3213z" stroke="none"  fill="#000000" fill-rule="nonzero" />
		<path  d="M1735 2804C 1521 2764 1308 2728 1262 2725C 1211 2722 1173 2715 1165 2706C 1157 2699 1130 2689 1105 2686C 1074 2681 1055 2672 1045 2656C 1030 2633 1033 2598 1079 2275C 1085 2237 1097 2137 1106 2053C 1130 1837 1104 1849 1410 1916C 1545 1946 1702 1981 1760 1994C 1818 2008 1930 2032 2010 2050C 2260 2104 2257 2102 2245 2193C 2242 2222 2231 2310 2220 2390C 2210 2470 2197 2594 2190 2665C 2177 2817 2166 2866 2144 2874C 2135 2877 2128 2880 2127 2879C 2126 2879 1950 2845 1735 2804zM2088 2764C 2084 2761 2076 2758 2068 2756C 2061 2755 2050 2752 2045 2748C 2039 2744 2016 2739 1995 2736C 1945 2730 1899 2721 1881 2715C 1861 2707 1547 2645 1385 2616C 1206 2584 1140 2577 1140 2587C 1140 2596 1507 2670 1820 2725C 1900 2739 1981 2755 2000 2759C 2041 2769 2096 2772 2088 2764zM2014 2635C 2007 2618 1980 2607 1980 2621C 1980 2627 1976 2628 1970 2625C 1965 2622 1960 2624 1960 2630C 1960 2642 2001 2660 2012 2654C 2016 2651 2017 2643 2014 2635zM1894 2628C 1888 2618 1890 2618 1901 2628C 1924 2649 1940 2642 1938 2611C 1935 2572 1893 2560 1884 2596C 1881 2608 1881 2624 1885 2629C 1894 2644 1903 2643 1894 2628zM1626 2595C 1644 2580 1643 2578 1585 2525C 1552 2495 1519 2472 1513 2475C 1506 2477 1500 2476 1500 2472C 1500 2467 1483 2464 1463 2463C 1442 2463 1417 2459 1407 2455C 1396 2450 1384 2452 1377 2460C 1368 2469 1369 2471 1384 2468C 1394 2467 1405 2471 1408 2479C 1411 2489 1408 2491 1396 2487C 1387 2483 1380 2485 1380 2490C 1380 2496 1385 2500 1390 2500C 1396 2500 1400 2505 1400 2511C 1400 2517 1391 2519 1378 2514C 1359 2508 1357 2509 1367 2522C 1374 2530 1377 2539 1374 2542C 1371 2545 1373 2551 1379 2555C 1385 2558 1390 2557 1390 2551C 1390 2545 1406 2552 1426 2565C 1446 2579 1471 2590 1481 2590C 1491 2590 1502 2595 1505 2600C 1515 2616 1604 2612 1626 2595zM1336 2493C 1345 2460 1330 2436 1299 2433C 1286 2432 1263 2428 1248 2424C 1217 2417 1213 2427 1235 2456C 1256 2483 1253 2492 1228 2484C 1208 2478 1207 2479 1219 2494C 1226 2503 1239 2510 1247 2510C 1269 2510 1274 2481 1255 2460C 1238 2441 1238 2440 1258 2440C 1276 2440 1280 2446 1280 2473C 1280 2511 1286 2520 1311 2520C 1323 2520 1332 2510 1336 2493zM2020 2506C 2020 2503 2016 2498 2010 2495C 2005 2492 2000 2494 2000 2499C 2000 2505 2005 2510 2010 2510C 2016 2510 2020 2508 2020 2506zM1960 2490C 1952 2485 1941 2480 1935 2480C 1930 2480 1932 2485 1940 2490C 1948 2495 1960 2500 1965 2500C 1971 2500 1968 2495 1960 2490zM1884 2481C 1887 2476 1883 2469 1874 2466C 1852 2457 1850 2458 1850 2475C 1850 2491 1875 2496 1884 2481zM2095 2438C 2098 2409 2103 2373 2106 2358C 2111 2334 2108 2330 2073 2321C 2009 2304 1860 2277 1856 2281C 1854 2283 1850 2321 1846 2365L1846 2365L1839 2445L1937 2467C 2089 2499 2087 2500 2095 2438zM1450 2429C 1450 2418 1445 2412 1440 2415C 1434 2419 1433 2427 1436 2433C 1441 2441 1439 2441 1429 2433C 1422 2426 1407 2420 1396 2420C 1379 2421 1381 2424 1405 2435C 1446 2453 1450 2453 1450 2429zM1347 2414C 1344 2411 1335 2410 1328 2413C 1320 2416 1323 2419 1334 2419C 1345 2420 1351 2417 1347 2414zM1646 2328C 1637 2323 1632 2315 1635 2310C 1638 2305 1635 2298 1629 2294C 1621 2289 1620 2291 1625 2300C 1631 2310 1629 2312 1614 2306C 1599 2301 1600 2304 1620 2323C 1634 2337 1649 2345 1654 2342C 1659 2340 1655 2333 1646 2328zM1704 2248C 1710 2244 1722 2243 1731 2246C 1749 2251 1764 2225 1753 2208C 1750 2201 1752 2200 1758 2204C 1765 2208 1770 2219 1771 2228C 1771 2237 1774 2240 1776 2233C 1779 2227 1774 2205 1766 2183C 1753 2152 1753 2149 1765 2164C 1775 2177 1786 2181 1805 2176C 1827 2170 1830 2167 1820 2155C 1813 2147 1804 2140 1799 2140C 1795 2140 1779 2135 1763 2129C 1714 2109 1705 2111 1705 2144C 1705 2167 1700 2175 1685 2177L1685 2177L1665 2180L1685 2171C 1703 2162 1704 2161 1686 2161C 1674 2160 1670 2155 1674 2145C 1677 2137 1675 2130 1670 2130C 1665 2130 1659 2138 1657 2148C 1653 2161 1652 2159 1651 2143C 1650 2126 1656 2120 1670 2120C 1716 2120 1682 2095 1620 2084C 1542 2069 1520 2068 1520 2079C 1520 2085 1525 2090 1531 2090C 1538 2090 1540 2101 1537 2120C 1532 2142 1534 2150 1545 2150C 1553 2150 1564 2158 1569 2169C 1575 2179 1591 2191 1606 2194C 1623 2199 1630 2206 1626 2215C 1623 2224 1626 2227 1636 2223C 1644 2220 1650 2224 1650 2231C 1650 2242 1653 2242 1661 2230C 1669 2218 1670 2221 1666 2242C 1660 2268 1680 2289 1689 2266C 1691 2260 1698 2252 1704 2248zM1730 2260C 1730 2255 1726 2250 1720 2250C 1715 2250 1710 2255 1710 2260C 1710 2266 1715 2270 1720 2270C 1726 2270 1730 2266 1730 2260zM2020 2245C 2030 2233 2030 2227 2020 2215C 2004 2196 1981 2196 1974 2215C 1968 2230 1985 2260 2000 2260C 2004 2260 2013 2253 2020 2245zM2090 2245C 2090 2236 2081 2230 2065 2230C 2049 2230 2040 2236 2040 2245C 2040 2254 2049 2260 2065 2260C 2081 2260 2090 2254 2090 2245zM1950 2216C 1950 2209 1941 2200 1930 2197C 1915 2193 1910 2197 1910 2211C 1910 2223 1917 2230 1930 2230C 1941 2230 1950 2224 1950 2216zM1530 2160C 1530 2155 1525 2150 1519 2150C 1511 2150 1511 2145 1520 2135C 1536 2115 1526 2088 1505 2097C 1495 2100 1490 2110 1493 2122C 1497 2137 1496 2139 1484 2130C 1474 2121 1473 2113 1481 2099C 1486 2089 1495 2080 1500 2080C 1506 2080 1510 2075 1510 2069C 1510 2063 1504 2060 1496 2063C 1488 2066 1457 2063 1427 2056C 1395 2049 1366 2047 1358 2051C 1348 2058 1349 2060 1363 2060C 1372 2060 1380 2067 1380 2075C 1380 2083 1385 2090 1390 2090C 1396 2090 1400 2085 1400 2079C 1400 2073 1412 2070 1428 2072C 1451 2075 1455 2079 1453 2104C 1452 2120 1453 2130 1456 2127C 1459 2124 1472 2133 1485 2146C 1510 2171 1530 2177 1530 2160zM1440 2120C 1446 2109 1448 2095 1445 2090C 1435 2074 1410 2078 1410 2096C 1410 2105 1405 2109 1398 2105C 1391 2101 1393 2105 1402 2113C 1412 2121 1417 2130 1413 2133C 1410 2137 1412 2140 1418 2140C 1424 2140 1434 2131 1440 2120zM1376 2108C 1380 2102 1373 2089 1360 2078C 1337 2059 1335 2059 1323 2076C 1306 2099 1306 2111 1324 2104C 1332 2101 1341 2103 1345 2109C 1353 2123 1367 2123 1376 2108zM1867 2114C 1864 2111 1855 2110 1848 2113C 1840 2116 1843 2119 1854 2119C 1865 2120 1871 2117 1867 2114zM1817 2104C 1814 2101 1805 2100 1798 2103C 1790 2106 1793 2109 1804 2109C 1815 2110 1821 2107 1817 2104zM1710 2080C 1535 2040 1429 2018 1425 2022C 1422 2025 1489 2041 1573 2059C 1656 2077 1730 2093 1735 2095C 1741 2097 1754 2098 1765 2098C 1776 2098 1751 2090 1710 2080zM1280 2071C 1280 2066 1288 2064 1299 2067C 1310 2070 1320 2065 1323 2056C 1330 2039 1325 2037 1295 2049C 1283 2054 1262 2051 1243 2043C 1223 2035 1210 2034 1210 2040C 1210 2045 1219 2050 1230 2050C 1241 2050 1253 2057 1256 2065C 1263 2081 1280 2086 1280 2071zM1407 2014C 1404 2011 1395 2010 1388 2013C 1380 2016 1383 2019 1394 2019C 1405 2020 1411 2017 1407 2014zM1357 2004C 1354 2001 1345 2000 1338 2003C 1330 2006 1333 2009 1344 2009C 1355 2010 1361 2007 1357 2004z" stroke="none"  fill="#000000" fill-rule="nonzero" />
		<path  d="M1417 2553C 1413 2550 1410 2540 1410 2531C 1410 2518 1412 2518 1423 2532C 1429 2541 1442 2550 1450 2553C 1460 2557 1458 2559 1444 2559C 1433 2560 1420 2557 1417 2553z" stroke="none"  fill="#000000" fill-rule="nonzero" />
		<path  d="M1448 2523C 1455 2520 1464 2521 1467 2524C 1471 2527 1465 2530 1454 2529C 1443 2529 1440 2526 1448 2523z" stroke="none"  fill="#000000" fill-rule="nonzero" />
		<path  d="M1424 2498C 1427 2481 1460 2475 1460 2490C 1460 2497 1454 2500 1446 2497C 1438 2494 1429 2495 1426 2501C 1424 2506 1423 2505 1424 2498z" stroke="none"  fill="#000000" fill-rule="nonzero" />
		<path  d="M1294 2496C 1287 2476 1296 2450 1310 2450C 1323 2450 1323 2497 1310 2505C 1304 2508 1297 2504 1294 2496z" stroke="none"  fill="#000000" fill-rule="nonzero" />
		<path  d="M1596 2162C 1592 2158 1583 2155 1577 2155C 1562 2155 1557 2129 1569 2111C 1583 2090 1620 2107 1620 2135C 1620 2160 1608 2174 1596 2162zM1605 2130C 1602 2125 1594 2120 1589 2120C 1583 2120 1582 2125 1585 2130C 1588 2136 1596 2140 1601 2140C 1607 2140 1608 2136 1605 2130z" stroke="none"  fill="#000000" fill-rule="nonzero" />
		<path  d="M5178 2583C 5185 2580 5194 2581 5197 2584C 5201 2587 5195 2590 5184 2589C 5173 2589 5170 2586 5178 2583z" stroke="none"  fill="#000000" fill-rule="nonzero" />
		<path  d="M5041 2559C 4995 2549 4955 2538 4952 2535C 4938 2522 4963 2525 5060 2551C 5180 2582 5167 2588 5041 2559z" stroke="none"  fill="#000000" fill-rule="nonzero" />
		<path  d="M2820 2555C 2828 2544 2854 2513 2877 2486C 2901 2460 2920 2432 2920 2425C 2920 2398 2868 2351 2817 2332C 2788 2321 2702 2300 2625 2285C 2548 2270 2481 2253 2476 2249C 2460 2235 2480 2238 2649 2274C 2814 2310 2869 2331 2909 2374C 2944 2412 2932 2450 2863 2519C 2832 2550 2812 2566 2820 2555z" stroke="none"  fill="#000000" fill-rule="nonzero" />
		<path  d="M4867 2553C 4854 2541 4860 2502 4878 2480C 4893 2461 4900 2459 4916 2468C 4932 2477 4922 2486 4905 2478C 4896 2473 4869 2533 4874 2547C 4880 2561 4877 2564 4867 2553z" stroke="none"  fill="#000000" fill-rule="nonzero" />
		<path  d="M2387 2253C 2379 2236 2386 2195 2397 2197C 2404 2199 2407 2193 2403 2184C 2399 2172 2403 2169 2425 2172C 2443 2174 2454 2182 2456 2193C 2458 2207 2455 2209 2445 2200C 2428 2186 2392 2218 2396 2243C 2398 2261 2394 2265 2387 2253z" stroke="none"  fill="#000000" fill-rule="nonzero" />
	</g>
</g>
</svg>
