<?xml version="1.0" standalone="no"?>
<!DOCTYPE svg PUBLIC "-//W3C//DTD SVG 20010904//EN"
 "http://www.w3.org/TR/2001/REC-SVG-20010904/DTD/svg10.dtd">
<svg version="1.0" xmlns="http://www.w3.org/2000/svg"
 width="736.000000pt" height="736.000000pt" viewBox="0 0 736.000000 736.000000"
 preserveAspectRatio="xMidYMid meet">

<g transform="translate(0.000000,736.000000) scale(0.100000,-0.100000)"
fill="#000000" stroke="none">
<path d="M5551 5901 c-8 -5 -9 -11 -3 -15 5 -3 12 1 16 9 6 17 6 18 -13 6z"/>
<path d="M5310 5875 c-7 -9 -8 -15 -2 -15 5 0 12 7 16 15 3 8 4 15 2 15 -2 0
-9 -7 -16 -15z"/>
<path d="M5536 5861 c-9 -14 5 -42 16 -35 6 4 5 10 -3 15 -12 8 -11 11 1 19 9
6 10 10 3 10 -6 0 -14 -4 -17 -9z"/>
<path d="M5543 5756 c21 -14 46 -26 55 -26 14 1 14 2 -3 12 -11 6 -22 15 -25
19 -3 4 -19 11 -35 15 -29 6 -29 6 8 -20z"/>
<path d="M5362 5739 c-10 -16 -21 -20 -47 -17 -18 2 -31 0 -29 -4 3 -4 -1 -8
-8 -8 -8 0 -6 -5 5 -11 13 -8 22 -7 34 3 15 12 15 11 3 -11 -11 -21 -10 -26 6
-38 10 -7 24 -13 31 -13 7 0 13 -4 13 -9 0 -5 9 -11 20 -14 11 -3 20 -10 20
-17 0 -6 -4 -8 -10 -5 -5 3 -10 2 -10 -4 0 -17 73 -68 78 -53 6 20 29 14 36
-10 11 -42 6 -66 -17 -85 -31 -24 -39 -40 -44 -79 -5 -44 81 -175 127 -194 47
-19 58 -45 64 -150 3 -52 5 -96 5 -97 2 -7 75 -2 121 8 44 9 49 13 38 26 -11
14 -10 15 9 9 17 -5 34 1 67 26 24 18 46 40 49 49 4 16 59 49 82 49 17 0 62
51 79 90 8 19 31 51 50 69 36 35 49 81 23 81 -7 0 -18 5 -25 12 -6 6 -26 13
-43 15 -18 2 -37 8 -44 13 -6 5 -20 11 -31 13 -31 4 -42 15 -49 47 -8 37 -39
60 -82 60 -22 0 -36 6 -43 20 -6 11 -15 20 -21 20 -5 0 -19 8 -29 18 -13 12
-34 18 -62 17 -24 -1 -49 4 -55 11 -7 7 -22 10 -34 7 -14 -4 -20 -2 -16 4 10
16 -57 -10 -77 -30 -20 -19 -36 -22 -36 -6 0 7 -12 9 -34 5 -45 -9 -63 18 -47
66 17 47 14 50 -34 46 -45 -3 -59 4 -29 16 9 4 13 13 10 23 -3 10 -1 25 5 33
9 13 10 12 5 -2 -7 -24 6 -23 22 2 11 18 10 20 -11 20 -12 0 -28 -9 -35 -21z
m268 -179 c0 -5 -4 -10 -10 -10 -5 0 -10 5 -10 10 0 6 5 10 10 10 6 0 10 -4
10 -10z"/>
<path d="M5235 5710 c10 -11 20 -20 23 -20 3 0 -3 9 -13 20 -10 11 -20 20 -23
20 -3 0 3 -9 13 -20z"/>
<path d="M5642 5709 c2 -6 7 -10 11 -10 4 1 17 1 30 1 18 0 19 2 7 10 -20 13
-53 13 -48 -1z"/>
<path d="M2865 5390 c-104 -9 -226 -20 -270 -23 -44 -4 -181 -16 -305 -27
-124 -11 -254 -22 -290 -25 -36 -3 -121 -10 -190 -15 -69 -6 -181 -15 -250
-20 -69 -6 -152 -12 -186 -15 -33 -3 -74 -10 -91 -15 -26 -9 -29 -15 -25 -38
2 -15 6 -45 8 -67 12 -140 25 -301 29 -365 3 -41 9 -118 14 -170 8 -85 16
-192 26 -360 5 -90 15 -130 34 -130 16 0 564 70 696 89 39 6 89 11 112 11 40
0 41 -1 37 -27 -3 -15 -6 -28 -7 -29 -1 0 -83 -11 -181 -23 -99 -13 -190 -28
-203 -34 -37 -16 -30 -56 17 -102 64 -63 75 -62 771 40 91 13 173 27 182 31 9
3 17 16 17 28 0 28 -97 103 -145 112 -30 5 -146 -5 -242 -22 -31 -6 -33 -5
-33 24 0 27 4 32 33 37 28 5 421 56 662 86 50 7 93 14 97 18 5 4 -16 1031 -21
1049 -2 5 -118 -2 -296 -18z m-473 -107 c-6 -2 -10 -8 -7 -13 10 -17 -25 -27
-135 -38 -200 -21 -493 -43 -498 -37 -3 3 1 5 10 5 8 0 15 7 15 15 0 8 -7 15
-15 15 -83 0 277 43 448 53 92 6 196 6 182 0z m188 -127 l0 -72 -63 -13 c-126
-25 -290 -13 -385 29 -44 20 -102 65 -102 80 0 6 285 31 335 30 23 0 175 18
190 24 20 7 25 -7 25 -78z m431 65 c-33 -9 -38 -29 -9 -33 27 -4 36 -39 15
-57 -16 -13 -47 -5 -47 12 0 8 3 8 11 0 16 -16 39 -5 39 19 0 17 -5 19 -25 14
-23 -6 -25 -3 -25 24 0 27 3 30 33 29 29 -1 29 -2 8 -8z m-159 -41 c10 -51 2
-70 -32 -70 -16 0 -32 5 -36 11 -5 8 -10 6 -16 -5 -21 -38 -68 -11 -68 39 0
61 50 76 75 23 12 -25 14 -27 11 -9 -12 59 53 70 66 11z m103 -10 c0 -42 -2
-45 -27 -48 -16 -2 -28 1 -28 6 0 5 10 8 23 8 13 -1 22 5 22 14 0 8 -6 14 -12
13 -18 -4 -16 8 5 23 16 12 16 13 -2 20 -11 4 -21 2 -27 -7 -5 -8 -9 -9 -9 -3
0 17 13 25 35 22 17 -3 20 -10 20 -48z m-975 -7 c-19 -8 -41 -22 -50 -32 -15
-16 -133 -110 -157 -125 -10 -5 -13 5 -13 41 0 31 3 43 9 34 12 -18 30 -7 81
52 42 47 42 47 103 46 l62 -1 -35 -15z m-401 -47 c-9 -9 -119 -14 -113 -5 3 5
30 9 61 9 31 0 54 -2 52 -4z m-159 -15 c0 -5 -9 -7 -20 -4 -11 3 -20 7 -20 9
0 2 9 4 20 4 11 0 20 -4 20 -9z m220 -31 c0 -5 -19 -10 -42 -11 -24 0 -51 -2
-60 -4 -10 -2 -18 1 -18 5 0 5 21 11 48 13 26 2 53 4 60 5 6 1 12 -2 12 -8z
m383 -20 c16 -13 28 -16 32 -10 9 14 38 12 71 -5 16 -8 30 -11 32 -5 2 5 11 6
20 2 23 -8 52 -44 48 -58 -3 -6 8 -10 25 -9 17 1 32 -2 35 -7 3 -4 10 -6 15
-3 5 4 9 1 9 -5 0 -6 -6 -10 -12 -9 -31 4 -49 -2 -68 -23 l-20 -22 0 27 c0 19
-4 25 -15 21 -8 -4 -16 -14 -16 -23 -1 -14 -2 -14 -6 1 -2 9 -10 15 -16 13 -7
-2 -25 -6 -41 -10 -24 -5 -27 -3 -22 11 5 13 1 15 -21 11 -31 -6 -53 1 -53 15
0 6 7 5 15 -2 21 -17 31 -5 12 14 -8 8 -17 13 -20 10 -10 -10 -64 25 -70 45
-5 20 9 41 29 41 6 0 23 -9 37 -20z m-563 0 c-34 -11 -50 -12 -50 -2 0 4 17 8
38 9 32 1 34 0 12 -7z m1450 -65 c0 -8 -8 -11 -20 -8 -11 3 -17 9 -14 14 3 5
-1 9 -8 9 -10 0 -9 3 2 10 16 10 40 -5 40 -25z m-1285 -16 c-26 -10 -95 -11
-95 -1 0 4 26 7 57 8 36 0 50 -2 38 -7z m-152 -16 c-13 -2 -33 -2 -45 0 -13 2
-3 4 22 4 25 0 35 -2 23 -4z m1500 -30 c-7 -2 -19 -2 -25 0 -7 3 -2 5 12 5 14
0 19 -2 13 -5z m-883 -38 c0 -14 -22 -25 -51 -25 -26 0 -24 25 4 37 26 12 47
6 47 -12z m899 11 c10 -6 12 -5 7 2 -4 7 -2 12 3 12 31 0 -10 -59 -51 -73 -26
-9 -22 12 5 23 l22 9 -22 0 c-13 1 -24 7 -24 14 -1 6 -5 -4 -9 -23 l-7 -35 -2
37 c0 21 4 38 12 41 16 7 49 3 66 -7z m-123 -12 c-3 -9 -2 -12 5 -9 7 5 9 -8
7 -37 l-3 -43 -50 0 -50 0 0 45 c0 44 1 45 35 51 58 10 63 10 56 -7z m-853
-46 c10 -5 36 -12 59 -16 37 -7 70 -33 57 -46 -6 -7 -281 -37 -286 -32 -2 2
17 9 41 15 38 9 66 32 66 54 0 4 -28 -2 -147 -28 -17 -4 -23 -1 -23 11 0 24
30 43 70 44 19 1 44 5 55 10 22 9 79 3 108 -12z m993 -24 c-9 -8 -11 -9 -6 -2
6 7 11 21 11 33 1 18 2 18 6 1 3 -10 -2 -25 -11 -32z m-65 -12 c-7 -2 -18 1
-23 6 -8 8 -4 9 13 5 13 -4 18 -8 10 -11z m-1401 -6 c0 -3 -4 -8 -10 -11 -5
-3 -10 -1 -10 4 0 6 5 11 10 11 6 0 10 -2 10 -4z m51 -5 c-8 -5 -20 -7 -28 -4
-21 8 -15 13 15 13 20 0 23 -3 13 -9z m-111 -5 c0 -2 -11 -6 -25 -8 -14 -3
-25 -1 -25 3 0 5 11 9 25 9 14 0 25 -2 25 -4z m1503 -13 c-7 -2 -21 -2 -30 0
-10 3 -4 5 12 5 17 0 24 -2 18 -5z m-146 -19 c-3 -3 -12 -4 -19 -1 -8 3 -5 6
6 6 11 1 17 -2 13 -5z m118 -4 c-6 -9 -1 -11 38 -14 6 -1 11 6 9 14 -2 8 0 11
4 7 11 -11 14 -38 3 -31 -5 3 -9 -4 -9 -14 0 -11 -7 -25 -16 -33 -24 -19 -50
1 -46 37 2 22 0 26 -8 14 -8 -13 -10 -13 -10 2 0 9 8 19 18 21 9 3 18 5 20 6
2 0 0 -3 -3 -9z m-355 -15 c0 -8 -7 -15 -15 -15 -16 0 -20 12 -8 23 11 12 23
8 23 -8z m-449 -17 c-4 -12 -14 -24 -21 -26 -7 -3 -10 0 -6 6 3 6 -7 13 -24
17 -40 9 -31 20 19 23 38 3 40 1 32 -20z m737 4 c5 -15 -24 -16 -33 -2 -3 6
-12 10 -18 10 -7 0 -1 -9 12 -19 30 -23 22 -51 -13 -51 -31 0 -42 16 -25 36
10 12 10 17 -1 27 -10 10 -11 9 -5 -2 5 -9 4 -12 -3 -7 -8 5 -12 -6 -12 -35 0
-40 1 -41 30 -37 19 3 27 1 21 -5 -5 -5 -19 -7 -32 -5 -20 2 -25 10 -27 41 -4
52 11 69 61 64 23 -2 43 -9 45 -15z m-595 -9 c-7 -2 -19 -2 -25 0 -7 3 -2 5
12 5 14 0 19 -2 13 -5z m590 -64 c-6 -6 -7 3 -4 23 4 28 6 29 9 9 2 -13 0 -27
-5 -32z m58 3 c-7 -2 -18 1 -23 6 -8 8 -4 9 13 5 13 -4 18 -8 10 -11z m79 14
c0 -2 -7 -7 -16 -10 -8 -3 -12 -2 -9 4 6 10 25 14 25 6z m-396 -52 c3 -26 6
-90 6 -143 l0 -97 -182 -22 c-488 -62 -605 -79 -596 -87 3 -3 49 2 104 10 110
17 290 41 374 49 49 5 53 4 37 -8 -18 -14 -17 -15 5 -18 27 -4 -74 -19 -354
-53 -114 -13 -218 -27 -233 -31 l-26 -7 24 27 c13 14 32 26 42 26 10 0 16 2
13 5 -3 3 -65 -1 -138 -10 -162 -19 -150 -19 -150 6 0 16 -4 19 -22 14 -19 -5
-17 -2 7 14 36 25 30 27 -14 5 -64 -32 -126 5 -130 77 -1 24 -3 57 -5 72 -3
22 2 31 23 41 37 20 86 23 105 7 14 -12 16 -10 16 18 0 18 5 31 13 31 6 0 89
9 184 20 94 11 295 34 445 51 150 17 302 34 338 38 113 14 107 17 114 -35z
m-706 8 c2 -7 -2 -12 -10 -13 -7 0 -34 -3 -60 -5 -46 -5 -74 10 -48 26 19 12
113 5 118 -8z m-141 -16 c-2 -6 -13 -12 -25 -12 -12 -1 -23 -2 -24 -4 -2 -1
-18 -3 -35 -5 -26 -3 -33 0 -33 14 0 14 10 17 60 18 42 1 60 -3 57 -11z m1190
8 c-3 -3 -12 -4 -19 -1 -8 3 -5 6 6 6 11 1 17 -2 13 -5z m-1357 -18 c0 -8 -5
-18 -12 -22 -7 -5 -9 -2 -5 9 3 9 1 18 -6 21 -7 2 -4 5 6 5 9 1 17 -5 17 -13z
m30 -1 c0 -8 -4 -15 -8 -15 -5 0 -9 7 -9 15 0 8 4 15 9 15 4 0 8 -7 8 -15z
m1377 -29 c-1 -19 -5 -32 -9 -29 -5 2 -8 0 -8 -4 0 -5 -12 -9 -27 -8 -19 0
-32 8 -41 24 -20 38 -8 51 43 51 l45 0 -3 -34z m-130 4 c3 -10 2 -11 -4 -4 -4
7 -17 14 -28 17 -16 5 -15 5 4 4 14 -1 26 -9 28 -17z m-34 -46 c-4 -10 -9 -12
-15 -6 -12 12 -1 35 12 27 5 -3 6 -13 3 -21z m162 -14 c-3 -5 -18 -9 -33 -9
l-27 1 30 8 c17 4 31 8 33 9 2 0 0 -3 -3 -9z m-89 -87 c-7 -7 -56 -13 -56 -7
0 8 45 22 53 17 5 -3 6 -7 3 -10z m-471 -99 c-25 -10 -27 -12 -10 -17 11 -3 5
-5 -14 -4 -19 1 -36 7 -38 14 -4 12 16 19 62 19 l30 1 -30 -13z m-1006 -50 c2
-2 -8 -4 -22 -4 -18 0 -27 5 -27 15 0 13 4 14 23 4 12 -6 24 -13 26 -15z"/>
<path d="M2210 5180 c-22 -14 4 -46 34 -41 5 1 16 -5 25 -13 14 -13 24 -14 66
-3 33 8 51 18 53 30 4 22 -24 23 -36 0 -9 -14 -10 -14 -16 5 -4 13 -16 22 -27
22 -17 0 -18 -3 -9 -21 7 -11 9 -23 7 -26 -8 -7 -57 28 -57 41 0 14 -23 17
-40 6z"/>
<path d="M2802 5188 c6 -18 28 -21 28 -4 0 9 -7 16 -16 16 -9 0 -14 -5 -12
-12z"/>
<path d="M2720 5155 c0 -29 3 -36 18 -33 11 2 17 13 17 33 0 20 -6 31 -17 33
-15 3 -18 -4 -18 -33z"/>
<path d="M2804 5149 c-10 -17 13 -36 27 -22 12 12 4 33 -11 33 -5 0 -12 -5
-16 -11z"/>
<path d="M2786 4872 c-3 -5 1 -9 9 -9 8 0 15 4 15 9 0 4 -4 8 -9 8 -6 0 -12
-4 -15 -8z"/>
<path d="M2847 4859 c7 -7 15 -10 18 -7 3 3 -2 9 -12 12 -14 6 -15 5 -6 -5z"/>
<path d="M2798 4833 c7 -3 16 -2 19 1 4 3 -2 6 -13 5 -11 0 -14 -3 -6 -6z"/>
<path d="M2850 4826 c0 -9 5 -16 10 -16 6 0 10 4 10 9 0 6 -4 13 -10 16 -5 3
-10 -1 -10 -9z"/>
<path d="M2485 4614 c-55 -7 -117 -14 -138 -15 -21 -2 -41 -8 -45 -13 -9 -15
-2 -189 8 -200 10 -10 239 11 279 26 23 8 23 10 16 106 -4 53 -10 100 -13 103
-4 3 -52 0 -107 -7z m55 -13 c0 -5 -9 -11 -20 -14 -11 -3 -20 -1 -20 3 0 5 8
11 18 13 9 3 18 5 20 6 1 0 2 -3 2 -8z m50 -1 c0 -5 -4 -10 -10 -10 -5 0 -10
5 -10 10 0 6 5 10 10 10 6 0 10 -4 10 -10z m-120 -10 c0 -5 -4 -10 -10 -10 -5
0 -10 5 -10 10 0 6 5 10 10 10 6 0 10 -4 10 -10z m-50 -8 c0 -4 -9 -8 -20 -9
-11 -1 -20 2 -20 8 0 5 9 9 20 9 11 0 20 -4 20 -8z m-70 -12 c0 -5 -4 -10 -10
-10 -5 0 -10 5 -10 10 0 6 5 10 10 10 6 0 10 -4 10 -10z m155 -80 c16 -16 25
-30 19 -30 -5 0 -20 -10 -34 -21 -16 -14 -19 -19 -7 -15 9 3 17 2 17 -3 0 -5
-9 -11 -20 -14 -34 -9 -22 33 13 46 9 3 17 11 17 16 0 17 -19 22 -41 11 -26
-15 -34 -7 -19 19 14 28 21 27 55 -9z m-50 -52 c3 -3 -1 -8 -9 -11 -8 -3 -20
1 -27 9 -10 12 -8 14 9 11 12 -2 24 -6 27 -9z m140 -8 c3 -5 1 -10 -4 -10 -6
0 -11 5 -11 10 0 6 2 10 4 10 3 0 8 -4 11 -10z m-45 -10 c0 -5 -4 -10 -10 -10
-5 0 -10 5 -10 10 0 6 5 10 10 10 6 0 10 -4 10 -10z m-120 -9 c0 -5 -9 -11
-20 -14 -12 -3 -20 0 -20 7 0 6 9 12 20 13 11 1 20 -2 20 -6z m-70 -11 c0 -5
-4 -10 -10 -10 -5 0 -10 5 -10 10 0 6 5 10 10 10 6 0 10 -4 10 -10z"/>
<path d="M2109 4570 c-75 -9 -141 -20 -148 -25 -10 -5 -11 -31 -6 -104 4 -53
11 -98 15 -101 14 -9 110 2 110 12 0 6 -7 8 -15 4 -9 -3 -15 0 -15 10 0 8 4
12 10 9 6 -3 7 1 4 9 -4 11 0 16 15 16 13 0 21 7 22 18 0 14 2 14 8 -3 5 -11
6 -26 4 -33 -4 -8 0 -10 11 -6 9 3 16 1 16 -5 0 -15 -37 -14 -43 2 -3 7 -6 4
-6 -7 -1 -17 5 -17 72 -11 116 12 112 7 108 116 -1 56 -7 98 -14 105 -9 8 -49
6 -148 -6z m137 -37 c-4 -10 -12 -13 -24 -8 -9 4 -21 8 -27 9 -21 4 -35 18
-28 29 4 7 9 4 14 -9 7 -19 8 -19 8 0 1 20 1 20 17 0 13 -16 15 -16 10 -1 -6
19 10 24 17 5 3 -8 6 -4 7 7 2 18 3 18 7 2 3 -10 2 -25 -1 -34z m-116 16 c0
-5 -4 -9 -10 -9 -5 0 -7 -7 -3 -15 3 -9 2 -15 -3 -14 -20 3 -34 -2 -34 -12 0
-8 15 -9 45 -4 45 6 46 6 41 -20 -3 -15 -1 -36 3 -48 5 -14 3 -32 -6 -47 -7
-14 -13 -19 -13 -12 0 7 -7 20 -15 29 -8 8 -12 19 -9 25 4 6 10 5 15 -3 7 -11
9 -10 9 3 0 21 -16 32 -24 16 -5 -11 -7 -11 -12 0 -3 6 -10 10 -15 7 -5 -3
-18 -1 -29 5 -13 7 -20 7 -20 0 0 -5 7 -10 15 -10 20 0 19 -16 -1 -24 -11 -4
-22 1 -31 14 -12 17 -18 19 -29 9 -21 -18 -33 -1 -37 54 -4 44 5 63 16 35 4
-9 6 -7 6 3 1 18 32 22 43 5 5 -8 8 -7 8 2 0 6 9 12 19 12 11 0 22 -6 24 -12
4 -9 6 -8 6 2 1 17 41 25 41 9z m130 -54 c0 -18 -4 -23 -15 -19 -11 5 -15 -2
-16 -27 l-1 -34 -12 28 c-11 25 -14 26 -26 12 -7 -8 -15 -13 -18 -10 -3 3 3
14 13 26 16 17 17 22 5 29 -10 6 -2 10 26 13 21 2 40 4 42 5 1 1 2 -9 2 -23z
m-240 -75 c-7 -4 -10 -13 -6 -19 5 -7 1 -9 -9 -5 -11 5 -16 2 -15 -7 1 -8 2
-23 0 -34 l-1 -20 -9 20 c-15 35 -12 68 5 61 9 -3 18 1 21 9 4 8 11 12 16 9 6
-4 6 -9 -2 -14z m220 -41 c0 -6 -4 -7 -10 -4 -5 3 -10 11 -10 16 0 6 5 7 10 4
6 -3 10 -11 10 -16z m-50 1 c0 -5 -4 -10 -10 -10 -5 0 -10 5 -10 10 0 6 5 10
10 10 6 0 10 -4 10 -10z m-150 -18 c0 -4 -9 -8 -20 -9 -11 -1 -20 2 -20 8 0 5
9 9 20 9 11 0 20 -4 20 -8z"/>
<path d="M2026 4481 c-4 -5 -2 -12 3 -15 5 -4 12 -2 15 3 4 5 2 12 -3 15 -5 4
-12 2 -15 -3z"/>
<path d="M1760 4529 c-80 -10 -149 -18 -154 -18 -10 -1 2 -202 13 -214 4 -4
53 -2 109 4 l102 12 0 37 c0 29 -4 39 -20 43 -11 3 -20 1 -20 -3 0 -4 -9 -6
-20 -3 -11 3 -20 9 -20 14 0 5 -9 9 -21 9 -12 0 -19 -5 -16 -12 2 -7 0 -21 -4
-30 -6 -10 -5 -19 1 -23 13 -8 13 -35 0 -35 -5 0 -10 8 -11 18 0 14 -2 14 -9
-3 -5 -11 -9 -14 -9 -7 -1 6 -5 12 -11 12 -5 0 -7 -7 -4 -15 4 -8 1 -15 -4
-15 -6 0 -13 8 -15 18 -4 16 -5 16 -6 0 0 -10 -5 -18 -10 -18 -6 0 -10 8 -9
18 0 9 -2 54 -6 100 -3 47 -2 82 3 82 5 0 12 -6 14 -12 4 -9 6 -8 6 2 1 18 41
25 41 7 0 -8 3 -9 8 -1 14 20 41 24 45 6 4 -16 5 -15 6 1 1 19 41 24 41 5 0
-9 3 -9 8 -2 14 20 41 24 45 6 4 -16 5 -15 6 1 0 9 5 17 10 17 5 0 12 -8 14
-17 4 -15 5 -16 6 -2 1 16 41 35 41 21 0 -4 3 -40 6 -79 4 -46 3 -73 -4 -73
-5 0 -13 -7 -16 -16 -4 -12 -2 -15 9 -10 8 3 15 0 15 -7 0 -7 -9 -13 -20 -14
-11 -1 -20 4 -20 13 0 8 -6 14 -12 14 -9 0 -8 3 2 10 8 5 11 12 7 17 -5 4 -12
1 -17 -7 -6 -9 -5 -19 0 -24 15 -15 12 -24 -7 -29 -10 -3 2 -5 27 -4 l45 2 0
102 c0 56 -4 106 -10 111 -6 5 -70 1 -155 -9z m60 -195 c0 -8 -9 -14 -20 -14
-19 0 -28 28 -13 43 9 9 33 -12 33 -29z m-50 -5 c0 -14 -20 -11 -21 4 0 6 -4
3 -9 -8 -6 -15 -9 -16 -9 -4 -1 9 2 18 5 22 8 8 34 -3 34 -14z"/>
<path d="M1880 4499 c0 -11 4 -18 10 -14 5 3 7 12 3 20 -7 21 -13 19 -13 -6z"/>
<path d="M1690 4470 l-35 -7 37 -2 c20 0 40 4 43 9 7 11 7 11 -45 0z"/>
<path d="M1790 4450 c0 -17 6 -20 35 -17 21 1 35 7 35 15 0 9 -7 11 -20 7 -11
-4 -20 -2 -20 4 0 6 -7 11 -15 11 -8 0 -15 -9 -15 -20z"/>
<path d="M1547 4395 c7 -49 13 -58 13 -19 0 16 -5 36 -10 44 -6 10 -7 2 -3
-25z"/>
<path d="M1918 4253 c7 -3 16 -2 19 1 4 3 -2 6 -13 5 -11 0 -14 -3 -6 -6z"/>
<path d="M2936 4581 c-4 -5 3 -7 13 -4 10 3 28 0 40 -6 16 -9 21 -9 21 1 0 15
-66 23 -74 9z"/>
<path d="M4820 4808 c0 -134 -23 -484 -32 -489 -5 -4 -51 -12 -102 -18 -50 -7
-137 -19 -194 -27 -57 -9 -106 -14 -108 -11 -3 2 -6 124 -7 271 -2 328 -19
365 -29 66 -4 -113 -8 -236 -10 -275 l-3 -70 -60 -10 -60 -10 -3 -57 c-3 -49
0 -58 20 -72 13 -9 23 -20 23 -24 1 -12 29 -52 37 -52 4 0 19 -11 34 -25 14
-13 30 -23 34 -20 4 3 13 -2 20 -10 7 -8 16 -12 21 -9 5 3 9 1 9 -4 0 -17 93
-55 152 -61 62 -8 85 -5 338 35 85 13 187 29 225 35 39 6 88 15 110 20 22 6
49 11 60 13 28 4 52 54 44 91 -7 30 -7 30 -8 3 0 -15 -6 -30 -12 -34 -9 -5
-306 -55 -593 -99 -107 -16 -185 -19 -201 -7 -6 4 -10 21 -10 37 0 17 -6 33
-15 37 -12 5 -12 7 3 7 9 1 17 5 17 10 0 4 21 6 48 4 41 -4 179 14 622 83 52
8 105 17 118 19 16 4 22 1 23 -12 1 -12 4 -10 9 7 4 14 8 31 9 38 2 19 -208
114 -239 108 -14 -3 -52 -8 -85 -11 -32 -4 -62 -8 -66 -11 -3 -2 -42 -8 -85
-13 -44 -5 -122 -17 -174 -26 -52 -9 -158 -24 -235 -34 -79 -11 -141 -23 -143
-30 -5 -14 -22 -4 -22 14 0 7 15 15 38 18 41 5 421 61 522 76 36 6 105 15 154
22 l90 12 -39 19 c-34 18 -45 19 -112 9 -127 -19 -113 -50 -113 254 0 170 -4
265 -10 265 -5 0 -10 -23 -10 -52z m-123 -525 c-9 -3 -14 -9 -11 -15 4 -6 -1
-8 -12 -4 -11 3 -37 1 -59 -4 -22 -5 -41 -7 -43 -5 -6 6 83 32 113 32 17 0 22
-2 12 -4z m-34 -101 c-19 -45 -19 -46 -33 -37 -9 6 -9 9 1 15 26 16 18 36 -12
32 -19 -3 -29 0 -29 8 0 8 9 10 25 6 14 -4 25 -3 25 2 0 4 9 8 19 9 18 2 19 0
4 -35z m-409 19 c4 -5 3 -11 -1 -14 -5 -2 -2 -2 6 0 8 2 23 -6 33 -17 11 -11
24 -18 30 -14 6 4 13 3 17 -2 3 -5 18 -15 34 -21 33 -15 36 -43 4 -43 -30 0
-129 49 -122 61 4 5 -1 6 -9 3 -12 -5 -16 1 -16 25 0 30 13 41 24 22z m264
-18 c-10 -2 -28 -2 -40 0 -13 2 -5 4 17 4 22 1 32 -1 23 -4z m115 -10 c-7 -2
-21 -2 -30 0 -10 3 -4 5 12 5 17 0 24 -2 18 -5z m-333 -79 c0 -2 -9 0 -20 6
-11 6 -20 13 -20 16 0 2 9 0 20 -6 11 -6 20 -13 20 -16z m283 -21 c-7 -2 -19
-2 -25 0 -7 3 -2 5 12 5 14 0 19 -2 13 -5z m54 1 c-3 -3 -12 -4 -19 -1 -8 3
-5 6 6 6 11 1 17 -2 13 -5z m-137 -14 c0 -5 -10 -10 -22 -9 -22 0 -22 1 -3 9
11 5 21 9 23 9 1 1 2 -3 2 -9z m-25 -30 c3 -5 2 -10 -4 -10 -5 0 -13 5 -16 10
-3 6 -2 10 4 10 5 0 13 -4 16 -10z m-11 -25 c10 -8 23 -12 29 -8 6 3 7 1 3 -5
-5 -8 -13 -9 -24 -2 -33 19 -47 30 -37 30 6 -1 19 -7 29 -15z"/>
<path d="M4271 4146 c2 -2 15 -9 29 -15 24 -11 24 -11 6 3 -16 13 -49 24 -35
12z"/>
<path d="M4333 4123 c9 -14 47 -24 47 -12 0 5 -4 9 -9 9 -5 0 -17 3 -27 7 -11
4 -15 3 -11 -4z"/>
<path d="M5485 4836 c-34 -15 -26 -21 40 -30 22 -2 78 -12 125 -21 86 -16 204
-12 216 7 3 5 1 15 -5 22 -9 10 -53 15 -164 18 -84 3 -159 7 -167 11 -8 3 -28
0 -45 -7z"/>
<path d="M5267 4803 c-4 -3 -24 -9 -44 -13 l-38 -8 43 -1 c23 0 42 -5 42 -11
0 -18 28 -10 33 9 7 28 -17 44 -36 24z"/>
<path d="M5750 4430 c8 -5 20 -10 25 -10 6 0 3 5 -5 10 -8 5 -19 10 -25 10 -5
0 -3 -5 5 -10z"/>
<path d="M5305 4320 c-3 -5 -1 -20 6 -32 l12 -22 17 21 c9 12 28 23 41 26 l24
4 -23 2 c-13 0 -32 -4 -42 -9 -13 -7 -21 -7 -26 2 -5 7 -3 8 6 3 9 -5 11 -4 6
3 -9 15 -13 15 -21 2z"/>
<path d="M5428 4323 c7 -3 16 -2 19 1 4 3 -2 6 -13 5 -11 0 -14 -3 -6 -6z"/>
<path d="M6230 4290 c8 -5 20 -10 25 -10 6 0 3 5 -5 10 -8 5 -19 10 -25 10 -5
0 -3 -5 5 -10z"/>
<path d="M6163 4283 c9 -2 23 -2 30 0 6 3 -1 5 -18 5 -16 0 -22 -2 -12 -5z"/>
<path d="M6098 4273 c6 -2 18 -2 25 0 6 3 1 5 -13 5 -14 0 -19 -2 -12 -5z"/>
<path d="M6038 4263 c7 -3 16 -2 19 1 4 3 -2 6 -13 5 -11 0 -14 -3 -6 -6z"/>
<path d="M5963 4253 c9 -2 23 -2 30 0 6 3 -1 5 -18 5 -16 0 -22 -2 -12 -5z"/>
<path d="M6124 4230 c-160 -26 -238 -28 -231 -7 2 6 14 14 28 18 l24 7 -25 1
c-49 2 -50 -3 -66 -250 -8 -129 -12 -244 -9 -256 7 -31 57 -44 154 -41 65 2
81 6 80 18 -1 8 -1 47 0 85 l1 71 70 12 c119 20 114 23 107 -58 -3 -40 -2 -72
4 -75 11 -8 66 34 73 55 3 8 12 106 21 218 18 225 16 234 -39 230 -17 -1 -104
-14 -192 -28z m-242 -282 c-8 -8 -9 -4 -5 13 4 13 8 18 11 10 2 -7 -1 -18 -6
-23z"/>
<path d="M4020 4069 c-8 -4 -40 -12 -70 -18 l-55 -9 67 5 c56 4 69 3 74 -11 9
-22 31 -20 44 4 13 25 2 50 -12 26 -11 -20 -25 -21 -30 -2 -2 9 -8 11 -18 5z"/>
<path d="M3755 4025 c-38 -7 -56 -13 -40 -13 17 0 64 5 105 13 41 7 59 13 40
13 -19 0 -66 -6 -105 -13z"/>
<path d="M3585 4000 c-34 -6 -36 -7 -10 -8 17 0 48 3 70 7 33 7 35 9 10 8 -16
0 -48 -3 -70 -7z"/>
<path d="M4165 4001 c-6 -5 -21 -11 -35 -14 -18 -3 -15 -5 13 -6 20 0 37 -5
37 -11 0 -16 27 -11 34 6 11 28 6 38 -7 19 -14 -18 -43 -13 -32 6 8 12 2 12
-10 0z"/>
<path d="M3503 3983 c9 -2 23 -2 30 0 6 3 -1 5 -18 5 -16 0 -22 -2 -12 -5z"/>
<path d="M3433 3973 c9 -2 25 -2 35 0 9 3 1 5 -18 5 -19 0 -27 -2 -17 -5z"/>
<path d="M4048 3973 c12 -2 30 -2 40 0 9 3 -1 5 -23 4 -22 0 -30 -2 -17 -4z"/>
<path d="M3363 3963 c9 -2 25 -2 35 0 9 3 1 5 -18 5 -19 0 -27 -2 -17 -5z"/>
<path d="M3988 3963 c6 -2 18 -2 25 0 6 3 1 5 -13 5 -14 0 -19 -2 -12 -5z"/>
<path d="M2361 3933 c-1 -17 4 -35 9 -38 20 -12 45 5 47 31 0 15 -2 23 -5 18
-11 -14 -36 -11 -44 6 -4 9 -7 3 -7 -17z"/>
<path d="M3298 3953 c6 -2 18 -2 25 0 6 3 1 5 -13 5 -14 0 -19 -2 -12 -5z"/>
<path d="M3923 3953 c9 -2 23 -2 30 0 6 3 -1 5 -18 5 -16 0 -22 -2 -12 -5z"/>
<path d="M3238 3943 c6 -2 18 -2 25 0 6 3 1 5 -13 5 -14 0 -19 -2 -12 -5z"/>
<path d="M3858 3943 c6 -2 18 -2 25 0 6 3 1 5 -13 5 -14 0 -19 -2 -12 -5z"/>
<path d="M3178 3933 c7 -3 16 -2 19 1 4 3 -2 6 -13 5 -11 0 -14 -3 -6 -6z"/>
<path d="M3798 3933 c7 -3 16 -2 19 1 4 3 -2 6 -13 5 -11 0 -14 -3 -6 -6z"/>
<path d="M3108 3923 c7 -3 16 -2 19 1 4 3 -2 6 -13 5 -11 0 -14 -3 -6 -6z"/>
<path d="M1537 3904 c-97 -15 -123 -25 -131 -52 -3 -9 7 -127 23 -260 29 -240
41 -285 75 -298 7 -3 66 4 131 15 130 22 144 32 145 93 0 20 -7 98 -15 175
-36 331 -40 344 -103 342 -20 -1 -77 -7 -125 -15z m162 -88 c-7 -8 -196 -36
-231 -35 -47 1 -26 7 77 23 91 14 162 20 154 12z m-109 -66 c0 -5 -8 -7 -17
-3 -16 6 -16 4 2 -16 11 -12 21 -18 23 -12 2 6 8 11 14 11 6 0 5 -7 -3 -16 -7
-8 -21 -13 -32 -10 -10 2 -27 -4 -37 -14 -10 -10 -22 -15 -26 -12 -5 4 -2 -2
6 -13 8 -11 19 -23 25 -27 5 -4 2 -10 -8 -14 -12 -4 -15 -13 -11 -33 7 -29 24
-53 24 -33 0 7 8 12 18 12 10 0 22 4 28 10 13 13 39 -5 29 -20 -4 -6 -16 -10
-26 -7 -10 3 -22 1 -25 -4 -3 -5 0 -9 5 -9 6 0 11 -5 11 -12 0 -6 -3 -8 -7 -5
-3 4 -13 1 -21 -6 -22 -18 -56 -15 -62 6 -3 10 -9 18 -15 17 -12 -1 -23 33
-24 78 -1 20 3 31 9 27 6 -4 10 5 10 20 0 15 4 24 10 20 14 -9 13 8 -2 23 -7
7 -9 12 -6 12 4 0 14 -7 22 -16 15 -14 17 -14 23 3 14 39 63 73 63 43z m70
-48 c0 -12 3 -12 15 -2 24 20 44 -3 27 -30 -12 -20 -1 -37 18 -25 13 8 13 -8
-1 -39 -13 -28 -29 -25 -29 5 0 11 -10 23 -24 29 -19 7 -24 15 -20 34 2 13 0
37 -6 53 -9 26 -9 27 5 9 8 -11 15 -26 15 -34z m-57 -19 c-7 -2 -19 -2 -25 0
-7 3 -2 5 12 5 14 0 19 -2 13 -5z m57 -103 c0 -5 -5 -10 -11 -10 -5 0 -7 5 -4
10 3 6 8 10 11 10 2 0 4 -4 4 -10z m-35 -86 c-15 -11 -15 -13 2 -23 10 -6 13
-11 7 -11 -10 0 -54 33 -54 41 0 2 14 4 31 4 26 1 28 -1 14 -11z m75 12 c0
-11 -19 -15 -25 -6 -3 5 1 10 9 10 9 0 16 -2 16 -4z m-151 -47 c-8 -5 -17 -3
-21 4 -12 18 -10 25 10 29 21 4 29 -21 11 -33z"/>
<path d="M1475 3620 c3 -5 10 -10 16 -10 5 0 9 5 9 10 0 6 -7 10 -16 10 -8 0
-12 -4 -9 -10z"/>
<path d="M4297 3913 c-4 -6 -74 -21 -157 -34 -82 -12 -148 -25 -145 -27 2 -2
72 6 155 19 148 22 150 22 165 3 15 -19 15 -19 30 0 8 11 14 27 14 35 -1 13
-2 13 -6 -1 -7 -26 -33 -30 -42 -6 -4 12 -10 17 -14 11z"/>
<path d="M5181 3876 c-7 -9 -17 -13 -22 -10 -5 3 -9 -2 -9 -10 0 -22 18 -29
39 -14 12 8 16 19 12 31 -6 17 -8 17 -20 3z"/>
<path d="M4947 3853 c-3 -5 -1 -18 4 -30 9 -25 28 -30 46 -12 8 8 87 -30 298
-146 158 -87 289 -165 293 -173 7 -19 -32 -52 -62 -53 -11 0 -15 -3 -8 -6 21
-8 71 17 78 39 11 36 0 43 -488 305 -60 32 -108 65 -109 73 0 10 -2 11 -6 3
-2 -7 -14 -13 -24 -13 -11 0 -17 5 -14 10 3 6 4 10 1 10 -3 0 -7 -3 -9 -7z"/>
<path d="M3943 3843 c9 -2 23 -2 30 0 6 3 -1 5 -18 5 -16 0 -22 -2 -12 -5z"/>
<path d="M3883 3833 c9 -2 23 -2 30 0 6 3 -1 5 -18 5 -16 0 -22 -2 -12 -5z"/>
<path d="M3823 3823 c9 -2 23 -2 30 0 6 3 -1 5 -18 5 -16 0 -22 -2 -12 -5z"/>
<path d="M4783 3805 c2 -27 5 -30 37 -30 21 -1 59 -14 93 -34 31 -18 57 -30
57 -28 0 3 -29 22 -65 43 -36 21 -65 44 -65 50 0 15 -40 6 -41 -10 -1 -6 -5 0
-9 14 -9 24 -9 24 -7 -5z"/>
<path d="M3758 3813 c6 -2 18 -2 25 0 6 3 1 5 -13 5 -14 0 -19 -2 -12 -5z"/>
<path d="M4040 3764 c-76 -14 -746 -123 -899 -145 -49 -8 -85 -18 -88 -26 -3
-7 7 -114 22 -239 14 -124 24 -228 21 -232 -3 -3 -113 -25 -244 -49 -245 -44
-311 -62 -334 -91 -9 -11 -1 -9 25 7 27 17 101 35 275 67 130 24 248 45 262
46 l24 3 32 -253 c22 -183 35 -257 47 -270 9 -10 22 -34 29 -54 8 -23 56 -83
123 -153 61 -65 130 -138 154 -163 53 -58 89 -82 119 -82 23 0 994 222 1075
246 9 3 17 14 17 24 0 10 9 22 20 25 11 3 20 13 20 20 0 8 -102 97 -227 197
-125 101 -233 188 -239 193 -8 6 -32 183 -63 465 -28 250 -51 461 -51 468 0
15 -23 14 -120 -4z m5 -113 c-6 -5 -30 -12 -55 -15 -25 -3 -92 -14 -150 -25
-125 -25 -451 -81 -500 -86 -126 -14 -164 -17 -159 -12 7 9 502 93 749 128 41
6 77 13 79 15 2 2 13 4 25 4 12 0 16 -4 11 -9z m-37 -94 c31 -33 37 -78 17
-120 -42 -89 -145 -53 -145 51 0 79 79 122 128 69z m-298 -13 c0 -8 5 -12 10
-9 6 3 10 -1 10 -9 0 -9 -4 -16 -10 -16 -5 0 -10 -9 -10 -19 0 -13 7 -19 23
-19 12 0 38 -5 57 -11 31 -10 29 -10 -26 -6 l-62 4 9 -37 c5 -22 4 -41 -1 -46
-6 -6 -10 -21 -10 -34 0 -23 -32 -62 -51 -62 -4 0 -15 7 -24 16 -9 9 -18 14
-21 11 -3 -3 4 -14 15 -24 25 -21 26 -32 5 -48 -13 -9 -21 -6 -44 14 -84 79
-145 120 -158 106 -3 -3 5 -19 17 -36 18 -24 20 -33 11 -44 -17 -20 -30 -9
-30 25 0 20 -9 36 -32 54 -45 35 -62 20 -56 -52 4 -39 1 -55 -9 -59 -8 -3 -13
-18 -11 -39 2 -38 -7 -53 -24 -36 -8 8 -7 19 4 41 10 22 13 46 8 81 -13 98
-52 91 -45 -8 l4 -55 -24 23 c-23 22 -58 19 -36 -3 16 -16 14 -47 -3 -47 -13
0 -15 11 -32 163 -7 61 -6 62 53 60 7 0 15 9 19 20 14 45 48 63 136 72 52 6
73 4 90 -7 45 -29 66 -28 77 3 7 22 18 29 48 34 21 4 42 7 46 8 39 9 77 4 77
-9z m380 -184 c0 -5 -4 -10 -10 -10 -5 0 -10 5 -10 10 0 6 5 10 10 10 6 0 10
-4 10 -10z m-60 -40 c0 -5 -9 -10 -20 -10 -11 0 -20 5 -20 10 0 6 9 10 20 10
11 0 20 -4 20 -10z m-135 -21 c0 -7 -8 -15 -17 -17 -18 -3 -25 18 -11 32 10
10 28 1 28 -15z m75 11 c-19 -13 -30 -13 -30 0 0 6 10 10 23 10 18 0 19 -2 7
-10z m131 -2 c0 -2 6 -47 13 -102 14 -115 22 -106 -114 -131 -47 -9 -95 -18
-107 -21 -16 -3 -23 0 -23 11 0 8 -7 15 -15 15 -13 0 -13 -4 2 -27 13 -19 14
-28 5 -31 -23 -7 -13 -41 14 -48 l27 -7 -24 -13 c-13 -7 -22 -16 -20 -21 3 -8
-52 -30 -169 -69 -33 -11 -86 -18 -132 -18 -43 -1 -78 -4 -78 -9 0 -7 -60 0
-69 8 -2 3 -9 1 -15 -4 -19 -15 -64 -22 -71 -10 -4 6 -19 7 -35 4 -33 -7 -47
7 -24 25 10 10 18 10 26 2 6 -6 17 -8 24 -5 8 3 14 0 14 -7 0 -16 52 -8 58 9
3 10 0 11 -9 5 -25 -15 -39 -13 -50 8 -17 32 5 46 33 22 18 -15 20 -15 9 -1
-9 12 -10 17 -2 17 6 0 14 -7 17 -15 5 -11 11 -7 24 17 9 17 23 34 31 37 12 3
12 2 1 -12 -11 -13 -11 -15 5 -11 12 3 25 -5 38 -26 11 -16 27 -30 35 -30 22
0 46 18 37 27 -5 4 -12 1 -17 -6 -13 -23 -42 -5 -35 21 5 18 4 20 -4 8 -10
-13 -11 -13 -11 0 0 22 12 36 38 44 12 4 22 11 22 15 0 3 16 6 35 6 26 -1 34
2 33 14 -2 8 9 21 24 28 15 8 30 22 33 33 9 29 25 24 26 -7 0 -17 3 -22 6 -13
4 8 17 23 30 33 13 10 29 25 37 32 14 14 78 17 70 3 -2 -4 1 -10 7 -14 9 -5
10 16 5 82 l-7 89 113 22 c117 22 137 25 139 21z m-844 -110 c-3 -8 -6 -5 -6
6 -1 11 2 17 5 13 3 -3 4 -12 1 -19z m373 -118 c0 -5 -4 -10 -10 -10 -5 0 -10
5 -10 10 0 6 5 10 10 10 6 0 10 -4 10 -10z m-150 -20 c0 -5 -4 -10 -10 -10 -5
0 -10 5 -10 10 0 6 5 10 10 10 6 0 10 -4 10 -10z m544 -16 c21 -8 21 -63 1
-70 -8 -4 -21 -1 -29 5 -9 8 -21 8 -40 1 -14 -5 -26 -8 -27 -7 -10 31 -7 47
11 48 35 2 39 4 52 17 14 14 12 14 32 6z m83 -9 c7 -19 5 -20 -26 -30 -20 -6
-23 -4 -18 9 4 9 1 16 -6 16 -16 0 14 20 31 20 7 0 15 -7 19 -15z m-420 -191
c-3 -3 -12 -4 -19 -1 -8 3 -5 6 6 6 11 1 17 -2 13 -5z m-50 -10 c-3 -3 -12 -4
-19 -1 -8 3 -5 6 6 6 11 1 17 -2 13 -5z m543 -2 c0 -4 -55 -19 -122 -31 -68
-13 -129 -26 -135 -29 -7 -2 -13 0 -13 5 0 5 57 21 128 35 155 31 142 30 142
20z m203 -132 l98 -79 -38 -9 c-154 -38 -196 -45 -214 -34 -15 9 -17 9 -13 -2
6 -15 18 -12 -301 -81 -115 -25 -228 -49 -250 -55 -32 -7 -43 -6 -60 8 -19 16
-19 16 -6 0 15 -20 11 -23 -44 -33 -104 -21 -94 -24 -180 65 -44 45 -82 86
-84 91 -2 6 9 9 25 7 16 -2 28 -8 27 -15 -2 -7 4 -10 12 -6 11 4 13 9 5 18 -8
9 -4 14 17 18 18 4 32 1 39 -9 6 -8 15 -14 19 -14 4 0 2 6 -4 14 -10 11 -8 16
8 21 25 8 42 -1 35 -19 -3 -7 3 -19 13 -27 16 -12 17 -12 6 1 -25 33 -9 54 45
64 48 8 53 7 72 -15 18 -21 18 -17 -4 23 l-25 46 22 5 c301 66 336 71 357 52
19 -17 24 -18 91 -3 59 13 72 13 76 2 3 -8 12 -14 21 -14 13 0 12 2 -3 14 -17
12 -13 15 46 29 35 8 71 15 79 16 9 0 59 -35 113 -79z m-838 1 c-13 -11 -275
-65 -282 -57 -6 6 3 8 157 40 137 29 137 29 125 17z m718 -236 c39 -33 60 -65
43 -65 -3 0 -74 -16 -157 -35 -84 -19 -164 -35 -177 -35 -16 0 -46 21 -89 63
l-65 63 153 33 c85 18 165 36 179 40 27 9 28 8 113 -64z"/>
<path d="M3909 3543 c-13 -16 -12 -17 4 -4 16 13 21 21 13 21 -2 0 -10 -8 -17
-17z"/>
<path d="M3930 3465 c-7 -8 -16 -12 -21 -9 -12 7 -11 -13 1 -37 15 -28 74 -26
94 3 9 12 16 32 15 43 0 20 0 20 -9 0 -5 -11 -9 -15 -9 -10 -1 6 -4 5 -9 -1
-11 -17 -49 -26 -57 -14 -4 6 -1 17 5 25 7 8 10 15 7 15 -2 0 -10 -7 -17 -15z"/>
<path d="M3620 3487 c-9 -7 -14 -19 -12 -29 4 -19 -20 -37 -26 -20 -4 14 -52
16 -52 3 0 -16 51 -22 86 -9 19 6 34 18 34 26 0 7 -4 11 -9 7 -5 -3 -12 -1
-15 4 -4 5 2 11 11 13 10 2 13 6 8 10 -6 3 -17 1 -25 -5z"/>
<path d="M3551 3400 c-1 -21 39 -84 47 -75 4 4 1 10 -5 12 -7 3 -13 9 -13 14
0 6 5 7 10 4 6 -3 10 -1 10 4 0 6 -5 11 -11 11 -5 0 -7 5 -4 10 3 6 0 10 -9
10 -8 0 -17 6 -19 13 -4 8 -6 7 -6 -3z"/>
<path d="M3507 3366 c-4 -10 -4 -23 0 -30 14 -22 93 -89 99 -83 9 9 -13 42
-49 74 -19 17 -36 36 -39 44 -3 9 -6 8 -11 -5z"/>
<path d="M3560 2959 c0 -5 5 -7 10 -4 6 3 10 8 10 11 0 2 -4 4 -10 4 -5 0 -10
-5 -10 -11z"/>
<path d="M3705 2960 c4 -7 2 -16 -6 -21 -12 -7 -11 -9 1 -9 13 0 13 -1 0 -10
-8 -5 -11 -12 -8 -15 12 -12 28 6 28 30 0 13 -5 27 -12 31 -7 5 -8 3 -3 -6z"/>
<path d="M3614 2938 c5 -22 3 -28 -9 -28 -9 0 -13 5 -10 10 3 6 3 15 -1 22
-11 18 -23 -23 -13 -43 6 -11 17 -15 34 -11 23 4 26 8 20 31 -4 14 -11 31 -17
36 -7 7 -9 2 -4 -17z"/>
<path d="M3417 2903 c-10 -10 -8 -41 3 -48 18 -11 50 6 50 25 0 10 -4 21 -9
24 -5 4 -7 -2 -4 -13 3 -11 -2 -21 -11 -24 -18 -7 -30 8 -22 28 6 16 3 19 -7
8z"/>
<path d="M4235 2750 c-19 -8 -19 -9 3 -9 12 -1 22 4 22 9 0 6 -1 10 -2 9 -2 0
-12 -4 -23 -9z"/>
<path d="M4185 2740 c-3 -5 -1 -10 4 -10 6 0 11 5 11 10 0 6 -2 10 -4 10 -3 0
-8 -4 -11 -10z"/>
<path d="M3954 2702 c3 -5 1 -12 -6 -14 -8 -3 -9 -6 -1 -11 6 -4 13 0 17 8 3
8 0 17 -6 21 -6 4 -8 3 -4 -4z"/>
<path d="M4015 2700 c-8 -13 5 -13 25 0 13 8 13 10 -2 10 -9 0 -20 -4 -23 -10z"/>
<path d="M3896 2685 c4 -8 11 -15 16 -15 6 0 5 6 -2 15 -7 8 -14 15 -16 15 -2
0 -1 -7 2 -15z"/>
<path d="M3836 2675 c4 -8 11 -15 16 -15 6 0 5 6 -2 15 -7 8 -14 15 -16 15 -2
0 -1 -7 2 -15z"/>
<path d="M3713 2657 c4 -10 2 -17 -5 -17 -6 0 -9 -3 -5 -6 3 -3 12 -2 20 3 13
7 13 10 -1 23 -14 13 -15 12 -9 -3z"/>
<path d="M3662 2634 c10 -10 20 -16 22 -13 3 3 -5 11 -17 18 -21 13 -21 12 -5
-5z"/>
<path d="M4080 2636 c0 -2 8 -10 18 -17 15 -13 16 -12 3 4 -13 16 -21 21 -21
13z"/>
<path d="M3525 2600 c-19 -8 -19 -9 2 -9 12 -1 25 4 28 9 7 12 -2 12 -30 0z"/>
<path d="M3510 2476 c0 -2 8 -10 18 -17 15 -13 16 -12 3 4 -13 16 -21 21 -21
13z"/>
<path d="M5416 3739 c11 -18 89 -31 154 -24 57 6 68 4 74 -10 7 -19 21 -13 36
15 7 13 7 21 -2 26 -6 4 -8 3 -4 -4 11 -18 -16 -26 -29 -9 -7 10 -15 13 -21 7
-19 -19 -126 -23 -171 -7 -24 8 -40 11 -37 6z"/>
<path d="M2478 3733 c7 -3 16 -2 19 1 4 3 -2 6 -13 5 -11 0 -14 -3 -6 -6z"/>
<path d="M2418 3723 c7 -3 16 -2 19 1 4 3 -2 6 -13 5 -11 0 -14 -3 -6 -6z"/>
<path d="M2343 3713 c9 -2 23 -2 30 0 6 3 -1 5 -18 5 -16 0 -22 -2 -12 -5z"/>
<path d="M2273 3703 c9 -2 25 -2 35 0 9 3 1 5 -18 5 -19 0 -27 -2 -17 -5z"/>
<path d="M2203 3693 c9 -2 25 -2 35 0 9 3 1 5 -18 5 -19 0 -27 -2 -17 -5z"/>
<path d="M2045 3674 c-44 -8 -93 -16 -109 -19 -35 -5 -40 -10 -33 -30 9 -22
47 -19 47 4 0 16 17 21 118 38 64 12 104 21 87 21 -16 0 -66 -6 -110 -14z"/>
<path d="M990 3581 c-126 -23 -139 -28 -146 -57 -7 -26 52 -523 66 -560 5 -11
19 -28 32 -36 23 -15 34 -15 134 3 60 10 115 19 122 19 7 0 24 11 37 25 33 32
32 68 -4 358 -22 174 -33 233 -47 248 -21 23 -62 23 -194 0z m185 -90 c-12
-11 -284 -56 -291 -48 -8 8 130 34 291 56 6 1 6 -2 0 -8z m-115 -61 c0 -5 -10
-10 -22 -9 -22 0 -22 1 -3 9 11 5 21 9 23 9 1 1 2 -3 2 -9z m53 3 c-7 -2 -19
-2 -25 0 -7 3 -2 5 12 5 14 0 19 -2 13 -5z m-103 -8 c0 -6 -38 -22 -75 -31
-19 -5 -25 -2 -25 9 0 11 12 17 43 20 23 2 45 4 50 5 4 1 7 0 7 -3z m135 -45
c-10 -12 -24 -19 -31 -16 -6 2 -28 -6 -47 -20 -20 -13 -43 -24 -51 -24 -8 0
-16 -5 -18 -11 -3 -9 -10 -9 -26 0 -15 8 -22 8 -22 1 0 -6 -5 -8 -11 -4 -19
11 13 24 33 13 14 -7 20 -6 24 5 3 8 12 12 19 9 8 -2 26 7 41 22 19 19 34 25
51 22 15 -3 27 1 30 9 3 8 10 14 16 14 5 0 2 -9 -8 -20z m-110 0 c3 -5 1 -10
-4 -10 -6 0 -11 5 -11 10 0 6 2 10 4 10 3 0 8 -4 11 -10z m185 -290 c0 -5 -2
-10 -4 -10 -3 0 -8 5 -11 10 -3 6 -1 10 4 10 6 0 11 -4 11 -10z m-43 -6 c-3
-3 -12 -4 -19 -1 -8 3 -5 6 6 6 11 1 17 -2 13 -5z m-87 -14 c-20 -13 -33 -13
-25 0 3 6 14 10 23 10 15 0 15 -2 2 -10z m-130 -20 c0 -5 -5 -10 -11 -10 -5 0
-7 5 -4 10 3 6 8 10 11 10 2 0 4 -4 4 -10z m58 -2 c-6 -18 -28 -21 -28 -4 0 9
7 16 16 16 9 0 14 -5 12 -12z m82 2 c0 -5 -4 -10 -10 -10 -5 0 -10 5 -10 10 0
6 5 10 10 10 6 0 10 -4 10 -10z"/>
<path d="M5468 3423 c6 -2 18 -2 25 0 6 3 1 5 -13 5 -14 0 -19 -2 -12 -5z"/>
<path d="M5418 3413 c7 -3 16 -2 19 1 4 3 -2 6 -13 5 -11 0 -14 -3 -6 -6z"/>
<path d="M2338 3293 c6 -2 18 -2 25 0 6 3 1 5 -13 5 -14 0 -19 -2 -12 -5z"/>
<path d="M2278 3283 c6 -2 18 -2 25 0 6 3 1 5 -13 5 -14 0 -19 -2 -12 -5z"/>
<path d="M2218 3273 c6 -2 18 -2 25 0 6 3 1 5 -13 5 -14 0 -19 -2 -12 -5z"/>
<path d="M1825 3213 c-214 -37 -326 -60 -338 -71 -16 -14 -17 -14 -12 0 4 11
-1 17 -20 20 -16 3 -28 1 -31 -7 -6 -15 13 -65 25 -65 23 0 41 14 41 30 0 22
-1 21 340 81 329 57 379 67 345 67 -16 0 -174 -25 -350 -55z"/>
<path d="M1735 2804 c-214 -40 -427 -76 -473 -79 -51 -3 -89 -10 -97 -19 -8
-7 -35 -17 -60 -20 -31 -5 -50 -14 -60 -30 -15 -23 -12 -58 34 -381 6 -38 18
-138 27 -222 24 -216 -2 -204 304 -137 135 30 292 65 350 78 58 14 170 38 250
56 250 54 247 52 235 143 -3 29 -14 117 -25 197 -10 80 -23 204 -30 275 -13
152 -24 201 -46 209 -9 3 -16 6 -17 5 -1 0 -177 -34 -392 -75z m353 -40 c-4
-3 -12 -6 -20 -8 -7 -1 -18 -4 -23 -8 -6 -4 -29 -9 -50 -12 -50 -6 -96 -15
-114 -21 -20 -8 -334 -70 -496 -99 -179 -32 -245 -39 -245 -29 0 9 367 83 680
138 80 14 161 30 180 34 41 10 96 13 88 5z m-74 -129 c-7 -17 -34 -28 -34 -14
0 6 -4 7 -10 4 -5 -3 -10 -1 -10 5 0 12 41 30 52 24 4 -3 5 -11 2 -19z m-120
-7 c-6 -10 -4 -10 7 0 23 21 39 14 37 -17 -3 -39 -45 -51 -54 -15 -3 12 -3 28
1 33 9 15 18 14 9 -1z m-268 -33 c18 -15 17 -17 -41 -70 -33 -30 -66 -53 -72
-50 -7 2 -13 1 -13 -3 0 -5 -17 -8 -37 -9 -21 0 -46 -4 -56 -8 -11 -5 -23 -3
-30 5 -9 9 -8 11 7 8 10 -1 21 3 24 11 3 10 0 12 -12 8 -9 -4 -16 -2 -16 3 0
6 5 10 10 10 6 0 10 5 10 11 0 6 -9 8 -22 3 -19 -6 -21 -5 -11 8 7 8 10 17 7
20 -3 3 -1 9 5 13 6 3 11 2 11 -4 0 -6 16 1 36 14 20 14 45 25 55 25 10 0 21
5 24 10 10 16 99 12 121 -5z m-290 -102 c9 -33 -6 -57 -37 -60 -13 -1 -36 -5
-51 -9 -31 -7 -35 3 -13 32 21 27 18 36 -7 28 -20 -6 -21 -5 -9 10 7 9 20 16
28 16 22 0 27 -29 8 -50 -17 -19 -17 -20 3 -20 18 0 22 6 22 33 0 38 6 47 31
47 12 0 21 -10 25 -27z m684 13 c0 -3 -4 -8 -10 -11 -5 -3 -10 -1 -10 4 0 6 5
11 10 11 6 0 10 -2 10 -4z m-60 -16 c-8 -5 -19 -10 -25 -10 -5 0 -3 5 5 10 8
5 20 10 25 10 6 0 3 -5 -5 -10z m-76 -9 c3 -5 -1 -12 -10 -15 -22 -9 -24 -8
-24 9 0 16 25 21 34 6z m211 -43 c3 -29 8 -65 11 -80 5 -24 2 -28 -33 -37 -64
-17 -213 -44 -217 -40 -2 2 -6 40 -10 84 l-7 80 98 22 c152 32 150 33 158 -29z
m-645 -9 c0 -11 -5 -17 -10 -14 -6 4 -7 12 -4 18 5 8 3 8 -7 0 -7 -7 -22 -13
-33 -13 -17 1 -15 4 9 15 41 18 45 18 45 -6z m-103 -15 c-3 -3 -12 -4 -19 -1
-8 3 -5 6 6 6 11 1 17 -2 13 -5z m299 -86 c-9 -5 -14 -13 -11 -18 3 -5 0 -12
-6 -16 -8 -5 -9 -3 -4 6 6 10 4 12 -11 6 -15 -5 -14 -2 6 17 14 14 29 22 34
19 5 -2 1 -9 -8 -14z m58 -80 c6 -4 18 -5 27 -2 18 5 33 -21 22 -38 -3 -7 -1
-8 5 -4 7 4 12 15 13 24 0 9 3 12 5 5 3 -6 -2 -28 -10 -50 -13 -31 -13 -34 -1
-19 10 13 21 17 40 12 22 -6 25 -9 15 -21 -7 -8 -16 -15 -21 -15 -4 0 -20 -5
-36 -11 -49 -20 -58 -18 -58 15 0 23 -5 31 -20 33 l-20 3 20 -9 c18 -9 19 -10
1 -10 -12 -1 -16 -6 -12 -16 3 -8 1 -15 -4 -15 -5 0 -11 8 -13 18 -4 13 -5 11
-6 -5 -1 -17 5 -23 19 -23 46 0 12 -25 -50 -36 -78 -15 -100 -16 -100 -5 0 6
5 11 11 11 7 0 9 11 6 30 -5 22 -3 30 8 30 8 0 19 8 24 19 6 10 22 22 37 25
17 5 24 12 20 21 -3 9 0 12 10 8 8 -3 14 1 14 8 0 11 3 11 11 -1 8 -12 9 -9 5
12 -6 26 14 47 23 24 2 -6 9 -14 15 -18z m26 12 c0 -5 -4 -10 -10 -10 -5 0
-10 5 -10 10 0 6 5 10 10 10 6 0 10 -4 10 -10z m290 -15 c10 -12 10 -18 0 -30
-16 -19 -39 -19 -46 0 -6 15 11 45 26 45 4 0 13 -7 20 -15z m70 0 c0 -9 -9
-15 -25 -15 -16 0 -25 6 -25 15 0 9 9 15 25 15 16 0 25 -6 25 -15z m-140 -29
c0 -7 -9 -16 -20 -19 -15 -4 -20 0 -20 14 0 12 7 19 20 19 11 0 20 -6 20 -14z
m-420 -56 c0 -5 -5 -10 -11 -10 -8 0 -8 -5 1 -15 16 -20 6 -47 -15 -38 -10 3
-15 13 -12 25 4 15 3 17 -9 8 -10 -9 -11 -17 -3 -31 5 -10 14 -19 19 -19 6 0
10 -5 10 -11 0 -6 -6 -9 -14 -6 -8 3 -39 0 -69 -7 -32 -7 -61 -9 -69 -5 -10 7
-9 9 5 9 9 0 17 7 17 15 0 8 5 15 10 15 6 0 10 -5 10 -11 0 -6 12 -9 28 -7 23
3 27 7 25 32 -1 16 0 26 3 23 3 -3 16 6 29 19 25 25 45 31 45 14z m-90 -40 c6
-11 8 -25 5 -30 -10 -16 -35 -12 -35 6 0 9 -5 13 -12 9 -7 -4 -5 0 4 8 10 8
15 17 11 20 -3 4 -1 7 5 7 6 0 16 -9 22 -20z m-64 -12 c4 -6 -3 -19 -16 -30
-23 -19 -25 -19 -37 -2 -17 23 -17 35 1 28 8 -3 17 -1 21 5 8 14 22 14 31 -1z
m491 6 c-3 -3 -12 -4 -19 -1 -8 3 -5 6 6 6 11 1 17 -2 13 -5z m-50 -10 c-3 -3
-12 -4 -19 -1 -8 3 -5 6 6 6 11 1 17 -2 13 -5z m-107 -24 c-175 -40 -281 -62
-285 -58 -3 3 64 19 148 37 83 18 157 34 162 36 6 2 19 3 30 3 11 0 -14 -8
-55 -18z m-430 -9 c0 -5 8 -7 19 -4 11 3 21 -2 24 -11 7 -17 2 -19 -28 -7 -12
5 -33 2 -52 -6 -20 -8 -33 -9 -33 -3 0 5 9 10 20 10 11 0 23 7 26 15 7 16 24
21 24 6z m127 -57 c-3 -3 -12 -4 -19 -1 -8 3 -5 6 6 6 11 1 17 -2 13 -5z m-50
-10 c-3 -3 -12 -4 -19 -1 -8 3 -5 6 6 6 11 1 17 -2 13 -5z"/>
<path d="M1417 2553 c-4 -3 -7 -13 -7 -22 0 -13 2 -13 13 1 6 9 19 18 27 21
10 4 8 6 -6 6 -11 1 -24 -2 -27 -6z"/>
<path d="M1448 2523 c7 -3 16 -2 19 1 4 3 -2 6 -13 5 -11 0 -14 -3 -6 -6z"/>
<path d="M1424 2498 c3 -17 36 -23 36 -8 0 7 -6 10 -14 7 -8 -3 -17 -2 -20 4
-2 5 -3 4 -2 -3z"/>
<path d="M1294 2496 c-7 -20 2 -46 16 -46 13 0 13 47 0 55 -6 3 -13 -1 -16 -9z"/>
<path d="M1596 2162 c-4 -4 -13 -7 -19 -7 -15 0 -20 -26 -8 -44 14 -21 51 -4
51 24 0 25 -12 39 -24 27z m9 -32 c-3 -5 -11 -10 -16 -10 -6 0 -7 5 -4 10 3 6
11 10 16 10 6 0 7 -4 4 -10z"/>
<path d="M5178 2583 c7 -3 16 -2 19 1 4 3 -2 6 -13 5 -11 0 -14 -3 -6 -6z"/>
<path d="M5041 2559 c-46 -10 -86 -21 -89 -24 -14 -13 11 -10 108 16 120 31
107 37 -19 8z"/>
<path d="M2820 2555 c8 -11 34 -42 57 -69 24 -26 43 -54 43 -61 0 -27 -52 -74
-103 -93 -29 -11 -115 -32 -192 -47 -77 -15 -144 -32 -149 -36 -16 -14 4 -11
173 25 165 36 220 57 260 100 35 38 23 76 -46 145 -31 31 -51 47 -43 36z"/>
<path d="M4867 2553 c-13 -12 -7 -51 11 -73 15 -19 22 -21 38 -12 16 9 6 18
-11 10 -9 -5 -36 55 -31 69 6 14 3 17 -7 6z"/>
<path d="M2387 2253 c-8 -17 -1 -58 10 -56 7 2 10 -4 6 -13 -4 -12 0 -15 22
-12 18 2 29 10 31 21 2 14 -1 16 -11 7 -17 -14 -53 18 -49 43 2 18 -2 22 -9
10z"/>
</g>
</svg>
