<?xml version="1.0" standalone="no"?>
<!DOCTYPE svg PUBLIC "-//W3C//DTD SVG 1.0//EN" "http://www.w3.org/TR/2001/REC-SVG-20010904/DTD/svg10.dtd">
<svg xmlns="http://www.w3.org/2000/svg" xmlns:xlink="http://www.w3.org/1999/xlink" id="body_1" width="137" height="137">

<g transform="matrix(0.1861413 0 0 0.1861413 0 0)">
	<g transform="matrix(0.1 0 -0 -0.1 0 736)">
		<path  d="M3680 6645C 3668 6630 3675 6590 3691 6590C 3696 6590 3700 6422 3700 6167L3700 6167L3700 5745L3615 5660L3530 5576L3528 4990L3525 4405L3478 4402L3430 4399L3430 5350C 3430 6209 3432 6303 3446 6325C 3459 6346 3460 6353 3450 6366C 3429 6390 3396 6380 3392 6348C 3390 6332 3393 6320 3399 6320C 3407 6320 3410 6033 3410 5360L3410 5360L3410 4400L3365 4400L3320 4400L3320 4879L3320 5358L3250 5426L3180 5494L3180 5798C 3180 6054 3182 6104 3195 6116C 3214 6135 3214 6145 3194 6164C 3175 6184 3156 6184 3140 6165C 3128 6150 3135 6110 3151 6110C 3156 6110 3160 5986 3160 5802L3160 5802L3160 5494L3230 5425L3300 5356L3300 4878L3300 4400L3245 4400L3190 4400L3190 4849C 3190 5247 3192 5299 3206 5304C 3216 5308 3220 5319 3218 5337C 3215 5361 3210 5365 3185 5365C 3160 5365 3155 5361 3152 5337C 3150 5319 3154 5308 3164 5304C 3178 5299 3180 5247 3180 4849L3180 4849L3180 4400L3115 4400L3050 4400L3050 4578L3050 4755L2837 4968L2625 5180L2395 5180L2165 5180L1937 5408C 1778 5567 1710 5642 1710 5657C 1710 5686 1675 5706 1654 5689C 1626 5666 1650 5610 1683 5623C 1692 5626 1788 5537 1931 5394L1931 5394L2165 5160L2395 5160L2625 5160L2828 4957L3030 4755L3030 4577L3030 4400L2990 4400L2950 4400L2950 4360L2950 4320L2762 4320L2575 4320L2450 4445L2325 4570L1900 4570L1475 4570L1338 4708C 1249 4798 1200 4854 1198 4870C 1196 4890 1189 4895 1165 4895C 1138 4895 1135 4892 1135 4865C 1135 4839 1139 4835 1166 4832C 1190 4830 1224 4801 1330 4695L1330 4695L1465 4560L1890 4560L2315 4560L2445 4430L2575 4300L2762 4300L2950 4300L2950 4265L2950 4230L2613 4230C 2336 4231 2272 4233 2256 4245C 2233 4263 2200 4248 2200 4220C 2200 4192 2233 4177 2256 4195C 2272 4207 2336 4209 2613 4210L2613 4210L2950 4210L2950 4170L2950 4130L2557 4130L2164 4130L2090 4205L2016 4280L1833 4280C 1732 4280 1650 4284 1650 4289C 1650 4314 1596 4310 1586 4284C 1572 4246 1610 4221 1646 4245C 1665 4257 1704 4260 1842 4260L1842 4260L2016 4260L2090 4185L2164 4110L2557 4110L2950 4110L2950 4055L2950 4000L2273 4000L1597 4000L1529 4065L1461 4131L1282 4130C 1155 4129 1097 4132 1082 4141C 1055 4158 1030 4146 1030 4116C 1030 4085 1068 4070 1085 4094C 1096 4108 1123 4110 1278 4110L1278 4110L1460 4110L1522 4050L1583 3990L2264 3988L2945 3985L2948 3933L2951 3880L2587 3880C 2272 3880 2221 3882 2216 3895C 2213 3903 2202 3910 2191 3910C 2165 3910 2148 3880 2161 3857C 2173 3836 2209 3835 2216 3855C 2221 3868 2272 3870 2586 3870L2586 3870L2950 3870L2950 3825L2950 3780L2658 3780C 2397 3780 2365 3782 2348 3797C 2324 3819 2295 3804 2295 3770C 2295 3736 2324 3721 2348 3743C 2365 3758 2397 3760 2658 3760L2658 3760L2950 3760L2950 3715L2950 3670L2592 3670L2235 3670L2130 3775L2025 3880L1449 3880C 949 3880 871 3882 860 3895C 843 3915 813 3914 801 3892C 780 3853 832 3821 860 3855C 871 3868 948 3870 1442 3870L1442 3870L2012 3870L2111 3768L2211 3665L2578 3660L2945 3655L2948 3603L2951 3550L2467 3550C 2036 3550 1981 3552 1976 3566C 1972 3576 1961 3580 1943 3578C 1919 3575 1915 3570 1915 3545C 1915 3520 1919 3515 1943 3512C 1961 3510 1972 3514 1976 3524C 1981 3538 2036 3540 2466 3540L2466 3540L2950 3540L2950 3490L2950 3440L2382 3440L1814 3440L1760 3495L1706 3550L1044 3550C 459 3550 381 3552 370 3565C 354 3585 321 3581 307 3558C 285 3523 343 3492 370 3525C 381 3538 468 3540 1039 3540L1039 3540L1696 3540L1755 3480L1814 3420L2382 3420L2950 3420L2950 3375L2950 3330L2746 3330C 2577 3330 2540 3333 2530 3345C 2514 3364 2486 3364 2470 3345C 2443 3313 2487 3275 2519 3304C 2534 3318 2567 3320 2743 3320L2743 3320L2950 3320L2950 3275L2950 3230L2672 3230L2394 3230L2360 3265L2326 3300L1819 3300C 1381 3300 1311 3302 1300 3315C 1283 3335 1253 3334 1241 3312C 1220 3273 1272 3241 1300 3275C 1311 3288 1380 3290 1814 3290L1814 3290L2316 3290L2355 3250L2394 3210L2672 3210L2950 3210L2950 3170L2950 3130L2557 3130L2165 3130L2070 3035L1975 2940L1369 2940C 842 2940 761 2942 750 2955C 722 2989 670 2956 691 2917C 703 2896 739 2895 746 2915C 751 2928 830 2930 1368 2930L1368 2930L1984 2930L2079 3023L2175 3115L2563 3112L2950 3110L2950 3070L2950 3030L2757 3030L2565 3030L2395 2860L2225 2690L1970 2690L1715 2690L1495 2470C 1346 2321 1268 2250 1254 2250C 1224 2250 1203 2223 1217 2202C 1239 2166 1290 2181 1290 2223C 1290 2236 1364 2318 1503 2457L1503 2457L1715 2670L1970 2670L2225 2670L2400 2845L2575 3020L2762 3020L2950 3020L2950 2980C 2950 2944 2953 2940 2975 2940L2975 2940L3000 2940L3000 2787L3000 2634L2778 2412L2556 2190L2470 2190L2385 2190L2215 2020C 2105 1910 2038 1850 2025 1850C 1981 1850 1964 1799 2001 1780C 2026 1766 2050 1782 2050 1814C 2050 1828 2105 1890 2218 2003L2218 2003L2385 2170L2475 2170L2566 2170L2793 2398L3020 2626L3020 2783L3020 2940L3069 2940L3119 2940L3119 2501C 3119 2094 3118 2060 3101 2028C 3080 1990 3088 1960 3118 1960C 3155 1960 3177 2014 3145 2026C 3132 2031 3130 2092 3130 2486L3130 2486L3130 2940L3185 2940L3240 2940L3240 2462L3240 1984L3170 1915L3100 1846L3100 1556C 3100 1297 3098 1265 3083 1248C 3063 1226 3076 1195 3105 1195C 3132 1195 3148 1226 3132 1250C 3123 1264 3120 1346 3120 1558L3120 1558L3120 1846L3190 1915L3260 1984L3260 2462L3260 2940L3305 2940L3350 2940L3350 1978C 3350 1113 3348 1015 3334 999C 3310 973 3324 940 3360 940C 3396 940 3410 973 3386 999C 3372 1015 3370 1113 3370 1978L3370 1978L3370 2940L3420 2940L3470 2940L3470 2352L3470 1765L3555 1680L3640 1595L3640 1188C 3640 942 3636 780 3631 780C 3626 780 3618 770 3615 759C 3606 731 3631 706 3659 715C 3684 723 3688 761 3665 780C 3652 791 3650 850 3650 1199L3650 1199L3650 1605L3565 1690L3480 1775L3480 2357L3480 2940L3525 2940L3570 2940L3570 2699C 3570 2496 3568 2456 3555 2443C 3546 2435 3541 2423 3543 2417C 3549 2399 3576 2386 3594 2393C 3611 2400 3617 2450 3600 2450C 3594 2450 3590 2538 3590 2695L3590 2695L3590 2940L3635 2940L3679 2940L3682 2603L3685 2265L3626 2202L3567 2140L3569 2024C 3571 1928 3568 1904 3555 1890C 3546 1880 3540 1861 3542 1848C 3546 1816 3603 1814 3608 1846C 3610 1857 3604 1873 3595 1880C 3583 1890 3580 1916 3580 2014L3580 2014L3580 2136L3640 2195L3700 2254L3700 2597L3700 2940L3750 2940L3800 2940L3800 2457L3800 1974L3870 1906L3940 1837L3940 1520C 3940 1250 3938 1201 3925 1190C 3906 1174 3906 1146 3925 1130C 3942 1116 3976 1125 3984 1145C 3990 1163 3981 1190 3969 1190C 3964 1190 3960 1331 3960 1516L3960 1516L3960 1842L3885 1919L3810 1996L3810 2468L3810 2940L3855 2940L3900 2940L3902 2544C 3904 2229 3902 2146 3892 2138C 3870 2119 3882 2085 3912 2082C 3945 2078 3960 2112 3936 2139C 3922 2154 3920 2204 3920 2548L3920 2548L3920 2940L3964 2940L4007 2940L4014 2820C 4018 2754 4020 2603 4019 2484L4019 2484L4017 2269L4064 2221L4110 2174L4110 1603C 4110 1100 4108 1031 4095 1020C 4070 999 4080 966 4112 962C 4145 958 4160 992 4136 1019C 4122 1035 4120 1100 4120 1611L4120 1611L4120 2186L4075 2230L4030 2274L4030 2607L4030 2940L4075 2940L4120 2940L4120 2651C 4120 2403 4118 2361 4105 2356C 4087 2349 4085 2319 4102 2302C 4134 2270 4183 2310 4155 2346C 4143 2361 4141 2419 4140 2653L4140 2653L4140 2940L4185 2940L4230 2940L4230 2363L4230 1786L4398 1618L4565 1450L4659 1450C 4731 1450 4758 1446 4771 1434C 4785 1422 4793 1421 4809 1430C 4831 1441 4834 1449 4824 1474C 4817 1492 4775 1496 4765 1480C 4762 1474 4717 1470 4666 1470L4666 1470L4574 1470L4412 1633L4250 1795L4250 2368L4250 2940L4295 2940L4340 2940L4340 2857L4340 2774L4408 2707L4476 2640L4615 2640L4755 2640L4917 2478C 5025 2369 5080 2307 5082 2290C 5084 2270 5091 2265 5115 2265C 5136 2265 5146 2270 5148 2284C 5152 2305 5125 2331 5107 2324C 5100 2322 5021 2394 4930 2485L4930 2485L4765 2650L4626 2650L4488 2650L4424 2712L4360 2774L4360 2857C 4360 2939 4360 2940 4385 2940C 4408 2940 4410 2944 4410 2985L4410 2985L4410 3030L4598 3030L4785 3030L4960 2855L5135 2680L5388 2680L5640 2680L5860 2459C 6022 2297 6080 2232 6080 2215C 6080 2200 6087 2189 6100 2185C 6125 2177 6150 2195 6150 2221C 6150 2240 6113 2266 6102 2256C 6099 2252 5994 2351 5870 2475L5870 2475L5644 2700L5389 2700L5135 2700L4965 2870L4795 3040L4603 3040L4410 3040L4410 3080L4410 3120L4803 3120L5195 3120L5285 3030L5375 2940L6001 2940C 6546 2940 6629 2938 6640 2925C 6668 2891 6721 2921 6700 2959C 6687 2984 6658 2986 6640 2965C 6629 2952 6546 2950 6006 2950L6006 2950L5385 2950L5290 3045L5195 3140L4803 3140L4410 3140L4410 3180L4410 3220L4688 3220L4966 3220L5005 3260L5044 3300L5562 3300C 6014 3300 6081 3298 6086 3285C 6094 3266 6134 3266 6149 3284C 6158 3295 6159 3304 6150 3319C 6137 3344 6108 3346 6090 3325C 6079 3312 6007 3310 5556 3310L5556 3310L5034 3310L5000 3275L4966 3240L4688 3240L4410 3240L4410 3285L4410 3330L4619 3330C 4800 3330 4829 3328 4834 3314C 4841 3294 4879 3299 4893 3322C 4915 3357 4857 3388 4830 3355C 4820 3343 4783 3340 4614 3340L4614 3340L4410 3340L4410 3385L4410 3430L4978 3430L5546 3430L5605 3490L5664 3550L6321 3550C 6892 3550 6979 3548 6990 3535C 7008 3513 7047 3516 7055 3540C 7068 3581 7017 3607 6990 3575C 6979 3562 6892 3560 6316 3560L6316 3560L5654 3560L5600 3505L5546 3450L4978 3450L4410 3450L4410 3500L4410 3550L4889 3550C 5309 3550 5369 3548 5380 3534C 5388 3526 5405 3520 5419 3522C 5439 3524 5446 3531 5448 3552C 5451 3575 5446 3581 5424 3586C 5405 3591 5393 3588 5385 3576C 5374 3562 5327 3560 4891 3560L4891 3560L4409 3560L4412 3613L4415 3665L4780 3668L5145 3670L5249 3775L5353 3880L5920 3880C 6412 3880 6489 3878 6500 3865C 6517 3845 6547 3846 6559 3868C 6580 3907 6528 3939 6500 3905C 6489 3892 6411 3890 5911 3890L5911 3890L5335 3890L5230 3785L5125 3680L4768 3680L4410 3680L4410 3725L4410 3770L4688 3770C 4912 3769 4969 3767 4984 3755C 5009 3736 5042 3753 5038 3783C 5035 3808 4995 3819 4977 3801C 4970 3794 4874 3790 4688 3790L4688 3790L4410 3790L4410 3835L4410 3880L4784 3880C 5104 3880 5159 3878 5170 3865C 5188 3844 5217 3846 5230 3871C 5251 3909 5198 3939 5170 3905C 5159 3892 5104 3890 4784 3890L4784 3890L4410 3890L4410 3945L4410 4000L5098 4000L5785 4000L5844 4060L5903 4120L6086 4120C 6242 4120 6269 4118 6274 4104C 6277 4095 6289 4090 6302 4092C 6334 4096 6335 4154 6304 4158C 6293 4160 6277 4154 6270 4145C 6260 4133 6227 4130 6071 4130L6071 4130L5884 4130L5825 4070L5766 4010L5088 4010L4410 4010L4410 4065L4410 4120L4803 4120L5196 4120L5270 4195L5344 4270L5503 4270C 5631 4270 5665 4267 5685 4254C 5706 4241 5713 4240 5726 4250C 5748 4269 5740 4304 5711 4308C 5698 4310 5683 4307 5677 4301C 5670 4294 5608 4290 5506 4290L5506 4290L5346 4290L5265 4210L5183 4130L4799 4133L4415 4135L4412 4178L4409 4220L4746 4220C 5039 4220 5086 4218 5101 4204C 5125 4183 5163 4202 5158 4233C 5155 4258 5115 4269 5097 4251C 5089 4243 4978 4240 4748 4240L4748 4240L4410 4240L4410 4275L4410 4310L4597 4310L4785 4310L4913 4438L5040 4565L5466 4566L5892 4568L6019 4694C 6098 4773 6157 4824 6175 4829C 6197 4834 6205 4842 6205 4860C 6205 4891 6177 4908 6156 4891C 6147 4883 6140 4868 6140 4856C 6140 4842 6097 4791 6012 4707L6012 4707L5885 4580L5460 4580L5035 4580L4910 4455L4785 4330L4598 4330L4410 4330L4410 4365C 4410 4400 4410 4400 4365 4400L4365 4400L4320 4400L4320 4523L4320 4645L4498 4823L4675 5000L4901 5000L5127 5000L5356 5230C 5508 5383 5595 5463 5614 5468C 5652 5478 5668 5503 5651 5524C 5626 5554 5570 5531 5583 5497C 5586 5488 5496 5391 5351 5246L5351 5246L5114 5009L4890 5010L4667 5011L4483 4828L4300 4645L4300 4523L4300 4400L4250 4400L4200 4400L4200 4684C 4200 4863 4204 4971 4210 4975C 4224 4984 4222 5016 4206 5029C 4175 5055 4138 5010 4165 4980C 4178 4966 4180 4920 4180 4682L4180 4682L4180 4400L4135 4400L4090 4400L4090 4728L4090 5055L4135 5102L4180 5150L4180 5744C 4180 6274 4182 6339 4196 6344C 4206 6348 4210 6359 4208 6377C 4205 6401 4200 6405 4175 6405C 4150 6405 4145 6401 4142 6377C 4140 6359 4144 6348 4154 6344C 4168 6339 4170 6275 4170 5751L4170 5751L4170 5164L4125 5120L4080 5076L4078 4741L4075 4405L4028 4402L3980 4399L3980 4808C 3980 5166 3982 5219 3995 5230C 4004 5237 4010 5253 4008 5264C 4003 5296 3946 5294 3942 5262C 3940 5249 3945 5233 3954 5227C 3969 5216 3970 5171 3968 4810L3968 4810L3965 4405L3923 4402L3880 4399L3880 4877L3880 5356L3950 5425L4020 5494L4020 5805C 4020 6015 4024 6120 4031 6127C 4046 6142 4038 6184 4019 6188C 4010 6190 3995 6184 3986 6174C 3971 6159 3971 6156 3985 6134C 3998 6114 4000 6064 4000 5806L4000 5806L4000 5501L3930 5430L3860 5359L3860 4879L3860 4399L3813 4402L3765 4405L3762 4745L3760 5086L3700 5145L3640 5204L3640 5314C 3640 5403 3643 5427 3657 5442C 3677 5464 3664 5495 3635 5495C 3606 5495 3593 5464 3613 5442C 3627 5427 3630 5403 3630 5309L3630 5309L3630 5194L3690 5135L3750 5075L3748 4740L3745 4405L3698 4402L3650 4399L3650 4651C 3650 4875 3652 4906 3667 4922C 3680 4937 3682 4945 3674 4958C 3659 4981 3626 4985 3610 4966C 3600 4953 3601 4946 3614 4925C 3628 4904 3630 4864 3630 4650L3630 4650L3630 4400L3585 4400L3540 4400L3540 4983L3540 5565L3630 5655L3720 5745L3720 6164C 3720 6532 3722 6586 3736 6601C 3748 6615 3749 6623 3740 6639C 3728 6663 3698 6666 3680 6645zM3728 6622C 3730 6615 3722 6610 3711 6610C 3690 6610 3684 6621 3697 6634C 3706 6643 3723 6636 3728 6622zM4190 6375C 4190 6367 4183 6360 4175 6360C 4167 6360 4160 6367 4160 6375C 4160 6383 4167 6390 4175 6390C 4183 6390 4190 6383 4190 6375zM3186 6149C 3196 6132 3173 6113 3159 6127C 3147 6139 3155 6160 3170 6160C 3175 6160 3182 6155 3186 6149zM1690 5654C 1690 5646 1683 5640 1675 5640C 1660 5640 1654 5661 1666 5673C 1676 5682 1690 5671 1690 5654zM5633 5505C 5634 5500 5627 5494 5618 5492C 5607 5490 5600 5495 5600 5505C 5600 5522 5630 5523 5633 5505zM3200 5335C 3200 5327 3193 5320 3185 5320C 3177 5320 3170 5327 3170 5335C 3170 5343 3177 5350 3185 5350C 3193 5350 3200 5343 3200 5335zM3990 5254C 3990 5246 3983 5240 3975 5240C 3960 5240 3954 5261 3966 5273C 3976 5282 3990 5271 3990 5254zM3660 4951C 3660 4937 3642 4928 3630 4935C 3624 4939 3622 4946 3625 4951C 3633 4963 3660 4963 3660 4951zM1180 4865C 1180 4857 1173 4850 1165 4850C 1157 4850 1150 4857 1150 4865C 1150 4873 1157 4880 1165 4880C 1173 4880 1180 4873 1180 4865zM4372 4353C 4374 4344 4374 4031 4372 3658L4372 3658L4370 2980L3675 2980L2980 2980L2980 3668C 2980 4047 2983 4360 2987 4363C 2990 4367 3303 4370 3681 4370C 4316 4370 4369 4369 4372 4353zM1636 4279C 1646 4262 1623 4243 1609 4257C 1597 4269 1605 4290 1620 4290C 1625 4290 1632 4285 1636 4279zM5213 3885C 5214 3880 5207 3874 5198 3872C 5187 3870 5180 3875 5180 3885C 5180 3902 5210 3903 5213 3885zM6543 3885C 6544 3880 6537 3874 6528 3872C 6517 3870 6510 3875 6510 3885C 6510 3902 6540 3903 6543 3885zM845 3879C 855 3864 844 3856 825 3864C 816 3867 812 3874 815 3880C 823 3893 837 3893 845 3879zM2340 3770C 2340 3749 2325 3743 2315 3760C 2308 3772 2317 3790 2331 3790C 2336 3790 2340 3781 2340 3770zM5430 3555C 5430 3547 5423 3540 5415 3540C 5407 3540 5400 3547 5400 3555C 5400 3563 5407 3570 5415 3570C 5423 3570 5430 3563 5430 3555zM7038 3552C 7040 3545 7032 3540 7021 3540C 7000 3540 6994 3551 7007 3564C 7016 3573 7033 3566 7038 3552zM353 3545C 354 3540 347 3534 338 3532C 327 3530 320 3535 320 3545C 320 3562 350 3563 353 3545zM1960 3545C 1960 3537 1953 3530 1945 3530C 1937 3530 1930 3537 1930 3545C 1930 3553 1937 3560 1945 3560C 1953 3560 1960 3553 1960 3545zM6134 3311C 6137 3306 6133 3297 6126 3291C 6110 3278 6094 3293 6105 3310C 6113 3322 6127 3323 6134 3311zM6683 2945C 6684 2940 6677 2934 6668 2932C 6657 2930 6650 2935 6650 2945C 6650 2962 6680 2963 6683 2945zM4143 2325C 4144 2320 4137 2314 4128 2312C 4117 2310 4110 2315 4110 2325C 4110 2342 4140 2343 4143 2325zM6126 2229C 6134 2215 6115 2196 6101 2204C 6090 2211 6097 2240 6110 2240C 6115 2240 6122 2235 6126 2229zM1270 2221C 1270 2207 1252 2198 1240 2205C 1234 2209 1232 2216 1235 2221C 1243 2233 1270 2233 1270 2221zM3140 1995C 3140 1987 3134 1980 3126 1980C 3109 1980 3098 1994 3107 2004C 3119 2016 3140 2010 3140 1995zM3585 1860C 3596 1843 3580 1828 3564 1841C 3557 1847 3553 1856 3556 1861C 3563 1873 3577 1872 3585 1860zM2033 1823C 2042 1814 2020 1789 2009 1796C 1995 1804 1998 1830 2013 1830C 2021 1830 2030 1827 2033 1823zM3966 1169C 3976 1152 3953 1133 3939 1147C 3927 1159 3935 1180 3950 1180C 3955 1180 3962 1175 3966 1169zM3376 979C 3386 962 3363 943 3349 957C 3337 969 3345 990 3360 990C 3365 990 3372 985 3376 979z" stroke="none"  fill="#000000" fill-rule="nonzero" />
		<path  d="M3030 3670L3030 3020L3680 3020L4330 3020L4330 3670L4330 4320L3680 4320L3030 4320L3030 3670zM4298 3673L4300 3060L3680 3060L3060 3060L3060 3675L3060 4290L3678 4288L4295 4285L4298 3673z" stroke="none"  fill="#000000" fill-rule="nonzero" />
		<path  d="M2537 5994C 2525 5981 2529 5943 2545 5930C 2556 5921 2560 5895 2560 5826L2560 5826L2560 5735L2794 5501C 2937 5358 3026 5262 3023 5253C 3010 5219 3066 5196 3091 5226C 3108 5247 3093 5272 3056 5281C 3038 5286 2942 5375 2799 5517L2799 5517L2570 5745L2570 5836C 2570 5910 2573 5929 2586 5934C 2596 5938 2600 5949 2598 5967C 2596 5988 2589 5996 2570 5998C 2556 6000 2541 5998 2537 5994zM2580 5965C 2580 5957 2573 5950 2565 5950C 2557 5950 2550 5957 2550 5965C 2550 5973 2557 5980 2565 5980C 2573 5980 2580 5973 2580 5965zM3078 5248C 3075 5241 3067 5235 3060 5235C 3053 5235 3045 5241 3043 5248C 3040 5255 3047 5260 3060 5260C 3073 5260 3080 5255 3078 5248z" stroke="none"  fill="#000000" fill-rule="nonzero" />
		<path  d="M4507 5924C 4495 5912 4499 5883 4515 5870C 4528 5860 4530 5820 4530 5626L4530 5626L4530 5395L4427 5292C 4365 5230 4317 5190 4304 5190C 4262 5190 4244 5139 4279 5120C 4304 5107 4306 5107 4325 5126C 4333 5135 4338 5150 4335 5159C 4332 5170 4362 5207 4435 5280L4435 5280L4540 5385L4540 5621C 4540 5822 4542 5859 4555 5870C 4579 5890 4570 5924 4540 5928C 4526 5930 4511 5928 4507 5924zM4316 5159C 4326 5142 4303 5123 4289 5137C 4277 5149 4285 5170 4300 5170C 4305 5170 4312 5165 4316 5159z" stroke="none"  fill="#000000" fill-rule="nonzero" />
		<path  d="M2855 5809C 2851 5796 2854 5782 2864 5771C 2874 5760 2880 5735 2880 5704C 2880 5656 2882 5652 2945 5590C 2985 5551 3010 5517 3012 5501C 3014 5481 3021 5475 3039 5475C 3071 5475 3088 5503 3071 5524C 3063 5533 3048 5540 3037 5540C 3024 5540 2991 5564 2958 5597C 2902 5653 2900 5656 2900 5707C 2900 5736 2905 5769 2912 5779C 2928 5805 2915 5830 2886 5830C 2870 5830 2859 5823 2855 5809z" stroke="none"  fill="#000000" fill-rule="nonzero" />
		<path  d="M5547 5753C 5543 5750 5540 5737 5540 5726C 5540 5696 5019 5176 4989 5175C 4963 5175 4944 5149 4953 5126C 4958 5114 4969 5110 4987 5112C 5009 5114 5016 5121 5018 5141C 5022 5175 5540 5694 5571 5695C 5597 5695 5616 5721 5607 5744C 5601 5760 5560 5766 5547 5753z" stroke="none"  fill="#000000" fill-rule="nonzero" />
		<path  d="M4833 5738C 4829 5731 4827 5717 4829 5707C 4830 5695 4814 5671 4786 5644L4786 5644L4740 5600L4740 5519L4740 5437L4695 5394C 4670 5370 4642 5350 4631 5350C 4602 5350 4586 5325 4600 5301C 4606 5289 4615 5280 4620 5280C 4643 5280 4660 5294 4660 5314C 4660 5327 4680 5356 4710 5385L4710 5385L4760 5434L4760 5515L4760 5596L4803 5638C 4826 5661 4855 5680 4867 5680C 4893 5680 4907 5715 4890 5735C 4875 5753 4844 5754 4833 5738zM4880 5715C 4880 5707 4874 5700 4866 5700C 4849 5700 4838 5714 4847 5724C 4859 5736 4880 5730 4880 5715z" stroke="none"  fill="#000000" fill-rule="nonzero" />
		<path  d="M5263 5723C 5256 5721 5250 5706 5250 5691C 5250 5670 5202 5616 4991 5407L4991 5407L4733 5149L4635 5151L4538 5153L4447 5062C 4390 5006 4346 4970 4330 4968C 4311 4966 4305 4959 4305 4941C 4305 4909 4333 4892 4354 4909C 4363 4917 4370 4932 4370 4944C 4370 4957 4403 4998 4457 5052L4457 5052L4545 5140L4645 5140L4745 5140L5004 5399C 5147 5542 5267 5657 5272 5654C 5285 5645 5320 5670 5320 5688C 5320 5720 5294 5736 5263 5723zM5298 5693C 5294 5671 5276 5673 5272 5694C 5270 5704 5275 5710 5285 5710C 5295 5710 5300 5703 5298 5693z" stroke="none"  fill="#000000" fill-rule="nonzero" />
		<path  d="M1063 5424C 1055 5401 1071 5377 1102 5369C 1116 5365 1272 5217 1468 5021L1468 5021L1809 4680L2069 4680C 2290 4680 2329 4678 2334 4665C 2341 4646 2374 4646 2389 4664C 2398 4675 2399 4684 2390 4699C 2378 4723 2342 4727 2334 4705C 2329 4692 2291 4690 2076 4690L2076 4690L1825 4690L1479 5038C 1246 5271 1130 5394 1126 5413C 1121 5434 1114 5440 1094 5440C 1080 5440 1067 5433 1063 5424z" stroke="none"  fill="#000000" fill-rule="nonzero" />
		<path  d="M2396 5425C 2384 5393 2413 5364 2445 5376C 2453 5380 2460 5386 2460 5391C 2460 5396 2504 5400 2559 5400L2559 5400L2657 5400L2864 5194C 2977 5080 3070 4980 3070 4970C 3070 4931 3131 4916 3138 4953C 3142 4975 3123 5000 3102 5000C 3093 5000 2991 5095 2875 5210L2875 5210L2664 5420L2563 5420C 2506 5420 2458 5424 2455 5430C 2445 5445 2403 5442 2396 5425z" stroke="none"  fill="#000000" fill-rule="nonzero" />
		<path  d="M6217 5284C 6213 5280 6210 5266 6210 5252C 6210 5233 6159 5176 5997 5013L5997 5013L5784 4799L5285 4800L4787 4800L4641 4655C 4560 4575 4487 4510 4478 4510C 4457 4510 4438 4485 4442 4463C 4449 4427 4510 4441 4510 4479C 4510 4488 4574 4559 4653 4638L4653 4638L4795 4780L5290 4780L5785 4780L6004 4999C 6161 5156 6231 5220 6252 5224C 6277 5229 6281 5234 6278 5257C 6276 5278 6269 5286 6250 5288C 6236 5290 6221 5288 6217 5284zM6260 5254C 6260 5246 6253 5240 6245 5240C 6230 5240 6224 5261 6236 5273C 6246 5282 6260 5271 6260 5254z" stroke="none"  fill="#000000" fill-rule="nonzero" />
		<path  d="M5856 5175C 5845 5163 5813 5160 5708 5160L5708 5160L5575 5160L5450 5035L5325 4910L5121 4910C 4948 4910 4914 4912 4899 4926C 4873 4950 4838 4935 4842 4903C 4846 4866 4874 4851 4898 4873C 4914 4888 4942 4890 5121 4890L5121 4890L5325 4890L5450 5015L5575 5140L5712 5140C 5797 5140 5850 5136 5850 5130C 5850 5112 5899 5119 5910 5139C 5917 5154 5916 5162 5904 5174C 5885 5194 5875 5194 5856 5175zM4885 4902C 4885 4884 4865 4887 4862 4906C 4859 4916 4863 4921 4872 4918C 4879 4915 4885 4908 4885 4902z" stroke="none"  fill="#000000" fill-rule="nonzero" />
		<path  d="M2049 4984C 2040 4973 2039 4964 2047 4952C 2061 4929 2099 4924 2106 4944C 2111 4958 2141 4960 2329 4960L2329 4960L2545 4960L2728 4778C 2828 4678 2910 4589 2910 4580C 2910 4541 2961 4531 2974 4567C 2982 4586 2963 4610 2941 4610C 2932 4610 2844 4691 2745 4790L2745 4790L2565 4970L2339 4970C 2150 4970 2110 4972 2100 4985C 2084 5004 2066 5004 2049 4984z" stroke="none"  fill="#000000" fill-rule="nonzero" />
		<path  d="M1853 4854C 1850 4845 1851 4830 1857 4821C 1871 4799 1909 4795 1916 4814C 1921 4828 1955 4830 2184 4830L2184 4830L2445 4830L2630 4645C 2753 4522 2815 4453 2815 4439C 2815 4409 2843 4392 2865 4410C 2889 4430 2880 4464 2850 4468C 2832 4470 2768 4527 2640 4655L2640 4655L2456 4840L2189 4840C 1961 4840 1921 4842 1916 4855C 1909 4875 1861 4874 1853 4854zM1900 4834C 1900 4826 1893 4820 1885 4820C 1870 4820 1864 4841 1876 4853C 1886 4862 1900 4851 1900 4834z" stroke="none"  fill="#000000" fill-rule="nonzero" />
		<path  d="M5498 4702C 5488 4700 5480 4694 5480 4689C 5480 4684 5356 4680 5177 4680L5177 4680L4875 4680L4780 4585C 4719 4524 4678 4490 4664 4490C 4634 4490 4613 4463 4627 4442C 4642 4417 4677 4415 4689 4438C 4695 4449 4696 4460 4693 4464C 4689 4468 4728 4513 4780 4565L4780 4565L4875 4660L5177 4660C 5385 4660 5480 4657 5480 4649C 5480 4643 5492 4640 5508 4642C 5526 4644 5536 4651 5538 4666C 5542 4691 5522 4708 5498 4702zM4673 4455C 4674 4450 4667 4444 4658 4442C 4647 4440 4640 4445 4640 4455C 4640 4472 4670 4473 4673 4455z" stroke="none"  fill="#000000" fill-rule="nonzero" />
		<path  d="M5520 4465C 5510 4453 5475 4450 5321 4450L5321 4450L5134 4450L5095 4410C 5070 4385 5050 4372 5040 4375C 5031 4378 5015 4372 5006 4361C 4992 4346 4991 4337 5000 4321C 5020 4283 5070 4301 5070 4345C 5070 4357 5085 4380 5103 4398L5103 4398L5136 4430L5320 4430C 5479 4430 5506 4428 5522 4413C 5555 4383 5598 4431 5570 4465C 5554 4484 5536 4484 5520 4465zM5552 4428C 5537 4413 5526 4424 5534 4446C 5539 4459 5543 4461 5552 4452C 5561 4443 5561 4437 5552 4428zM5046 4349C 5056 4332 5033 4313 5019 4327C 5007 4339 5015 4360 5030 4360C 5035 4360 5042 4355 5046 4349z" stroke="none"  fill="#000000" fill-rule="nonzero" />
		<path  d="M6717 3776C 6711 3762 6672 3760 6407 3760L6407 3760L6104 3760L6065 3720L6026 3680L5682 3680C 5385 3680 5336 3682 5323 3696C 5314 3704 5298 3710 5286 3708C 5270 3706 5265 3698 5265 3675C 5265 3638 5287 3632 5335 3654C 5364 3668 5416 3670 5701 3670L5701 3670L6033 3669L6074 3709L6116 3750L6410 3750C 6673 3750 6705 3748 6722 3733C 6746 3711 6775 3727 6775 3761C 6775 3779 6769 3786 6749 3788C 6732 3790 6720 3785 6717 3776zM5310 3675C 5310 3667 5303 3660 5295 3660C 5287 3660 5280 3667 5280 3675C 5280 3683 5287 3690 5295 3690C 5303 3690 5310 3683 5310 3675z" stroke="none"  fill="#000000" fill-rule="nonzero" />
		<path  d="M584 3765C 569 3727 609 3697 639 3724C 654 3738 694 3740 951 3740L951 3740L1246 3740L1285 3700L1324 3660L1661 3660C 1951 3660 1999 3658 2004 3645C 2012 3622 2057 3626 2065 3650C 2077 3689 2035 3715 2010 3685C 1999 3672 1948 3670 1666 3670L1666 3670L1334 3670L1291 3714L1247 3759L946 3760C 760 3760 644 3764 642 3770C 636 3786 590 3782 584 3765z" stroke="none"  fill="#000000" fill-rule="nonzero" />
		<path  d="M861 3316C 842 3293 864 3260 898 3260C 919 3260 943 3243 995 3190L995 3190L1064 3120L1480 3120C 1824 3119 1898 3117 1914 3105C 1939 3086 1972 3103 1968 3132C 1963 3165 1935 3178 1912 3157C 1895 3142 1856 3140 1479 3140L1479 3140L1064 3140L997 3208C 960 3245 930 3282 930 3291C 930 3326 883 3343 861 3316zM910 3295C 910 3287 904 3280 896 3280C 879 3280 868 3294 877 3304C 889 3316 910 3310 910 3295zM1948 3133C 1944 3111 1926 3113 1922 3134C 1920 3144 1925 3150 1935 3150C 1945 3150 1950 3143 1948 3133z" stroke="none"  fill="#000000" fill-rule="nonzero" />
		<path  d="M5332 3158C 5300 3126 5340 3077 5376 3105C 5392 3117 5477 3119 5893 3120C 6218 3120 6390 3117 6390 3110C 6390 3093 6440 3099 6447 3116C 6454 3134 6441 3161 6423 3167C 6417 3169 6405 3164 6397 3155C 6383 3142 6320 3140 5887 3140C 5460 3140 5391 3142 5380 3155C 5365 3173 5348 3174 5332 3158zM5368 3133C 5364 3111 5346 3113 5342 3134C 5340 3144 5345 3150 5355 3150C 5365 3150 5370 3143 5368 3133z" stroke="none"  fill="#000000" fill-rule="nonzero" />
		<path  d="M5017 3046C 5006 3017 5036 2980 5059 2994C 5063 2997 5111 2954 5166 2899L5166 2899L5265 2800L5662 2800C 5916 2800 6061 2796 6065 2790C 6073 2777 6103 2777 6117 2791C 6132 2806 6122 2837 6099 2843C 6088 2846 6073 2842 6066 2834C 6054 2822 5983 2820 5658 2820L5658 2820L5265 2820L5173 2913C 5116 2970 5080 3014 5078 3030C 5076 3048 5068 3056 5049 3058C 5032 3060 5020 3055 5017 3046z" stroke="none"  fill="#000000" fill-rule="nonzero" />
		<path  d="M2692 2958C 2685 2951 2680 2937 2680 2927C 2680 2901 2440 2658 2421 2665C 2401 2673 2380 2651 2380 2624C 2380 2610 2388 2599 2400 2595C 2426 2587 2450 2606 2450 2634C 2450 2663 2686 2897 2719 2902C 2752 2906 2768 2933 2751 2954C 2735 2973 2709 2975 2692 2958zM2738 2938C 2735 2931 2727 2925 2720 2925C 2713 2925 2705 2931 2703 2938C 2700 2945 2707 2950 2720 2950C 2733 2950 2740 2945 2738 2938zM2430 2624C 2430 2610 2409 2605 2397 2617C 2388 2626 2410 2651 2421 2644C 2426 2641 2430 2632 2430 2624z" stroke="none"  fill="#000000" fill-rule="nonzero" />
		<path  d="M2872 2918C 2865 2911 2860 2897 2860 2885C 2860 2872 2798 2803 2682 2687L2682 2687L2505 2510L2220 2510L1935 2510L1805 2380C 1719 2294 1668 2250 1654 2250C 1618 2250 1612 2199 1646 2186C 1669 2177 1690 2190 1690 2214C 1690 2228 1733 2278 1818 2363L1818 2363L1945 2490L2225 2490L2505 2490L2690 2675C 2818 2803 2882 2860 2899 2862C 2931 2866 2940 2898 2914 2917C 2892 2933 2887 2933 2872 2918z" stroke="none"  fill="#000000" fill-rule="nonzero" />
		<path  d="M4450 2915C 4431 2893 4442 2865 4471 2862C 4485 2860 4514 2841 4536 2819L4536 2819L4574 2780L4685 2780L4795 2780L5053 2522C 5227 2348 5310 2258 5310 2244C 5310 2214 5337 2193 5358 2207C 5393 2228 5377 2287 5339 2277C 5328 2274 5244 2351 5064 2531L5064 2531L4805 2790L4695 2790L4584 2790L4547 2828C 4527 2849 4510 2873 4510 2882C 4510 2899 4485 2930 4471 2930C 4466 2930 4457 2923 4450 2915zM5360 2234C 5360 2226 5353 2220 5345 2220C 5330 2220 5324 2241 5336 2253C 5346 2262 5360 2251 5360 2234z" stroke="none"  fill="#000000" fill-rule="nonzero" />
		<path  d="M2902 2758C 2895 2751 2890 2737 2890 2725C 2890 2696 2554 2363 2520 2358C 2486 2354 2478 2305 2510 2295C 2536 2287 2560 2305 2560 2334C 2560 2364 2896 2697 2930 2702C 2961 2706 2969 2739 2944 2757C 2922 2773 2917 2773 2902 2758z" stroke="none"  fill="#000000" fill-rule="nonzero" />
		<path  d="M4326 2645C 4306 2625 4306 2616 4325 2600C 4337 2590 4340 2553 4340 2382L4340 2382L4340 2177L4505 2011L4670 1845L4670 1759C 4670 1694 4666 1669 4655 1660C 4634 1642 4636 1613 4660 1600C 4702 1577 4741 1630 4705 1660C 4694 1669 4690 1695 4690 1764L4690 1764L4690 1855L4525 2020L4360 2185L4360 2383C 4360 2523 4364 2586 4372 2600C 4395 2636 4356 2674 4326 2645zM4696 1639C 4706 1622 4683 1603 4669 1617C 4657 1629 4665 1650 4680 1650C 4685 1650 4692 1645 4696 1639z" stroke="none"  fill="#000000" fill-rule="nonzero" />
		<path  d="M4424 2576C 4413 2548 4425 2525 4450 2522C 4467 2520 4554 2440 4723 2272L4723 2272L4970 2025L4970 1910L4970 1794L5045 1720C 5086 1679 5120 1638 5120 1629C 5120 1607 5146 1586 5165 1594C 5204 1608 5192 1665 5150 1665C 5136 1665 5101 1692 5054 1740L5054 1740L4980 1814L4980 1925L4980 2036L4735 2280C 4536 2479 4490 2529 4488 2554C 4486 2579 4480 2586 4457 2588C 4440 2590 4428 2586 4424 2576zM4470 2555C 4470 2547 4463 2540 4455 2540C 4447 2540 4440 2547 4440 2555C 4440 2563 4447 2570 4455 2570C 4463 2570 4470 2563 4470 2555zM5165 1632C 5165 1614 5145 1617 5142 1636C 5139 1646 5143 1651 5152 1648C 5159 1645 5165 1638 5165 1632z" stroke="none"  fill="#000000" fill-rule="nonzero" />
		<path  d="M5209 2574C 5200 2563 5199 2554 5207 2542C 5221 2519 5254 2515 5270 2535C 5280 2547 5306 2550 5395 2550L5395 2550L5508 2550L5584 2473C 5626 2431 5660 2390 5660 2380C 5660 2337 5716 2325 5726 2366C 5733 2393 5719 2410 5690 2410C 5681 2410 5641 2444 5600 2485L5600 2485L5526 2560L5404 2560C 5308 2560 5280 2563 5270 2575C 5254 2595 5226 2594 5209 2574zM5260 2555C 5260 2547 5254 2540 5246 2540C 5229 2540 5218 2554 5227 2564C 5239 2576 5260 2570 5260 2555z" stroke="none"  fill="#000000" fill-rule="nonzero" />
		<path  d="M2992 2418C 2985 2411 2980 2399 2980 2390C 2980 2382 2868 2262 2730 2125L2730 2125L2480 1875L2480 1775L2480 1675L2387 1582C 2329 1524 2287 1490 2273 1490C 2254 1490 2240 1473 2240 1450C 2240 1445 2249 1436 2261 1430C 2286 1416 2310 1432 2310 1463C 2310 1475 2345 1518 2400 1572L2400 1572L2490 1661L2490 1758L2490 1856L2742 2108C 2880 2247 3001 2360 3011 2360C 3035 2360 3053 2386 3045 2410C 3038 2432 3011 2437 2992 2418z" stroke="none"  fill="#000000" fill-rule="nonzero" />
		<path  d="M4420 2415C 4402 2393 4412 2365 4441 2362C 4475 2358 4767 2065 4772 2030C 4774 2011 4781 2005 4799 2005C 4831 2005 4848 2033 4831 2054C 4823 2063 4808 2070 4796 2070C 4766 2070 4480 2357 4480 2387C 4480 2399 4471 2414 4461 2420C 4436 2433 4435 2433 4420 2415z" stroke="none"  fill="#000000" fill-rule="nonzero" />
		<path  d="M2997 2139C 2988 2133 2980 2119 2980 2107C 2980 2092 2952 2057 2900 2005L2900 2005L2820 1925L2820 1699C 2820 1510 2818 1470 2805 1460C 2784 1442 2786 1413 2811 1400C 2849 1379 2879 1431 2846 1459C 2834 1469 2831 1514 2830 1693L2830 1693L2829 1915L2912 1997C 2963 2047 3005 2080 3020 2082C 3037 2084 3046 2092 3048 2107C 3052 2134 3022 2153 2997 2139zM2840 1430C 2840 1419 2836 1410 2831 1410C 2817 1410 2808 1428 2815 1440C 2825 1457 2840 1451 2840 1430z" stroke="none"  fill="#000000" fill-rule="nonzero" />
		<path  d="M4321 1997C 4305 1976 4318 1951 4349 1944C 4381 1936 4540 1782 4540 1758C 4540 1729 4568 1708 4591 1721C 4620 1736 4612 1774 4579 1778C 4545 1782 4383 1945 4378 1980C 4374 2009 4340 2019 4321 1997z" stroke="none"  fill="#000000" fill-rule="nonzero" />
		<path  d="M4217 1673C 4205 1662 4209 1633 4225 1620C 4237 1610 4240 1582 4240 1492L4240 1492L4240 1376L4302 1313C 4339 1276 4365 1241 4365 1229C 4365 1200 4394 1182 4418 1196C 4451 1217 4442 1257 4402 1263C 4389 1265 4350 1295 4315 1330L4315 1330L4250 1394L4250 1499C 4250 1580 4254 1607 4266 1621C 4288 1645 4276 1680 4246 1680C 4234 1680 4220 1677 4217 1673zM4416 1239C 4426 1222 4403 1203 4389 1217C 4377 1229 4385 1250 4400 1250C 4405 1250 4412 1245 4416 1239z" stroke="none"  fill="#000000" fill-rule="nonzero" />
	</g>
</g>
</svg>
