<?xml version="1.0" standalone="no"?>
<!DOCTYPE svg PUBLIC "-//W3C//DTD SVG 1.0//EN" "http://www.w3.org/TR/2001/REC-SVG-20010904/DTD/svg10.dtd">
<svg xmlns="http://www.w3.org/2000/svg" xmlns:xlink="http://www.w3.org/1999/xlink" id="body_1" width="49" height="49">

<g transform="matrix(0.066576086 0 0 0.066576086 0 0)">
	<g transform="matrix(0.1 0 -0 -0.1 0 736)">
		<path  d="M1370 4565L1370 2520L1968 2520C 2296 2520 3025 2520 3586 2520L3586 2520L4608 2520L4665 2449C 4696 2410 4735 2371 4751 2361L4751 2361L4780 2343L4719 2299C 4685 2275 4652 2243 4644 2229C 4637 2215 4614 2123 4593 2026L4593 2026L4556 1850L4471 1781C 4423 1744 4354 1693 4315 1669C 4151 1568 4105 1524 4050 1417C 4021 1361 4011 1350 3990 1350C 3956 1350 3920 1324 3920 1299C 3920 1268 3903 1277 3897 1313C 3894 1330 3877 1465 3859 1612L3859 1612L3827 1880L3203 1880L2580 1880L2580 1857C 2580 1834 2605 1614 2616 1547L2616 1547L2622 1510L2541 1510L2460 1510L2460 1230L2460 950L2200 950L1940 950L1940 870L1940 790L1980 790L2020 790L2022 578L2024 365L2030 555L2035 745L3425 745L4815 745L4817 562C 4818 461 4821 376 4824 372C 4827 369 4830 462 4830 578L4830 578L4830 790L4870 790L4910 790L4910 870L4910 950L4854 950L4799 950L4802 983C 4805 1014 4806 1015 4844 1012C 4866 1010 4904 1000 4929 990L4929 990L4975 972L4978 691C 4979 515 4984 410 4990 410C 4996 410 5000 511 5000 685L5000 685L5000 960L5024 960C 5039 960 5050 953 5053 941C 5056 928 5076 916 5114 904L5114 904L5170 886L5172 816L5174 745L5177 812C 5179 850 5184 880 5187 880C 5190 880 5228 868 5271 854C 5337 832 5355 821 5385 785C 5441 716 5497 695 5705 666C 5906 637 6081 620 6182 620C 6246 620 6249 619 6254 593C 6257 577 6269 512 6281 448C 6292 383 6305 330 6309 330C 6313 330 6308 369 6298 418C 6289 466 6278 531 6274 562L6274 562L6267 619L6387 619C 6556 617 6589 640 6625 775C 6647 862 6644 921 6609 1029C 6583 1112 6485 1498 6382 1931C 6354 2051 6304 2182 6222 2350L6222 2350L6185 2425L6085 2475C 6030 2503 5961 2536 5933 2547L5933 2547L5880 2569L5880 4589L5880 6610L3625 6610L1370 6610L1370 4565zM1790 6390C 1790 6222 1793 6173 1805 6150C 1823 6115 1857 6090 1885 6090C 1900 6091 1897 6094 1873 6105C 1855 6113 1831 6134 1820 6152C 1801 6183 1800 6199 1802 6390L1802 6390L1805 6595L1913 6598L2021 6601L2018 6381L2015 6161L1986 6131C 1969 6114 1945 6099 1931 6099C 1908 6097 1907 6097 1927 6093C 1957 6087 1987 6105 2010 6143C 2028 6172 2030 6195 2030 6388L2030 6388L2030 6600L2055 6600L2080 6600L2080 6400C 2080 6181 2086 6150 2135 6112C 2172 6083 2238 6082 2274 6111C 2326 6152 2330 6172 2330 6395L2330 6395L2330 6600L2355 6600L2380 6600L2380 6390C 2380 6225 2383 6173 2394 6151C 2410 6121 2450 6090 2474 6090C 2483 6090 2486 6083 2483 6072C 2477 6049 2502 6028 2525 6036C 2536 6041 2540 6050 2537 6066C 2534 6082 2539 6091 2557 6099C 2569 6105 2589 6124 2600 6142C 2618 6172 2620 6193 2620 6388L2620 6388L2620 6600L2645 6600L2670 6600L2670 6395C 2670 6233 2673 6183 2685 6160C 2738 6058 2879 6069 2910 6178C 2915 6198 2920 6302 2920 6408L2920 6408L2920 6601L2943 6598C 2965 6595 2965 6594 2970 6372L2970 6372L2975 6148L3008 6119C 3050 6081 3111 6077 3158 6108C 3204 6138 3210 6173 3210 6395L3210 6395L3210 6600L3235 6600L3260 6600L3260 6394C 3260 6224 3263 6182 3276 6154C 3296 6112 3335 6090 3391 6090C 3424 6090 3438 6096 3466 6124C 3487 6145 3500 6169 3501 6187C 3502 6202 3503 6301 3504 6405L3504 6405L3505 6595L3528 6595L3551 6595L3551 6410C 3551 6308 3555 6207 3560 6185C 3578 6103 3668 6064 3741 6107C 3794 6139 3800 6167 3800 6394L3800 6394L3800 6600L3825 6600L3850 6600L3850 6390C 3850 6169 3856 6134 3897 6112C 3907 6106 3914 6089 3914 6069C 3915 6042 3919 6035 3935 6035C 3949 6035 3956 6043 3958 6063C 3961 6085 3966 6090 3991 6090C 4009 6090 4032 6101 4052 6119L4052 6119L4085 6148L4090 6372C 4095 6594 4095 6595 4118 6598L4118 6598L4140 6601L4140 6408C 4140 6302 4145 6198 4150 6178C 4161 6139 4210 6090 4238 6090C 4247 6091 4241 6097 4223 6105C 4166 6130 4160 6155 4160 6390L4160 6390L4160 6601L4266 6598L4372 6595L4372 6381C 4371 6141 4368 6127 4299 6103C 4272 6094 4270 6091 4288 6091C 4300 6090 4327 6105 4348 6124L4348 6124L4385 6158L4388 6379L4391 6600L4701 6600L5010 6600L5010 6315L5010 6030L4975 6030L4940 6030L4940 5850L4940 5670L4975 5670L5009 5670L5012 5603L5015 5535L5378 5535L5740 5535L5740 4988L5740 4440L5565 4440C 5433 4440 5390 4437 5388 4428C 5384 4396 5384 3913 5388 3898C 5392 3882 5409 3880 5561 3880L5561 3880L5730 3880L5730 3460L5730 3040L5570 3040L5410 3040L5410 2950C 5410 2901 5406 2860 5402 2860C 5398 2860 5376 2879 5353 2903L5353 2903L5312 2945L5306 3058L5300 3170L5450 3170L5600 3170L5600 3465L5600 3760L5430 3760L5260 3760L5260 4165L5260 4570L5438 4572L5615 4575L5615 4780L5615 4985L5313 4988L5010 4990L5010 4309L5010 3628L4988 3635C 4884 3667 4851 3670 4783 3656C 4716 3642 4715 3642 4689 3666C 4665 3689 4660 3690 4493 3690L4493 3690L4322 3690L4318 3863C 4315 4015 4312 4040 4293 4075C 4246 4163 4178 4205 4064 4215C 3975 4223 3930 4245 3930 4281C 3930 4304 3935 4308 3968 4314C 3988 4317 4043 4320 4090 4320C 4182 4320 4220 4305 4220 4270C 4220 4246 4256 4221 4281 4227C 4296 4231 4300 4227 4300 4206L4300 4206L4300 4180L4390 4180L4480 4180L4480 4230L4480 4280L4411 4280C 4337 4280 4328 4274 4337 4227C 4341 4207 4338 4200 4327 4200C 4314 4200 4312 4209 4314 4238C 4319 4288 4297 4322 4262 4319C 4247 4317 4224 4323 4210 4333C 4191 4346 4164 4350 4083 4350C 4026 4350 3978 4354 3975 4360C 3972 4366 3960 4370 3949 4370C 3934 4370 3930 4377 3930 4404C 3930 4434 3934 4438 3961 4444C 3978 4447 4038 4450 4094 4450C 4193 4450 4196 4449 4248 4415C 4276 4395 4300 4373 4300 4365C 4300 4352 4334 4350 4530 4350L4530 4350L4759 4350L4810 4402C 4866 4459 4880 4496 4880 4586C 4880 4632 4884 4649 4895 4654C 4914 4661 4914 4699 4895 4706C 4882 4711 4880 4744 4880 4911C 4880 5079 4882 5112 4895 5116C 4914 5124 4914 5159 4895 5166C 4882 5171 4880 5203 4880 5371C 4880 5518 4883 5571 4893 5577C 4902 5583 4904 5632 4902 5778L4902 5778L4898 5971L4842 5968L4785 5965L4789 5336C 4792 4862 4790 4709 4782 4714C 4775 4718 4770 4728 4770 4735C 4770 4756 4728 4764 4662 4755C 4609 4748 4574 4748 4380 4753C 4316 4755 4305 4753 4302 4738C 4300 4728 4275 4697 4247 4670L4247 4670L4195 4619L4068 4622C 3942 4625 3909 4633 3943 4651C 3952 4657 3960 4669 3960 4679C 3960 4710 3983 4719 4074 4722L4074 4722L4162 4725L4241 4865C 4318 5004 4319 5006 4320 5078C 4320 5144 4322 5150 4340 5150C 4360 5150 4361 5155 4358 5238L4358 5238L4355 5325L4308 5328L4260 5331L4260 5241C 4260 5166 4263 5150 4275 5150C 4288 5150 4290 5137 4288 5078L4288 5078L4285 5005L4133 5002C 4033 5000 3980 5003 3980 5010C 3980 5015 3969 5020 3955 5020C 3933 5020 3930 5024 3930 5055C 3930 5082 3934 5090 3948 5090C 3958 5090 3970 5094 3976 5099C 3981 5105 4008 5110 4035 5112L4035 5112L4085 5115L4088 5343C 4090 5536 4093 5570 4105 5570C 4117 5570 4120 5587 4120 5660L4120 5660L4120 5750L4070 5750L4020 5750L4020 5664C 4020 5587 4022 5578 4040 5573C 4059 5568 4060 5559 4060 5354L4060 5354L4060 5140L4024 5140C 3968 5140 3930 5167 3930 5207C 3930 5239 3929 5240 3886 5240L3886 5240L3843 5240L3836 5291C 3830 5337 3831 5344 3851 5358C 3867 5369 3871 5380 3867 5404C 3864 5426 3868 5443 3881 5459C 3893 5474 3900 5498 3900 5525C 3900 5565 3902 5569 3927 5572C 3959 5576 3971 5607 3947 5625C 3937 5632 3930 5656 3928 5691L3928 5691L3925 5745L3878 5748L3830 5751L3830 5661C 3830 5577 3831 5570 3850 5570C 3867 5570 3870 5563 3870 5531C 3870 5489 3849 5456 3810 5437C 3781 5422 3773 5387 3791 5353C 3801 5334 3801 5325 3792 5310C 3785 5299 3780 5279 3780 5265C 3780 5243 3776 5240 3745 5240C 3713 5240 3710 5242 3710 5269C 3710 5286 3706 5302 3700 5305C 3694 5309 3690 5400 3690 5547C 3690 5763 3692 5784 3709 5806C 3720 5820 3726 5839 3723 5850C 3712 5893 3648 5900 3635 5859C 3628 5837 3637 5800 3651 5800C 3661 5800 3664 5360 3654 5286C 3647 5239 3647 5239 3612 5242C 3567 5246 3569 5239 3563 5506C 3560 5678 3561 5709 3575 5720C 3594 5736 3595 5774 3576 5789C 3553 5808 3508 5798 3499 5773C 3493 5758 3497 5744 3511 5727C 3528 5704 3530 5685 3530 5517C 3530 5416 3527 5312 3524 5286C 3518 5242 3516 5240 3484 5240C 3464 5240 3450 5245 3449 5253C 3449 5259 3446 5274 3443 5285C 3439 5296 3435 5367 3433 5443C 3429 5576 3430 5581 3448 5576C 3471 5568 3495 5593 3486 5616C 3482 5627 3472 5631 3455 5628C 3430 5623 3430 5623 3430 5702C 3430 5757 3435 5788 3446 5805C 3478 5853 3439 5906 3390 5880C 3366 5867 3362 5812 3385 5804C 3398 5799 3400 5762 3399 5551C 3398 5416 3395 5292 3391 5275C 3386 5249 3381 5245 3350 5245C 3319 5245 3314 5249 3309 5275C 3305 5292 3302 5394 3301 5502C 3300 5672 3302 5702 3318 5729C 3340 5768 3326 5794 3282 5798C 3259 5800 3248 5796 3240 5779C 3230 5761 3232 5753 3249 5729C 3269 5703 3270 5688 3270 5517C 3270 5416 3267 5312 3264 5286C 3257 5239 3257 5239 3221 5242C 3173 5246 3173 5251 3171 5541C 3170 5740 3172 5780 3185 5790C 3206 5807 3204 5833 3181 5854C 3158 5875 3125 5868 3109 5838C 3100 5822 3102 5812 3119 5789C 3139 5762 3140 5749 3139 5543C 3139 5423 3136 5307 3132 5285C 3125 5247 3123 5245 3090 5245C 3056 5245 3055 5246 3047 5295C 3041 5329 3043 5351 3051 5367C 3067 5396 3049 5440 3021 5440C 2999 5440 2969 5481 2968 5513C 2966 5560 2970 5570 2991 5570C 3010 5570 3011 5575 3009 5648C 3008 5690 3005 5731 3002 5738C 3000 5745 2980 5750 2954 5750C 2905 5750 2908 5757 2907 5636C 2906 5592 2910 5576 2923 5568C 2935 5562 2940 5546 2940 5519C 2940 5497 2947 5468 2956 5455C 2965 5441 2970 5420 2967 5408C 2960 5381 2976 5350 2996 5350C 3010 5350 3011 5342 3005 5303C 2997 5245 2991 5238 2954 5242C 2927 5245 2924 5249 2915 5302C 2907 5345 2893 5375 2858 5423C 2819 5476 2810 5496 2810 5529C 2810 5557 2814 5570 2824 5570C 2843 5570 2850 5593 2850 5660C 2850 5743 2846 5750 2794 5750C 2751 5750 2750 5749 2748 5718C 2743 5615 2748 5570 2765 5570C 2776 5570 2780 5558 2780 5524C 2780 5484 2787 5468 2830 5410C 2880 5343 2881 5341 2873 5293L2873 5293L2865 5245L2818 5242L2771 5239L2773 5197C 2775 5158 2773 5155 2747 5152C 2723 5149 2719 5145 2722 5122C 2724 5103 2732 5094 2750 5090C 2770 5086 2775 5079 2775 5055C 2774 5030 2770 5024 2747 5022C 2723 5019 2719 5015 2722 4992C 2724 4973 2732 4964 2748 4962C 2766 4959 2770 4952 2770 4924C 2770 4894 2767 4890 2744 4890C 2722 4890 2719 4886 2722 4863C 2724 4844 2732 4834 2749 4830C 2774 4824 2785 4795 2771 4772C 2766 4763 2733 4756 2683 4753L2683 4753L2604 4747L2547 4822L2490 4896L2490 5002C 2490 5107 2490 5108 2516 5114C 2549 5123 2547 5163 2513 5168C 2490 5171 2490 5172 2490 5370C 2490 5568 2490 5569 2513 5572C 2529 5574 2535 5582 2535 5600C 2535 5618 2529 5626 2513 5628C 2491 5631 2490 5636 2490 5708C 2490 5773 2493 5788 2510 5803C 2537 5826 2535 5856 2506 5875C 2461 5905 2415 5859 2445 5814C 2458 5794 2460 5727 2460 5339L2460 5339L2460 4887L2523 4803L2585 4720L2653 4720C 2691 4720 2720 4716 2720 4710C 2720 4705 2731 4700 2745 4700C 2767 4700 2770 4696 2770 4666C 2770 4632 2769 4631 2718 4625C 2598 4611 2443 4633 2520 4653C 2536 4657 2541 4665 2538 4682C 2534 4713 2491 4720 2483 4691C 2478 4672 2474 4675 2444 4714L2444 4714L2410 4759L2410 5208C 2410 5595 2412 5659 2425 5670C 2449 5690 2444 5739 2418 5749C 2393 5758 2369 5753 2358 5736C 2345 5718 2349 5683 2365 5670C 2378 5659 2380 5595 2380 5203L2380 5203L2380 4748L2441 4669L2502 4590L2611 4590C 2677 4590 2720 4586 2720 4580C 2720 4575 2733 4570 2748 4570C 2773 4570 2776 4567 2775 4535C 2775 4504 2772 4500 2748 4500C 2732 4500 2720 4496 2720 4490C 2720 4484 2667 4480 2581 4480L2581 4480L2441 4480L2386 4552L2330 4623L2330 5075C 2330 5465 2332 5529 2345 5540C 2379 5568 2353 5625 2309 5618C 2273 5613 2262 5585 2283 5549C 2298 5521 2300 5479 2300 5068L2300 5068L2300 4617L2358 4539L2415 4461L2553 4460C 2687 4460 2769 4447 2771 4425C 2778 4372 2779 4373 2732 4366C 2707 4363 2628 4360 2555 4360L2555 4360L2422 4360L2361 4278L2300 4196L2300 4043C 2300 3919 2297 3885 2284 3865C 2253 3817 2286 3772 2338 3791C 2364 3801 2369 3850 2345 3870C 2333 3880 2330 3912 2330 4034L2330 4034L2330 4186L2383 4258L2435 4329L2578 4330C 2659 4330 2720 4326 2720 4321C 2720 4316 2732 4310 2748 4308C 2772 4305 2775 4301 2772 4275C 2770 4259 2766 4243 2764 4241C 2762 4239 2720 4235 2671 4232L2671 4232L2581 4227L2531 4170L2481 4113L2479 4034C 2477 3973 2472 3949 2457 3928C 2438 3902 2438 3900 2454 3876C 2473 3847 2501 3843 2524 3866C 2545 3886 2544 3913 2522 3933C 2508 3946 2505 3963 2506 4026C 2508 4097 2510 4104 2542 4138C 2560 4158 2580 4180 2587 4187C 2600 4202 2720 4205 2720 4191C 2720 4186 2732 4180 2747 4178C 2772 4175 2775 4171 2775 4135C 2775 4095 2775 4095 2818 4092C 2853 4089 2863 4084 2870 4064C 2886 4023 2882 3914 2865 3900C 2857 3893 2850 3875 2850 3860C 2850 3845 2857 3827 2865 3820C 2874 3813 2880 3791 2880 3769C 2880 3741 2876 3730 2865 3730C 2853 3730 2850 3713 2850 3640L2850 3640L2850 3550L2900 3550L2950 3550L2950 3636C 2950 3713 2948 3722 2930 3727C 2914 3731 2910 3741 2910 3775C 2910 3801 2916 3822 2925 3830C 2944 3846 2944 3871 2925 3896C 2908 3918 2905 4025 2920 4064C 2927 4084 2936 4090 2960 4090C 3003 4090 3010 4064 3010 3910C 3010 3787 3009 3782 2990 3787C 2961 3795 2954 3765 2976 3724C 2997 3686 3032 3671 3055 3690C 3074 3706 3074 3756 3055 3764C 3043 3768 3040 3794 3040 3904C 3040 4067 3047 4090 3094 4090C 3124 4090 3128 4086 3134 4059C 3137 4042 3140 3929 3140 3808C 3140 3601 3139 3588 3119 3561C 3091 3523 3106 3490 3151 3490C 3192 3490 3210 3528 3186 3564C 3172 3586 3170 3622 3170 3814C 3170 3938 3174 4050 3180 4064C 3188 4085 3196 4090 3224 4090C 3254 4090 3258 4086 3264 4059C 3267 4042 3270 3943 3270 3839C 3270 3662 3269 3649 3249 3629C 3215 3595 3240 3547 3290 3552C 3324 3556 3341 3602 3317 3628C 3302 3644 3300 3673 3300 3843C 3300 3950 3304 4050 3310 4064C 3317 4084 3326 4090 3350 4090C 3374 4090 3383 4084 3390 4064C 3396 4050 3400 3932 3400 3801C 3400 3601 3398 3560 3385 3550C 3353 3524 3373 3470 3415 3470C 3457 3470 3477 3524 3445 3550C 3434 3559 3430 3585 3430 3652C 3430 3735 3431 3741 3449 3735C 3471 3728 3495 3753 3486 3776C 3482 3787 3472 3791 3455 3788L3455 3788L3430 3783L3430 3911C 3430 4067 3437 4090 3484 4090C 3514 4090 3518 4086 3524 4059C 3527 4042 3530 3941 3530 3834C 3530 3684 3527 3639 3517 3633C 3480 3611 3500 3550 3544 3550C 3587 3550 3607 3603 3575 3630C 3563 3640 3560 3677 3560 3841C 3560 3950 3564 4050 3570 4064C 3578 4085 3586 4090 3614 4090C 3644 4090 3648 4086 3654 4059C 3657 4042 3660 3923 3660 3795C 3660 3600 3658 3560 3645 3550C 3608 3519 3648 3452 3693 3469C 3725 3481 3732 3514 3709 3543C 3691 3566 3690 3586 3690 3802C 3690 4068 3694 4090 3748 4090C 3773 4090 3780 4086 3780 4070C 3780 4059 3785 4050 3790 4050C 3805 4050 3802 4025 3783 3992C 3756 3945 3782 3911 3835 3924C 3865 3932 3870 3973 3844 4001C 3832 4014 3829 4029 3834 4055C 3841 4089 3842 4090 3885 4090L3885 4090L3930 4090L3930 4134L3930 4178L3990 4185C 4099 4198 4184 4170 4238 4104C 4281 4052 4290 4003 4290 3821L4290 3821L4290 3660L4474 3660C 4619 3660 4660 3657 4669 3646C 4679 3634 4666 3631 4586 3628C 4497 3625 4489 3623 4461 3596C 4444 3579 4430 3561 4430 3554C 4430 3548 4406 3531 4378 3516C 4282 3469 4208 3329 4206 3192C 4205 3126 4207 3116 4229 3099C 4242 3089 4270 3077 4291 3074C 4317 3070 4331 3061 4336 3048C 4344 3021 4341 3020 4295 3032C 4237 3048 4184 3021 4159 2966C 4143 2931 4140 2898 4140 2727L4140 2727L4140 2529L4118 2532C 4095 2535 4095 2536 4090 2750C 4086 2936 4082 2970 4067 2993C 4022 3061 3910 3054 3866 2980C 3853 2956 3850 2918 3850 2741L3850 2741L3850 2530L3826 2530L3801 2530L3798 2751L3795 2972L3756 3007C 3721 3040 3714 3042 3668 3038C 3608 3032 3573 3002 3559 2944C 3554 2923 3550 2826 3550 2730C 3551 2634 3551 2549 3550 2543C 3550 2525 3513 2527 3507 2544C 3504 2551 3502 2647 3502 2756C 3503 2974 3500 2988 3447 3020C 3396 3051 3347 3046 3302 3006L3302 3006L3265 2972L3262 2751L3259 2530L3234 2530L3210 2530L3210 2738C 3210 2928 3208 2948 3190 2978C 3165 3018 3109 3044 3064 3035C 3044 3032 3019 3015 3001 2994C 2966 2955 2968 2971 2966 2700C 2965 2537 2965 2535 2943 2532L2943 2532L2920 2529L2920 2730C 2920 2942 2914 2976 2871 3014C 2859 3025 2830 3035 2803 3037C 2764 3041 2750 3038 2726 3019C 2676 2979 2670 2950 2670 2730L2670 2730L2670 2530L2645 2530L2620 2530L2620 2740C 2620 2972 2615 2997 2560 3025C 2500 3056 2423 3035 2395 2980C 2383 2957 2380 2909 2380 2740L2380 2740L2380 2530L2355 2530L2330 2530L2330 2730C 2330 2942 2324 2976 2281 3014C 2269 3025 2240 3035 2213 3037C 2174 3041 2160 3038 2136 3019C 2086 2979 2080 2950 2080 2730L2080 2730L2080 2529L2058 2532C 2036 2535 2035 2538 2032 2673C 2030 2786 2032 2810 2044 2810C 2051 2810 2060 2817 2064 2825C 2072 2846 2061 2870 2044 2870C 2034 2870 2030 2883 2030 2916C 2030 2955 2025 2967 1997 2995C 1940 3052 1886 3053 1827 3001L1827 3001L1795 2972L1792 2751L1789 2530L1589 2530L1390 2530L1390 2988C 1390 3470 1390 6552 1390 6583C 1390 6599 1406 6600 1590 6600L1590 6600L1790 6600L1790 6390zM2313 6588C 2311 6583 2310 6487 2310 6374L2310 6374L2310 6168L2276 6134C 2250 6108 2234 6100 2205 6100C 2176 6100 2160 6108 2134 6134L2134 6134L2100 6168L2100 6384L2100 6601L2208 6598C 2267 6596 2314 6592 2313 6588zM2610 6393C 2610 6203 2608 6182 2590 6152C 2559 6101 2493 6085 2444 6116C 2395 6149 2390 6173 2390 6388C 2390 6497 2393 6590 2397 6593C 2400 6597 2450 6600 2507 6600L2507 6600L2610 6600L2610 6393zM2900 6384L2900 6168L2866 6134C 2817 6085 2754 6089 2708 6144C 2693 6163 2691 6190 2690 6383L2690 6383L2690 6600L2795 6600L2900 6600L2900 6384zM3198 6398C 3201 6182 3194 6146 3146 6115C 3132 6106 3104 6098 3083 6098C 3053 6098 3039 6105 3013 6134L3013 6134L2980 6170L2980 6385L2980 6601L3088 6598L3195 6595L3198 6398zM3488 6379L3485 6158L3452 6129C 3417 6098 3379 6092 3336 6112C 3285 6135 3281 6152 3280 6367C 3280 6476 3279 6573 3280 6583C 3280 6598 3292 6600 3386 6600L3386 6600L3491 6600L3488 6379zM3785 6389C 3785 6164 3780 6141 3728 6114C 3681 6090 3642 6096 3604 6134L3604 6134L3570 6168L3570 6384L3570 6601L3678 6598L3785 6595L3785 6389zM4078 6380L4075 6160L4049 6134C 3991 6077 3892 6101 3871 6177C 3859 6218 3856 6582 3867 6593C 3870 6597 3920 6600 3977 6600L3977 6600L4081 6600L4078 6380zM5855 6588C 5858 6581 5859 5677 5858 4579L5858 4579L5855 2582L5793 2607C 5758 2621 5730 2637 5730 2644C 5729 2656 5557 2790 5541 2790C 5536 2790 5527 2782 5521 2773C 5512 2757 5507 2759 5471 2795L5471 2795L5430 2834L5430 2932L5430 3030L5585 3030L5740 3030L5740 3465L5740 3900L5570 3900L5400 3900L5402 4163L5405 4425L5583 4428L5760 4430L5760 4990L5760 5550L5395 5550L5030 5550L5030 5609C 5030 5646 5034 5670 5042 5672C 5059 5678 5060 6021 5043 6027C 5033 6031 5030 6098 5030 6316L5030 6316L5030 6600L5440 6600C 5759 6600 5852 6597 5855 6588zM5038 5844L5035 5685L4993 5682L4950 5679L4950 5844L4950 6009L4988 6012C 5008 6014 5028 6013 5033 6009C 5037 6006 5039 5932 5038 5844zM4888 5788L4885 5625L4843 5622L4800 5619L4800 5784L4800 5950L4845 5950L4890 5950L4888 5788zM2490 5840C 2490 5835 2486 5830 2480 5830C 2475 5830 2470 5835 2470 5840C 2470 5846 2475 5850 2480 5850C 2486 5850 2490 5846 2490 5840zM3430 5840C 3430 5835 3423 5830 3415 5830C 3407 5830 3400 5835 3400 5840C 3400 5846 3407 5850 3415 5850C 3423 5850 3430 5846 3430 5840zM3690 5840C 3690 5835 3683 5830 3674 5830C 3666 5830 3662 5835 3665 5840C 3668 5846 3675 5850 3681 5850C 3686 5850 3690 5846 3690 5840zM3160 5820C 3160 5815 3156 5810 3150 5810C 3145 5810 3140 5815 3140 5820C 3140 5826 3145 5830 3150 5830C 3156 5830 3160 5826 3160 5820zM3290 5754C 3290 5746 3286 5742 3280 5745C 3275 5748 3270 5755 3270 5761C 3270 5766 3275 5770 3280 5770C 3286 5770 3290 5763 3290 5754zM3551 5757C 3550 5745 3536 5748 3532 5761C 3529 5767 3533 5771 3540 5769C 3546 5766 3551 5761 3551 5757zM2830 5720C 2830 5715 2814 5710 2795 5710C 2776 5710 2760 5715 2760 5720C 2760 5726 2776 5730 2795 5730C 2814 5730 2830 5726 2830 5720zM2990 5720C 2990 5715 2974 5710 2955 5710C 2936 5710 2920 5715 2920 5720C 2920 5726 2936 5730 2955 5730C 2974 5730 2990 5726 2990 5720zM3915 5720C 3912 5715 3896 5710 3880 5710C 3864 5710 3848 5715 3845 5720C 3841 5726 3855 5730 3880 5730C 3905 5730 3919 5726 3915 5720zM4110 5720C 4110 5715 4094 5710 4075 5710C 4056 5710 4040 5715 4040 5720C 4040 5726 4056 5730 4075 5730C 4094 5730 4110 5726 4110 5720zM2410 5710C 2410 5705 2403 5700 2394 5700C 2386 5700 2382 5705 2385 5710C 2388 5716 2395 5720 2401 5720C 2406 5720 2410 5716 2410 5710zM2830 5660C 2830 5621 2829 5620 2795 5620C 2761 5620 2760 5621 2760 5660C 2760 5699 2761 5700 2795 5700C 2829 5700 2830 5699 2830 5660zM2990 5660C 2990 5621 2989 5620 2955 5620C 2921 5620 2920 5621 2920 5660C 2920 5699 2921 5700 2955 5700C 2989 5700 2990 5699 2990 5660zM3915 5660C 3915 5627 3913 5625 3878 5622L3878 5622L3840 5619L3840 5660L3840 5701L3878 5698C 3913 5695 3915 5693 3915 5660zM4110 5660C 4110 5621 4109 5620 4075 5620C 4041 5620 4040 5621 4040 5660C 4040 5699 4041 5700 4075 5700C 4109 5700 4110 5699 4110 5660zM2823 5595C 2824 5590 2810 5584 2793 5582C 2762 5579 2751 5588 2767 5604C 2777 5614 2820 5607 2823 5595zM2988 5593C 2990 5584 2981 5580 2961 5580C 2931 5580 2915 5591 2927 5604C 2938 5615 2983 5606 2988 5593zM3915 5595C 3915 5583 3875 5576 3854 5584C 3845 5587 3842 5595 3845 5600C 3853 5614 3915 5609 3915 5595zM4103 5595C 4099 5580 4047 5583 4042 5598C 4039 5608 4047 5611 4071 5608C 4090 5606 4104 5601 4103 5595zM2330 5582C 2330 5569 2318 5560 2308 5566C 2298 5572 2307 5590 2321 5590C 2326 5590 2330 5586 2330 5582zM3016 5383C 3006 5373 2997 5388 3006 5401C 3012 5412 3014 5412 3018 5401C 3020 5394 3019 5386 3016 5383zM3831 5387C 3818 5374 3805 5384 3815 5399C 3818 5405 3826 5407 3832 5404C 3838 5400 3838 5394 3831 5387zM4340 5300C 4340 5295 4324 5290 4305 5290C 4286 5290 4270 5295 4270 5300C 4270 5306 4286 5310 4305 5310C 4324 5310 4340 5306 4340 5300zM2910 5265C 2910 5249 2904 5240 2895 5240C 2886 5240 2880 5249 2880 5265C 2880 5281 2886 5290 2895 5290C 2904 5290 2910 5281 2910 5265zM3040 5265C 3040 5249 3034 5240 3025 5240C 3016 5240 3010 5249 3010 5265C 3010 5281 3016 5290 3025 5290C 3034 5290 3040 5281 3040 5265zM3170 5265C 3170 5249 3164 5240 3155 5240C 3146 5240 3140 5249 3140 5265C 3140 5281 3146 5290 3155 5290C 3164 5290 3170 5281 3170 5265zM3300 5265C 3300 5249 3294 5240 3285 5240C 3276 5240 3270 5249 3270 5265C 3270 5281 3276 5290 3285 5290C 3294 5290 3300 5281 3300 5265zM3430 5265C 3430 5249 3424 5240 3415 5240C 3406 5240 3400 5249 3400 5265C 3400 5281 3406 5290 3415 5290C 3424 5290 3430 5281 3430 5265zM3560 5265C 3560 5249 3554 5240 3545 5240C 3536 5240 3530 5249 3530 5265C 3530 5281 3536 5290 3545 5290C 3554 5290 3560 5281 3560 5265zM3690 5264C 3690 5233 3667 5236 3662 5268C 3660 5283 3664 5290 3674 5290C 3685 5290 3690 5281 3690 5264zM3820 5264C 3820 5248 3815 5240 3808 5243C 3788 5249 3790 5290 3811 5290C 3816 5290 3820 5278 3820 5264zM4340 5240C 4340 5201 4339 5200 4305 5200C 4271 5200 4270 5201 4270 5240C 4270 5279 4271 5280 4305 5280C 4339 5280 4340 5279 4340 5240zM4340 5175C 4340 5159 4285 5153 4276 5169C 4268 5182 4281 5190 4312 5190C 4330 5190 4340 5185 4340 5175zM2778 5123C 2780 5115 2773 5110 2761 5110C 2740 5110 2726 5123 2737 5134C 2747 5144 2773 5137 2778 5123zM3963 5125C 3964 5120 3957 5114 3948 5112C 3937 5110 3930 5115 3930 5125C 3930 5142 3960 5143 3963 5125zM2778 4993C 2780 4985 2773 4980 2761 4980C 2749 4980 2740 4986 2740 4996C 2740 5014 2771 5011 2778 4993zM3968 4992C 3972 4978 3934 4976 3926 4989C 3920 4999 3939 5010 3954 5006C 3960 5005 3966 4998 3968 4992zM4260 4962C 4260 4958 4249 4938 4235 4917L4235 4917L4209 4880L4107 4880C 4051 4880 3988 4883 3968 4886C 3933 4892 3930 4895 3930 4926C 3930 4952 3935 4959 3953 4963C 3993 4971 4260 4970 4260 4962zM5600 4775L5600 4579L5438 4580C 5348 4580 5267 4581 5258 4580C 5241 4580 5240 4553 5240 4160L5240 4160L5240 3740L5415 3740L5590 3740L5590 3466L5590 3191L5461 3188C 5391 3186 5326 3186 5317 3188C 5306 3190 5299 3215 5290 3277C 5283 3325 5271 3379 5263 3398C 5243 3447 5156 3535 5088 3577L5088 3577L5030 3613L5030 4291L5030 4970L5315 4970L5600 4970L5600 4775zM2778 4863C 2780 4855 2772 4850 2756 4850C 2731 4850 2723 4860 2737 4874C 2747 4884 2773 4877 2778 4863zM3964 4865C 3968 4854 3963 4850 3945 4850C 3927 4850 3922 4854 3926 4865C 3930 4873 3938 4880 3945 4880C 3952 4880 3960 4873 3964 4865zM4190 4843C 4190 4838 4180 4817 4167 4795C 4146 4757 4142 4755 4090 4752C 4060 4750 4011 4751 3983 4755C 3931 4761 3930 4762 3930 4796C 3930 4823 3934 4830 3949 4830C 3960 4830 3972 4835 3975 4840C 3982 4852 4190 4854 4190 4843zM2764 4744C 2787 4735 2784 4720 2760 4720C 2749 4720 2740 4727 2740 4735C 2740 4752 2742 4753 2764 4744zM3960 4735C 3960 4727 3953 4720 3945 4720C 3929 4720 3925 4732 3937 4743C 3948 4755 3960 4751 3960 4735zM4338 4708C 4335 4674 4318 4666 4312 4695C 4307 4717 4317 4740 4330 4740C 4337 4740 4340 4726 4338 4708zM4430 4705C 4430 4671 4429 4670 4390 4670C 4351 4670 4350 4671 4350 4705C 4350 4739 4351 4740 4390 4740C 4429 4740 4430 4739 4430 4705zM4465 4705C 4465 4684 4460 4670 4453 4670C 4445 4670 4440 4684 4440 4705C 4440 4726 4445 4740 4453 4740C 4460 4740 4465 4726 4465 4705zM4630 4705C 4630 4686 4626 4670 4620 4670C 4615 4670 4610 4686 4610 4705C 4610 4724 4615 4740 4620 4740C 4626 4740 4630 4724 4630 4705zM4723 4713C 4723 4700 4722 4686 4721 4680C 4721 4675 4702 4670 4680 4670C 4641 4670 4640 4671 4640 4706L4640 4706L4640 4741L4682 4738C 4719 4735 4724 4732 4723 4713zM4760 4705C 4760 4686 4756 4670 4750 4670C 4745 4670 4740 4686 4740 4705C 4740 4724 4745 4740 4750 4740C 4756 4740 4760 4724 4760 4705zM4523 4650L4732 4645L4762 4611C 4788 4582 4792 4572 4787 4537C 4784 4513 4771 4487 4756 4472L4756 4472L4731 4446L4515 4447C 4338 4448 4300 4445 4300 4434C 4300 4414 4290 4417 4246 4450C 4208 4479 4203 4480 4094 4480C 4030 4480 3979 4484 3975 4490C 3972 4496 3960 4500 3949 4500C 3934 4500 3930 4507 3930 4535C 3930 4566 3933 4570 3955 4570C 3969 4570 3980 4575 3980 4580C 3980 4586 4024 4590 4093 4590L4093 4590L4206 4590L4245 4630C 4272 4658 4289 4668 4300 4663C 4308 4659 4409 4653 4523 4650zM2780 4600C 2780 4595 2771 4590 2760 4590C 2749 4590 2740 4595 2740 4600C 2740 4606 2749 4610 2760 4610C 2771 4610 2780 4606 2780 4600zM3965 4600C 3962 4595 3952 4590 3944 4590C 3936 4590 3930 4595 3930 4600C 3930 4606 3939 4610 3951 4610C 3962 4610 3968 4606 3965 4600zM2780 4470C 2780 4465 2771 4460 2760 4460C 2749 4460 2740 4465 2740 4470C 2740 4476 2749 4480 2760 4480C 2771 4480 2780 4476 2780 4470zM3965 4470C 3968 4465 3962 4460 3951 4460C 3939 4460 3930 4465 3930 4470C 3930 4476 3936 4480 3944 4480C 3952 4480 3962 4476 3965 4470zM4428 4396C 4425 4368 4421 4365 4388 4362C 4351 4359 4350 4359 4350 4394C 4350 4431 4363 4440 4408 4432C 4427 4428 4431 4422 4428 4396zM4760 4400C 4760 4384 4756 4368 4750 4365C 4744 4361 4740 4375 4740 4400C 4740 4425 4744 4439 4750 4435C 4756 4432 4760 4416 4760 4400zM4338 4398C 4334 4359 4317 4363 4312 4403C 4310 4422 4313 4430 4325 4430C 4337 4430 4341 4422 4338 4398zM4464 4403C 4463 4363 4446 4359 4442 4398C 4440 4419 4443 4430 4452 4430C 4460 4430 4465 4419 4464 4403zM4630 4395C 4630 4376 4626 4360 4620 4360C 4615 4360 4610 4376 4610 4395C 4610 4414 4615 4430 4620 4430C 4626 4430 4630 4414 4630 4395zM4720 4394C 4720 4359 4719 4359 4683 4362C 4648 4365 4645 4368 4642 4398C 4639 4429 4640 4430 4679 4430C 4719 4430 4720 4429 4720 4394zM2780 4340C 2780 4335 2771 4330 2760 4330C 2749 4330 2740 4335 2740 4340C 2740 4346 2749 4350 2760 4350C 2771 4350 2780 4346 2780 4340zM3965 4340C 3968 4335 3962 4330 3951 4330C 3939 4330 3930 4335 3930 4340C 3930 4346 3936 4350 3944 4350C 3952 4350 3962 4346 3965 4340zM4277 4264C 4268 4255 4249 4270 4256 4282C 4260 4288 4266 4288 4273 4281C 4279 4275 4281 4268 4277 4264zM4430 4235C 4430 4201 4429 4200 4390 4200C 4351 4200 4350 4201 4350 4235C 4350 4269 4351 4270 4390 4270C 4429 4270 4430 4269 4430 4235zM4460 4235C 4460 4216 4456 4200 4450 4200C 4445 4200 4440 4216 4440 4235C 4440 4254 4445 4270 4450 4270C 4456 4270 4460 4254 4460 4235zM2780 4211C 2780 4205 2775 4198 2770 4195C 2755 4186 2727 4198 2735 4210C 2743 4223 2780 4223 2780 4211zM3960 4205C 3960 4197 3953 4190 3945 4190C 3937 4190 3930 4197 3930 4205C 3930 4213 3937 4220 3945 4220C 3953 4220 3960 4213 3960 4205zM2910 4080C 2910 4075 2903 4070 2895 4070C 2887 4070 2880 4075 2880 4080C 2880 4086 2887 4090 2895 4090C 2903 4090 2910 4086 2910 4080zM3040 4080C 3040 4075 3033 4070 3025 4070C 3017 4070 3010 4075 3010 4080C 3010 4086 3017 4090 3025 4090C 3033 4090 3040 4086 3040 4080zM3170 4080C 3170 4075 3163 4070 3155 4070C 3147 4070 3140 4075 3140 4080C 3140 4086 3147 4090 3155 4090C 3163 4090 3170 4086 3170 4080zM3300 4080C 3300 4075 3293 4070 3285 4070C 3277 4070 3270 4075 3270 4080C 3270 4086 3277 4090 3285 4090C 3293 4090 3300 4086 3300 4080zM3430 4080C 3430 4075 3423 4070 3415 4070C 3407 4070 3400 4075 3400 4080C 3400 4086 3407 4090 3415 4090C 3423 4090 3430 4086 3430 4080zM3560 4080C 3560 4075 3553 4070 3545 4070C 3537 4070 3530 4075 3530 4080C 3530 4086 3537 4090 3545 4090C 3553 4090 3560 4086 3560 4080zM3690 4080C 3690 4075 3683 4070 3675 4070C 3667 4070 3660 4075 3660 4080C 3660 4086 3667 4090 3675 4090C 3683 4090 3690 4086 3690 4080zM3820 4080C 3820 4075 3816 4070 3810 4070C 3805 4070 3800 4075 3800 4080C 3800 4086 3805 4090 3810 4090C 3816 4090 3820 4086 3820 4080zM3816 3953C 3806 3943 3797 3958 3806 3971C 3812 3982 3814 3982 3818 3971C 3820 3964 3819 3956 3816 3953zM2500 3900C 2500 3895 2496 3890 2490 3890C 2485 3890 2480 3895 2480 3900C 2480 3906 2485 3910 2490 3910C 2496 3910 2500 3906 2500 3900zM2900 3860C 2900 3855 2896 3850 2890 3850C 2885 3850 2880 3855 2880 3860C 2880 3866 2885 3870 2890 3870C 2896 3870 2900 3866 2900 3860zM2330 3830C 2330 3825 2326 3820 2320 3820C 2315 3820 2310 3825 2310 3830C 2310 3836 2315 3840 2320 3840C 2326 3840 2330 3836 2330 3830zM3040 3730C 3040 3725 3036 3720 3030 3720C 3025 3720 3020 3725 3020 3730C 3020 3736 3025 3740 3030 3740C 3036 3740 3040 3736 3040 3730zM2930 3700C 2930 3695 2917 3690 2901 3690C 2884 3690 2868 3695 2865 3700C 2861 3706 2873 3710 2894 3710C 2914 3710 2930 3706 2930 3700zM2930 3640C 2930 3601 2929 3600 2895 3600C 2861 3600 2860 3601 2860 3640C 2860 3679 2861 3680 2895 3680C 2929 3680 2930 3679 2930 3640zM3290 3594C 3290 3586 3286 3582 3280 3585C 3275 3588 3270 3595 3270 3601C 3270 3606 3275 3610 3280 3610C 3286 3610 3290 3603 3290 3594zM3550 3594C 3550 3586 3546 3582 3540 3585C 3535 3588 3530 3595 3530 3601C 3530 3606 3535 3610 3540 3610C 3546 3610 3550 3603 3550 3594zM4595 3600C 4532 3591 4483 3567 4475 3540C 4469 3520 4440 3511 4440 3530C 4440 3551 4464 3589 4484 3598C 4495 3604 4537 3608 4575 3608C 4645 3608 4645 3607 4595 3600zM2930 3573C 2930 3558 2874 3555 2866 3569C 2858 3581 2865 3585 2899 3585C 2917 3585 2930 3580 2930 3573zM4539 3535C 4491 3485 4480 3480 4480 3510C 4480 3539 4524 3580 4555 3580C 4581 3580 4581 3579 4539 3535zM3156 3523C 3146 3513 3137 3528 3146 3541C 3152 3552 3154 3552 3158 3541C 3160 3534 3159 3526 3156 3523zM3427 3504C 3418 3495 3399 3510 3406 3522C 3410 3528 3416 3528 3423 3521C 3429 3515 3431 3508 3427 3504zM3687 3504C 3678 3495 3659 3510 3666 3522C 3670 3528 3676 3528 3683 3521C 3689 3515 3691 3508 3687 3504zM4653 3120C 4667 3019 4695 2994 4796 2991C 4832 2990 4838 2986 4853 2955C 4866 2927 4875 2920 4898 2920C 4927 2920 4970 2952 4970 2973C 4970 2980 4961 2999 4950 3015C 4922 3057 4925 3084 4960 3113C 5000 3147 5026 3154 5059 3140C 5098 3124 5110 3092 5110 3004C 5110 2931 5109 2929 5078 2910C 5060 2899 5052 2890 5060 2890C 5091 2890 5120 2920 5120 2952C 5120 2976 5124 2981 5138 2977C 5305 2930 5303 2931 5405 2836L5405 2836L5502 2745L5353 2563L5203 2382L5208 2302C 5210 2258 5208 2215 5203 2206C 5195 2192 5190 2194 5163 2222L5163 2222L5132 2255L5143 2458C 5153 2659 5153 2663 5130 2718C 5105 2781 5083 2811 5094 2770C 5097 2756 5103 2722 5106 2694L5106 2694L5112 2643L5006 2533C 4926 2449 4885 2415 4835 2390L4835 2390L4769 2357L4739 2386C 4722 2402 4685 2444 4658 2480L4658 2480L4609 2545L4639 2559C 4670 2574 4680 2603 4659 2616C 4652 2620 4650 2616 4654 2603C 4659 2588 4652 2580 4625 2567C 4606 2558 4572 2547 4551 2544C 4499 2536 4491 2552 4483 2675C 4477 2762 4474 2775 4446 2812C 4429 2835 4409 2860 4403 2869C 4392 2884 4351 3030 4350 3056C 4350 3062 4367 3072 4389 3078C 4410 3085 4472 3110 4526 3134C 4581 3159 4629 3178 4635 3176C 4640 3175 4648 3149 4653 3120zM2283 2990L2310 2960L2310 2745L2310 2530L2205 2530L2100 2530L2100 2744C 2100 2947 2101 2959 2121 2984C 2165 3039 2236 3042 2283 2990zM2546 3015C 2603 2991 2610 2961 2610 2730L2610 2730L2610 2530L2500 2530L2390 2530L2390 2735C 2390 2965 2396 2990 2453 3015C 2494 3033 2503 3033 2546 3015zM2873 2989L2900 2960L2900 2745L2900 2530L2795 2530L2690 2530L2690 2744C 2690 2947 2691 2959 2711 2984C 2723 2999 2742 3016 2754 3021C 2790 3035 2843 3022 2873 2989zM3459 2995L3485 2970L3488 2750L3491 2530L3386 2530L3280 2530L3280 2744C 3280 2947 3281 2959 3301 2984C 3313 2999 3332 3016 3344 3021C 3377 3035 3432 3023 3459 2995zM3755 2990L3785 2960L3785 2747L3785 2535L3678 2532L3570 2529L3570 2740C 3570 2870 3574 2959 3581 2971C 3586 2982 3606 3000 3623 3011C 3666 3038 3715 3030 3755 2990zM4015 3016C 4074 2991 4080 2967 4080 2735L4080 2735L4080 2529L3973 2532L3865 2535L3862 2733C 3859 2955 3866 2986 3923 3014C 3963 3033 3972 3034 4015 3016zM1964 3009C 2013 2986 2020 2950 2020 2731L2020 2731L2020 2530L1909 2530L1799 2530L1802 2746L1805 2962L1838 2991C 1873 3023 1919 3029 1964 3009zM3162 2991L3195 2962L3198 2746L3201 2530L3091 2530L2980 2530L2980 2741L2980 2952L3014 2986C 3060 3032 3115 3034 3162 2991zM4326 3006C 4364 2979 4373 2919 4372 2725C 4371 2626 4370 2542 4370 2538C 4370 2533 4323 2530 4265 2530L4265 2530L4160 2530L4160 2736C 4160 2949 4163 2970 4204 3002C 4230 3023 4298 3025 4326 3006zM4449 2784C 4455 2769 4465 2714 4470 2661C 4475 2607 4482 2556 4486 2547C 4491 2532 4485 2530 4441 2530L4441 2530L4390 2530L4390 2670L4390 2810L4413 2810C 4429 2810 4441 2801 4449 2784zM5629 2712C 5670 2681 5702 2651 5701 2645C 5699 2632 5352 2132 5340 2125C 5335 2122 5304 2176 5271 2246L5271 2246L5211 2372L5373 2570C 5462 2679 5540 2769 5545 2769C 5551 2769 5588 2744 5629 2712zM5863 2561C 5941 2528 6037 2487 6075 2469L6075 2469L6145 2436L6090 2428C 6060 2423 6031 2415 6025 2409C 6018 2401 6021 2399 6035 2403C 6091 2419 6113 2422 6144 2416C 6175 2410 6181 2402 6239 2279C 6321 2108 6344 2044 6375 1908C 6435 1646 6571 1106 6601 1014C 6638 899 6637 831 6598 734C 6558 635 6558 635 6277 637C 6016 639 5900 649 5661 686C 5499 711 5452 729 5400 785C 5378 808 5375 820 5375 883C 5375 973 5414 1115 5447 1148L5447 1148L5470 1171L5840 1168C 6043 1166 6202 1168 6192 1172C 6183 1176 6110 1179 6029 1179C 5868 1180 5852 1185 5875 1230C 5889 1257 5885 1267 5779 1486C 5718 1611 5666 1730 5663 1749C 5655 1807 5764 2095 5823 2173C 5860 2223 5866 2237 5838 2212C 5795 2173 5689 1942 5655 1812L5655 1812L5640 1751L5705 1611C 5740 1534 5793 1424 5821 1368C 5869 1273 5872 1263 5861 1233C 5854 1215 5852 1195 5855 1189C 5860 1182 5804 1180 5667 1182C 5480 1185 5471 1184 5442 1163L5442 1163L5413 1141L5304 1181C 5245 1202 5194 1220 5191 1220C 5187 1220 5196 1654 5205 1830C 5208 1905 5207 1915 5200 1875C 5196 1848 5187 1693 5181 1531C 5175 1369 5168 1235 5167 1234C 5156 1223 5066 1269 5035 1300L5035 1300L4997 1339L4999 1422C 5001 1531 4981 1598 4935 1639C 4893 1675 4869 1677 4818 1650C 4798 1639 4779 1634 4777 1638C 4775 1642 4765 1718 4755 1808C 4745 1897 4734 1970 4730 1970C 4727 1970 4729 1925 4735 1870C 4741 1815 4744 1770 4741 1770C 4738 1770 4723 1782 4708 1797C 4693 1812 4680 1820 4680 1814C 4680 1809 4695 1793 4714 1778C 4742 1756 4749 1741 4755 1701C 4761 1659 4758 1647 4739 1621C 4726 1604 4711 1590 4705 1590C 4677 1590 4470 1741 4470 1760C 4470 1765 4492 1785 4519 1805C 4567 1842 4568 1844 4585 1929C 4594 1976 4613 2063 4627 2123C 4655 2245 4654 2244 4828 2359C 4925 2424 4934 2426 4973 2382C 4990 2364 4990 2357 4975 2260C 4966 2204 4961 2156 4963 2153C 4966 2151 4985 2173 5007 2204C 5028 2234 5050 2259 5057 2260C 5072 2260 5136 2223 5173 2193C 5221 2154 5228 2161 5223 2243L5223 2243L5219 2315L5277 2202L5335 2090L5520 2355C 5621 2501 5708 2620 5713 2620C 5718 2620 5785 2593 5863 2561zM5059 2300C 5103 2259 5107 2250 5069 2273C 5051 2283 5046 2282 5032 2261C 5022 2247 5007 2227 4997 2216C 4979 2195 4979 2196 4985 2245C 4993 2311 5001 2340 5009 2340C 5012 2339 5035 2321 5059 2300zM3720 1800L3675 1793L3720 1789C 3745 1787 3529 1783 3240 1780L3240 1780L2715 1775L3236 1772L3757 1770L3768 1688C 3774 1642 3788 1519 3801 1415L3801 1415L3823 1225L3792 1193C 3773 1174 3762 1156 3766 1147C 3769 1137 3763 1127 3748 1120C 3728 1110 3727 1110 3742 1123C 3755 1133 3757 1139 3748 1148C 3741 1155 3729 1160 3720 1159C 3710 1159 3711 1156 3725 1150C 3745 1142 3745 1141 3724 1141C 3701 1140 3696 1114 3717 1106C 3725 1103 3729 1085 3729 1058C 3727 1006 3722 996 3706 1009C 3692 1021 3640 1041 3640 1035C 3640 1032 3654 1024 3672 1017L3672 1017L3704 1004L3664 1004C 3627 1005 3623 1007 3623 1032C 3623 1049 3631 1063 3647 1071C 3673 1085 3677 1100 3655 1100C 3647 1100 3640 1096 3640 1090C 3640 1085 3633 1080 3625 1080C 3616 1080 3605 1070 3600 1058C 3594 1043 3591 1106 3591 1237C 3590 1348 3587 1441 3583 1443C 3578 1446 3576 1356 3578 1244C 3580 1108 3577 1040 3570 1040C 3564 1040 3560 1112 3560 1251C 3560 1457 3560 1462 3580 1457C 3591 1454 3600 1456 3600 1461C 3600 1466 3591 1470 3581 1470C 3568 1470 3560 1478 3558 1493L3558 1493L3555 1515L3128 1518C 2706 1520 2701 1520 2695 1541C 2691 1552 2691 1577 2695 1596C 2699 1619 2697 1630 2689 1630C 2681 1630 2679 1642 2684 1669C 2687 1691 2685 1721 2679 1737C 2672 1756 2672 1766 2679 1768C 2685 1770 2690 1779 2690 1787C 2690 1796 2684 1800 2675 1796C 2667 1793 2660 1795 2660 1799C 2660 1804 2664 1810 2670 1812C 2675 1814 2924 1813 3222 1811C 3521 1809 3745 1804 3720 1800zM4517 1699C 4549 1671 4601 1632 4633 1613C 4664 1593 4690 1574 4690 1569C 4690 1550 4668 1552 4616 1579C 4585 1594 4560 1603 4560 1598C 4560 1593 4585 1578 4615 1564L4615 1564L4670 1538L4634 1494C 4610 1465 4592 1451 4581 1454C 4523 1472 4481 1477 4471 1467C 4453 1449 4458 1428 4487 1397L4487 1397L4515 1369L4472 1333C 4420 1290 4399 1253 4410 1224C 4428 1178 4471 1196 4513 1266C 4527 1291 4540 1281 4540 1244C 4540 1213 4536 1207 4505 1194C 4486 1187 4460 1180 4448 1180C 4425 1179 4390 1159 4390 1146C 4390 1142 4362 1106 4328 1065L4328 1065L4265 990L4210 990L4155 990L4220 1050C 4259 1086 4300 1114 4324 1120C 4345 1126 4360 1134 4357 1136C 4354 1139 4336 1137 4317 1132C 4283 1123 4280 1124 4230 1175C 4185 1220 4129 1255 4068 1274C 4059 1277 4044 1292 4036 1308C 4021 1337 4022 1341 4063 1415C 4114 1510 4157 1552 4283 1632C 4338 1667 4396 1707 4414 1722C 4431 1737 4448 1750 4452 1750C 4456 1750 4485 1727 4517 1699zM4916 1641C 4963 1612 4981 1554 4978 1446L4978 1446L4975 1358L4928 1399C 4890 1433 4875 1440 4841 1440C 4797 1440 4796 1441 4786 1528C 4780 1585 4801 1635 4837 1648C 4877 1663 4881 1662 4916 1641zM4775 1611C 4783 1597 4651 1446 4627 1442C 4607 1438 4607 1439 4626 1463C 4674 1525 4756 1620 4762 1620C 4766 1620 4771 1616 4775 1611zM4779 1478L4780 1440L4725 1440C 4695 1440 4670 1443 4670 1446C 4670 1449 4691 1477 4717 1507C 4762 1560 4765 1561 4771 1539C 4775 1526 4778 1498 4779 1478zM3537 1223L3539 950L3125 950L2710 950L2710 1225L2710 1500L3123 1498L3535 1495L3537 1223zM4573 1441C 4577 1437 4568 1421 4553 1406L4553 1406L4526 1379L4497 1408C 4459 1447 4468 1464 4524 1455C 4546 1451 4569 1445 4573 1441zM4914 1394C 4931 1379 4978 1336 5018 1299L5018 1299L5092 1230L5074 1104C 5063 1023 5052 976 5044 973C 5036 970 4992 982 4945 999C 4887 1020 4840 1030 4802 1030C 4728 1030 4612 1055 4590 1075C 4580 1084 4570 1101 4567 1112C 4561 1132 4564 1133 4666 1127C 4724 1124 4770 1126 4770 1131C 4770 1136 4723 1140 4666 1140L4666 1140L4562 1140L4555 1176C 4552 1196 4552 1216 4557 1221C 4562 1226 4615 1231 4675 1233L4675 1233L4785 1236L4668 1238L4550 1240L4550 1274C 4550 1293 4556 1312 4563 1317C 4569 1321 4627 1330 4690 1336L4690 1336L4805 1347L4691 1349L4578 1350L4518 1295C 4465 1245 4420 1225 4420 1249C 4420 1264 4459 1305 4530 1365L4530 1365L4595 1419L4739 1420C 4879 1420 4883 1419 4914 1394zM4023 1303C 4037 1279 4043 1242 4047 1146L4047 1146L4053 1022L4014 1011C 3993 1005 3970 1000 3964 1000C 3956 1000 3950 1050 3945 1157C 3938 1303 3939 1314 3956 1327C 3983 1346 4001 1340 4023 1303zM3931 1113C 3935 1005 3928 983 3904 1030C 3897 1042 3889 1078 3885 1108C 3881 1139 3872 1173 3864 1184C 3841 1217 3847 1240 3883 1255C 3914 1268 3915 1267 3922 1245C 3925 1232 3930 1172 3931 1113zM4123 1239C 4192 1204 4192 1206 4143 1132C 4119 1095 4096 1053 4093 1038C 4085 996 4058 1001 4065 1043C 4068 1060 4067 1117 4062 1168C 4053 1272 4054 1273 4123 1239zM5265 1181C 5340 1154 5403 1130 5406 1127C 5409 1124 5400 1080 5386 1029C 5372 977 5359 915 5357 890C 5354 865 5348 846 5344 846C 5332 848 5076 931 5070 935C 5066 938 5103 1212 5109 1228C 5112 1234 5139 1226 5265 1181zM4561 1089C 4575 1054 4608 1040 4705 1026L4705 1026L4785 1014L4788 982L4791 949L4633 952C 4500 955 4475 957 4475 970C 4475 982 4456 986 4388 990L4388 990L4300 995L4370 1077C 4421 1136 4450 1162 4478 1170C 4498 1177 4520 1187 4525 1192C 4532 1198 4538 1186 4542 1158C 4546 1134 4555 1103 4561 1089zM3855 1173C 3859 1163 3865 1133 3870 1105C 3875 1078 3881 1043 3885 1028C 3891 1003 3890 1000 3866 1000C 3837 1000 3829 1012 3806 1098C 3792 1147 3791 1164 3801 1176C 3817 1195 3846 1194 3855 1173zM4234 1156C 4272 1124 4264 1102 4188 1039C 4133 994 4126 990 4112 1004C 4099 1016 4099 1024 4108 1045C 4127 1087 4189 1180 4197 1180C 4202 1179 4218 1169 4234 1156zM3794 1089C 3804 1039 3801 1013 3785 1000C 3765 983 3759 990 3753 1038C 3748 1076 3762 1120 3779 1120C 3784 1120 3790 1106 3794 1089zM3620 1029C 3620 1021 3567 1010 3560 1016C 3553 1024 3577 1036 3600 1036C 3611 1036 3620 1033 3620 1029zM4460 965C 4460 952 4410 950 4048 952C 3730 954 3636 958 3632 968C 3629 977 3716 980 4044 980C 4408 980 4460 978 4460 965zM4900 870L4900 800L3425 800L1950 800L1950 868L1950 935L3425 937L4900 939L4900 870z" stroke="none"  fill="#000000" fill-rule="nonzero" />
		<path  d="M1862 6273C 1814 6232 1845 6140 1906 6140C 1942 6140 1960 6151 1976 6181C 2014 6254 1924 6326 1862 6273z" stroke="none"  fill="#000000" fill-rule="nonzero" />
		<path  d="M4212 6267C 4183 6236 4184 6195 4215 6165C 4245 6135 4279 6133 4314 6161C 4347 6187 4350 6240 4320 6270C 4292 6298 4239 6296 4212 6267z" stroke="none"  fill="#000000" fill-rule="nonzero" />
		<path  d="M1540 6075C 1529 6062 1529 6057 1542 6044C 1562 6024 1592 6037 1588 6064C 1584 6090 1558 6096 1540 6075z" stroke="none"  fill="#000000" fill-rule="nonzero" />
		<path  d="M2017 6083C 2004 6071 2010 6042 2027 6036C 2048 6027 2073 6052 2064 6073C 2058 6090 2029 6096 2017 6083z" stroke="none"  fill="#000000" fill-rule="nonzero" />
		<path  d="M2964 6076C 2955 6052 2968 6028 2987 6032C 2999 6034 3005 6044 3005 6060C 3005 6089 2973 6101 2964 6076z" stroke="none"  fill="#000000" fill-rule="nonzero" />
		<path  d="M3433 6074C 3430 6066 3435 6051 3444 6042C 3459 6027 3461 6027 3476 6042C 3497 6063 3487 6090 3460 6090C 3449 6090 3437 6083 3433 6074z" stroke="none"  fill="#000000" fill-rule="nonzero" />
		<path  d="M4387 6083C 4374 6071 4380 6042 4397 6036C 4418 6028 4445 6053 4437 6074C 4431 6090 4399 6096 4387 6083z" stroke="none"  fill="#000000" fill-rule="nonzero" />
		<path  d="M4854 6075C 4850 6066 4854 6052 4862 6044C 4882 6024 4912 6037 4908 6064C 4904 6090 4863 6099 4854 6075z" stroke="none"  fill="#000000" fill-rule="nonzero" />
		<path  d="M4630 5850L4630 5670L4690 5670L4750 5670L4748 5848L4745 6025L4688 6028L4630 6031L4630 5850zM4730 5844L4730 5679L4688 5682L4645 5685L4642 5848L4640 6010L4685 6010L4730 6010L4730 5844z" stroke="none"  fill="#000000" fill-rule="nonzero" />
		<path  d="M1540 5615C 1529 5602 1529 5597 1542 5584C 1562 5564 1592 5577 1588 5604C 1584 5630 1558 5636 1540 5615z" stroke="none"  fill="#000000" fill-rule="nonzero" />
		<path  d="M2017 5623C 2004 5611 2010 5582 2027 5576C 2048 5568 2075 5593 2067 5614C 2061 5630 2029 5636 2017 5623z" stroke="none"  fill="#000000" fill-rule="nonzero" />
		<path  d="M4384 5615C 4376 5594 4386 5570 4403 5570C 4424 5570 4441 5595 4434 5614C 4426 5634 4391 5635 4384 5615z" stroke="none"  fill="#000000" fill-rule="nonzero" />
		<path  d="M4390 5321C 4390 5260 4394 5230 4401 5230C 4409 5230 4409 5226 4402 5218C 4397 5211 4389 5186 4385 5164C 4376 5109 4398 5100 4446 5138C 4478 5162 4481 5169 4477 5202C 4474 5223 4475 5242 4480 5245C 4484 5247 4487 5285 4486 5327L4486 5327L4485 5405L4437 5408L4390 5411L4390 5321zM4470 5390C 4470 5385 4454 5380 4435 5380C 4416 5380 4400 5385 4400 5390C 4400 5396 4416 5400 4435 5400C 4454 5400 4470 5396 4470 5390zM4468 5323L4471 5280L4436 5280C 4401 5280 4400 5281 4400 5318C 4400 5364 4406 5372 4440 5368C 4462 5365 4465 5360 4468 5323zM4470 5260C 4470 5255 4454 5250 4435 5250C 4416 5250 4400 5255 4400 5260C 4400 5266 4416 5270 4435 5270C 4454 5270 4470 5266 4470 5260zM4450 5190C 4450 5185 4443 5180 4435 5180C 4427 5180 4420 5185 4420 5190C 4420 5196 4427 5200 4435 5200C 4443 5200 4450 5196 4450 5190z" stroke="none"  fill="#000000" fill-rule="nonzero" />
		<path  d="M5010 5265L5010 5120L5314 5120L5619 5120L5617 5263L5615 5405L5313 5408L5010 5410L5010 5265zM5600 5260L5600 5130L5315 5130L5030 5130L5030 5263L5030 5395L5315 5392L5600 5389L5600 5260z" stroke="none"  fill="#000000" fill-rule="nonzero" />
		<path  d="M1695 5378C 1692 5371 1692 5352 1694 5335C 1697 5319 1699 5302 1699 5298C 1700 5293 1729 5290 1765 5290C 1831 5290 1843 5283 1815 5260C 1807 5253 1800 5237 1800 5225C 1800 5213 1807 5197 1815 5190C 1823 5183 1830 5167 1830 5154C 1830 5130 1828 5130 1735 5130L1735 5130L1639 5130L1642 5073C 1645 5022 1648 5015 1668 5012L1668 5012L1690 5009L1690 4770L1690 4531L1668 4528C 1648 4525 1645 4518 1642 4468L1642 4468L1639 4410L1735 4410C 1821 4410 1830 4408 1830 4391C 1830 4381 1823 4367 1815 4360C 1795 4344 1795 4291 1815 4284C 1849 4271 1826 4260 1765 4260L1765 4260L1700 4260L1700 4210L1700 4160L1785 4160L1870 4160L1870 4210C 1870 4242 1866 4260 1858 4260C 1852 4260 1856 4269 1868 4280C 1893 4304 1897 4342 1875 4360C 1867 4367 1860 4381 1860 4391C 1860 4408 1868 4410 1930 4410L1930 4410L2000 4410L2000 4470L2000 4530L1970 4530L1940 4530L1940 4770L1940 5010L1970 5010L2000 5010L2000 5070L2000 5130L1930 5130C 1863 5130 1860 5131 1860 5154C 1860 5167 1867 5183 1875 5190C 1894 5205 1895 5244 1877 5258C 1868 5266 1865 5288 1868 5330L1868 5330L1872 5390L1786 5390C 1726 5390 1698 5386 1695 5378zM1820 5345C 1820 5316 1816 5309 1795 5304C 1757 5295 1740 5306 1740 5339C 1740 5365 1744 5369 1773 5373C 1790 5375 1808 5378 1813 5378C 1817 5379 1820 5364 1820 5345zM1860 5340C 1860 5324 1856 5308 1850 5305C 1844 5301 1840 5315 1840 5340C 1840 5365 1844 5379 1850 5375C 1856 5372 1860 5356 1860 5340zM1730 5335C 1730 5316 1726 5300 1720 5300C 1715 5300 1710 5316 1710 5335C 1710 5354 1715 5370 1720 5370C 1726 5370 1730 5354 1730 5335zM1855 5230C 1858 5225 1854 5220 1846 5220C 1837 5220 1830 5225 1830 5230C 1830 5236 1834 5240 1839 5240C 1845 5240 1852 5236 1855 5230zM1988 5073C 1991 5033 1989 5030 1966 5030C 1945 5030 1940 5035 1940 5055L1940 5055L1940 5080L1815 5080L1690 5080L1690 5055C 1690 5039 1684 5030 1675 5030C 1664 5030 1660 5042 1660 5075L1660 5075L1660 5120L1823 5118L1985 5115L1988 5073zM1690 4494C 1690 4483 1715 4480 1815 4480C 1919 4480 1940 4482 1940 4495C 1940 4504 1950 4510 1966 4510C 1989 4510 1991 4507 1988 4468L1988 4468L1985 4425L1823 4422L1660 4420L1660 4469C 1660 4510 1663 4518 1675 4514C 1683 4510 1690 4502 1690 4494zM1855 4320C 1852 4315 1845 4310 1839 4310C 1834 4310 1830 4315 1830 4320C 1830 4326 1837 4330 1846 4330C 1854 4330 1858 4326 1855 4320zM1730 4215C 1730 4196 1726 4180 1720 4180C 1715 4180 1710 4196 1710 4215C 1710 4234 1715 4250 1720 4250C 1726 4250 1730 4234 1730 4215zM1818 4238C 1819 4233 1820 4219 1820 4205C 1820 4183 1816 4180 1780 4180C 1743 4180 1740 4182 1740 4208C 1740 4224 1743 4240 1747 4244C 1756 4253 1814 4248 1818 4238zM1860 4211C 1860 4194 1856 4178 1850 4175C 1844 4171 1840 4183 1840 4204C 1840 4224 1845 4240 1850 4240C 1856 4240 1860 4227 1860 4211z" stroke="none"  fill="#000000" fill-rule="nonzero" />
		<path  d="M1536 5154C 1527 5132 1553 5105 1575 5114C 1585 5117 1590 5129 1588 5142C 1584 5171 1546 5179 1536 5154z" stroke="none"  fill="#000000" fill-rule="nonzero" />
		<path  d="M2017 5163C 2004 5151 2010 5122 2027 5116C 2048 5107 2073 5132 2064 5153C 2058 5170 2029 5176 2017 5163z" stroke="none"  fill="#000000" fill-rule="nonzero" />
		<path  d="M1540 4695C 1529 4682 1529 4676 1543 4663C 1564 4642 1592 4654 1588 4682C 1584 4710 1558 4717 1540 4695z" stroke="none"  fill="#000000" fill-rule="nonzero" />
		<path  d="M2014 4695C 2006 4674 2016 4650 2033 4650C 2054 4650 2071 4675 2064 4694C 2056 4714 2021 4715 2014 4695z" stroke="none"  fill="#000000" fill-rule="nonzero" />
		<path  d="M1540 4235C 1529 4222 1529 4216 1543 4203C 1564 4182 1592 4194 1588 4222C 1584 4250 1558 4257 1540 4235z" stroke="none"  fill="#000000" fill-rule="nonzero" />
		<path  d="M2014 4235C 2006 4214 2016 4190 2033 4190C 2054 4190 2071 4215 2064 4234C 2056 4254 2021 4255 2014 4235z" stroke="none"  fill="#000000" fill-rule="nonzero" />
		<path  d="M2490 4235C 2479 4222 2479 4216 2493 4203C 2514 4182 2542 4194 2538 4222C 2534 4250 2508 4257 2490 4235z" stroke="none"  fill="#000000" fill-rule="nonzero" />
		<path  d="M4856 4234C 4847 4212 4873 4185 4895 4194C 4905 4197 4910 4209 4908 4222C 4904 4251 4866 4259 4856 4234z" stroke="none"  fill="#000000" fill-rule="nonzero" />
		<path  d="M3767 3903C 3763 3900 3760 3859 3760 3813L3760 3813L3760 3730L3810 3730C 3858 3730 3860 3731 3861 3758C 3861 3773 3862 3803 3864 3825C 3867 3892 3856 3910 3812 3910C 3791 3910 3770 3907 3767 3903zM3850 3880C 3850 3875 3834 3870 3815 3870C 3796 3870 3780 3875 3780 3880C 3780 3886 3796 3890 3815 3890C 3834 3890 3850 3886 3850 3880zM3850 3820C 3850 3781 3849 3780 3815 3780C 3781 3780 3780 3781 3780 3820C 3780 3859 3781 3860 3815 3860C 3849 3860 3850 3859 3850 3820zM3845 3749C 3837 3737 3780 3737 3780 3749C 3780 3759 3829 3769 3843 3762C 3847 3760 3848 3754 3845 3749z" stroke="none"  fill="#000000" fill-rule="nonzero" />
		<path  d="M1536 3774C 1527 3752 1553 3725 1575 3734C 1585 3737 1590 3749 1588 3762C 1584 3791 1546 3799 1536 3774z" stroke="none"  fill="#000000" fill-rule="nonzero" />
		<path  d="M2017 3783C 2004 3771 2010 3742 2027 3736C 2048 3727 2073 3752 2064 3773C 2058 3790 2029 3796 2017 3783z" stroke="none"  fill="#000000" fill-rule="nonzero" />
		<path  d="M2490 3780C 2478 3773 2478 3767 2486 3753C 2503 3725 2535 3730 2535 3760C 2535 3787 2514 3796 2490 3780z" stroke="none"  fill="#000000" fill-rule="nonzero" />
		<path  d="M3910 3775C 3899 3762 3899 3756 3913 3743C 3934 3722 3962 3734 3958 3762C 3954 3790 3928 3797 3910 3775z" stroke="none"  fill="#000000" fill-rule="nonzero" />
		<path  d="M4384 3775C 4376 3754 4386 3730 4403 3730C 4424 3730 4441 3755 4434 3774C 4426 3794 4391 3795 4384 3775z" stroke="none"  fill="#000000" fill-rule="nonzero" />
		<path  d="M4856 3774C 4847 3752 4873 3725 4895 3734C 4905 3737 4910 3749 4908 3762C 4904 3791 4866 3799 4856 3774z" stroke="none"  fill="#000000" fill-rule="nonzero" />
		<path  d="M1679 3637C 1627 3602 1600 3555 1600 3498C 1600 3438 1619 3400 1667 3363C 1698 3339 1713 3335 1765 3335C 1817 3335 1832 3339 1864 3364C 1991 3460 1924 3660 1765 3660C 1727 3660 1704 3654 1679 3637zM1827 3575C 1838 3567 1853 3545 1860 3526C 1869 3497 1868 3485 1855 3457C 1815 3373 1695 3380 1671 3467C 1645 3562 1742 3629 1827 3575z" stroke="none"  fill="#000000" fill-rule="nonzero" />
		<path  d="M2049 3639C 1973 3594 1945 3480 1993 3410C 2032 3352 2064 3335 2135 3335C 2184 3335 2205 3340 2227 3356C 2275 3392 2300 3438 2300 3492C 2300 3548 2285 3583 2241 3625C 2214 3650 2200 3655 2147 3657C 2097 3660 2078 3656 2049 3639zM2176 3585C 2223 3566 2246 3513 2230 3464C 2215 3420 2185 3400 2134 3400C 2088 3400 2047 3432 2036 3475C 2026 3514 2054 3568 2092 3585C 2134 3603 2134 3603 2176 3585z" stroke="none"  fill="#000000" fill-rule="nonzero" />
		<path  d="M1536 3314C 1527 3292 1553 3265 1575 3274C 1585 3277 1590 3289 1588 3302C 1584 3331 1546 3339 1536 3314z" stroke="none"  fill="#000000" fill-rule="nonzero" />
		<path  d="M2014 3315C 2006 3294 2016 3270 2033 3270C 2054 3270 2071 3295 2064 3314C 2056 3334 2021 3335 2014 3315z" stroke="none"  fill="#000000" fill-rule="nonzero" />
		<path  d="M2486 3314C 2477 3292 2503 3265 2525 3274C 2535 3277 2540 3289 2538 3302C 2534 3331 2496 3339 2486 3314z" stroke="none"  fill="#000000" fill-rule="nonzero" />
		<path  d="M2964 3316C 2955 3292 2968 3268 2987 3272C 2999 3274 3005 3284 3005 3300C 3005 3329 2973 3341 2964 3316z" stroke="none"  fill="#000000" fill-rule="nonzero" />
		<path  d="M3437 3324C 3427 3313 3428 3282 3440 3275C 3460 3263 3491 3281 3488 3303C 3485 3325 3452 3338 3437 3324z" stroke="none"  fill="#000000" fill-rule="nonzero" />
		<path  d="M3912 3317C 3903 3307 3904 3299 3914 3285C 3932 3260 3962 3272 3958 3302C 3954 3329 3928 3337 3912 3317z" stroke="none"  fill="#000000" fill-rule="nonzero" />
		<path  d="M1540 2855C 1529 2842 1529 2836 1543 2823C 1564 2802 1592 2814 1588 2842C 1584 2870 1558 2877 1540 2855z" stroke="none"  fill="#000000" fill-rule="nonzero" />
		<path  d="M2152 6267C 2123 6236 2124 6195 2155 6165C 2185 6135 2219 6133 2254 6161C 2272 6176 2280 6191 2280 6214C 2280 6281 2197 6315 2152 6267z" stroke="none"  fill="#000000" fill-rule="nonzero" />
		<path  d="M2441 6264C 2413 6229 2415 6195 2445 6165C 2470 6139 2508 6133 2540 6150C 2565 6163 2581 6215 2570 6245C 2551 6296 2475 6307 2441 6264z" stroke="none"  fill="#000000" fill-rule="nonzero" />
		<path  d="M2740 6270C 2695 6225 2731 6140 2794 6140C 2830 6140 2870 6181 2870 6218C 2870 6279 2784 6314 2740 6270z" stroke="none"  fill="#000000" fill-rule="nonzero" />
		<path  d="M3035 6265C 3021 6252 3010 6229 3010 6215C 3010 6201 3021 6178 3035 6165C 3095 6104 3188 6167 3155 6246C 3134 6297 3075 6306 3035 6265z" stroke="none"  fill="#000000" fill-rule="nonzero" />
		<path  d="M3330 6270C 3302 6242 3304 6189 3333 6162C 3364 6133 3405 6134 3435 6165C 3465 6195 3467 6229 3439 6264C 3413 6297 3360 6300 3330 6270z" stroke="none"  fill="#000000" fill-rule="nonzero" />
		<path  d="M3621 6264C 3593 6229 3595 6195 3625 6165C 3674 6115 3750 6146 3750 6215C 3750 6287 3664 6319 3621 6264z" stroke="none"  fill="#000000" fill-rule="nonzero" />
		<path  d="M3920 6270C 3875 6225 3907 6140 3969 6140C 4035 6140 4070 6220 4025 6270C 4001 6296 3947 6297 3920 6270z" stroke="none"  fill="#000000" fill-rule="nonzero" />
		<path  d="M5360 6461C 5286 6435 5217 6361 5194 6283C 5144 6113 5270 5950 5450 5950C 5527 5950 5581 5972 5632 6022C 5698 6089 5726 6194 5701 6287C 5663 6426 5499 6510 5360 6461zM5541 6345C 5585 6316 5610 6266 5610 6207C 5610 6125 5535 6050 5453 6050C 5270 6050 5219 6284 5384 6362C 5434 6385 5490 6379 5541 6345z" stroke="none"  fill="#000000" fill-rule="nonzero" />
		<path  d="M4559 2894C 4520 2878 4492 2836 4512 2824C 4519 2820 4526 2822 4528 2828C 4535 2851 4561 2870 4600 2880C 4622 2886 4640 2895 4640 2900C 4640 2914 4600 2911 4559 2894z" stroke="none"  fill="#000000" fill-rule="nonzero" />
		<path  d="M4590 2781C 4590 2759 4615 2742 4628 2754C 4636 2762 4618 2792 4602 2798C 4595 2800 4590 2792 4590 2781z" stroke="none"  fill="#000000" fill-rule="nonzero" />
		<path  d="M4713 2529C 4670 2502 4671 2496 4715 2517C 4734 2526 4750 2537 4750 2542C 4750 2553 4750 2553 4713 2529z" stroke="none"  fill="#000000" fill-rule="nonzero" />
		<path  d="M2173 2980C 2128 2962 2116 2899 2150 2862C 2194 2815 2280 2847 2280 2911C 2280 2963 2223 3001 2173 2980z" stroke="none"  fill="#000000" fill-rule="nonzero" />
		<path  d="M2464 2978C 2397 2946 2421 2840 2495 2840C 2570 2840 2601 2919 2546 2967C 2517 2992 2497 2995 2464 2978z" stroke="none"  fill="#000000" fill-rule="nonzero" />
		<path  d="M2746 2967C 2695 2916 2724 2840 2793 2840C 2887 2840 2896 2968 2803 2986C 2777 2991 2766 2987 2746 2967z" stroke="none"  fill="#000000" fill-rule="nonzero" />
		<path  d="M3336 2967C 3285 2916 3314 2840 3384 2840C 3409 2840 3424 2847 3439 2866C 3478 2916 3455 2974 3393 2986C 3367 2991 3356 2987 3336 2967z" stroke="none"  fill="#000000" fill-rule="nonzero" />
		<path  d="M3643 2980C 3570 2951 3598 2840 3678 2840C 3747 2840 3777 2927 3724 2969C 3695 2992 3678 2994 3643 2980z" stroke="none"  fill="#000000" fill-rule="nonzero" />
		<path  d="M3926 2969C 3893 2943 3890 2890 3920 2860C 3950 2830 4003 2833 4029 2866C 4053 2896 4055 2909 4039 2943C 4028 2967 3992 2990 3966 2990C 3959 2990 3941 2981 3926 2969z" stroke="none"  fill="#000000" fill-rule="nonzero" />
		<path  d="M1865 2968C 1830 2938 1827 2884 1860 2858C 1903 2823 1964 2839 1983 2892C 1993 2919 1971 2966 1944 2979C 1908 2995 1895 2993 1865 2968z" stroke="none"  fill="#000000" fill-rule="nonzero" />
		<path  d="M3048 2975C 2986 2941 3010 2848 3082 2842C 3157 2835 3192 2918 3135 2968C 3105 2993 3086 2995 3048 2975z" stroke="none"  fill="#000000" fill-rule="nonzero" />
		<path  d="M4233 2980C 4187 2961 4176 2897 4213 2862C 4263 2815 4340 2847 4340 2913C 4340 2966 4284 3001 4233 2980z" stroke="none"  fill="#000000" fill-rule="nonzero" />
		<path  d="M5207 2057C 5202 2019 5201 1986 5204 1983C 5213 1973 5221 2025 5218 2076L5218 2076L5215 2125L5207 2057z" stroke="none"  fill="#000000" fill-rule="nonzero" />
		<path  d="M4710 2058C 4710 2043 4715 2028 4720 2025C 4733 2017 4733 2050 4720 2070C 4712 2082 4710 2079 4710 2058z" stroke="none"  fill="#000000" fill-rule="nonzero" />
		<path  d="M4609 1892C 4621 1870 4650 1844 4650 1856C 4649 1867 4614 1910 4606 1910C 4602 1910 4604 1902 4609 1892z" stroke="none"  fill="#000000" fill-rule="nonzero" />
		<path  d="M6002 1699C 5986 1655 5980 1620 5988 1620C 5993 1620 6002 1641 6007 1667C 6019 1719 6016 1737 6002 1699z" stroke="none"  fill="#000000" fill-rule="nonzero" />
		<path  d="M5941 1428C 5929 1360 5916 1294 5913 1280C 5909 1264 5911 1259 5917 1265C 5922 1271 5937 1331 5950 1400C 5962 1469 5975 1531 5978 1538C 5980 1544 5978 1550 5973 1550C 5968 1550 5953 1495 5941 1428z" stroke="none"  fill="#000000" fill-rule="nonzero" />
		<path  d="M6244 1346C 6185 1327 5960 1218 5960 1208C 5960 1204 5999 1220 6048 1244C 6166 1303 6247 1337 6294 1345C 6345 1355 6335 1338 6272 1305C 6246 1292 6231 1281 6238 1280C 6254 1280 6309 1307 6332 1328C 6369 1360 6321 1370 6244 1346z" stroke="none"  fill="#000000" fill-rule="nonzero" />
		<path  d="M2708 1793C 2715 1790 2724 1791 2727 1794C 2731 1797 2725 1800 2714 1799C 2703 1799 2700 1796 2708 1793z" stroke="none"  fill="#000000" fill-rule="nonzero" />
		<path  d="M2696 1763C 2690 1749 2691 1748 2701 1757C 2708 1764 2711 1772 2708 1775C 2705 1778 2699 1773 2696 1763z" stroke="none"  fill="#000000" fill-rule="nonzero" />
		<path  d="M2711 1708C 2711 1694 2704 1679 2698 1677C 2688 1673 2688 1671 2698 1671C 2714 1670 2723 1693 2717 1717C 2714 1729 2712 1726 2711 1708z" stroke="none"  fill="#000000" fill-rule="nonzero" />
		<path  d="M2712 1640C 2712 1626 2714 1621 2717 1628C 2719 1634 2719 1646 2717 1653C 2714 1659 2712 1654 2712 1640z" stroke="none"  fill="#000000" fill-rule="nonzero" />
		<path  d="M2702 1575C 2702 1559 2704 1553 2707 1563C 2709 1572 2709 1586 2707 1593C 2704 1599 2702 1592 2702 1575z" stroke="none"  fill="#000000" fill-rule="nonzero" />
		<path  d="M3620 1520C 3620 1441 3620 1440 3645 1440C 3670 1440 3670 1441 3670 1520C 3670 1599 3670 1600 3645 1600C 3620 1600 3620 1599 3620 1520z" stroke="none"  fill="#000000" fill-rule="nonzero" />
		<path  d="M3763 1403C 3763 1271 3764 1267 3776 1315C 3789 1363 3789 1364 3785 1324C 3782 1296 3785 1279 3794 1271C 3805 1262 3807 1264 3804 1282C 3802 1295 3798 1328 3794 1355C 3788 1398 3786 1402 3779 1380C 3775 1365 3773 1388 3774 1437C 3776 1481 3774 1523 3770 1530C 3766 1536 3763 1479 3763 1403z" stroke="none"  fill="#000000" fill-rule="nonzero" />
		<path  d="M3577 1509C 3584 1502 3592 1499 3595 1502C 3598 1505 3593 1511 3583 1514C 3569 1520 3568 1519 3577 1509z" stroke="none"  fill="#000000" fill-rule="nonzero" />
		<path  d="M3578 1483C 3585 1480 3594 1481 3597 1484C 3601 1487 3595 1490 3584 1489C 3573 1489 3570 1486 3578 1483z" stroke="none"  fill="#000000" fill-rule="nonzero" />
		<path  d="M3777 1236C 3780 1220 3787 1213 3796 1217C 3814 1224 3814 1228 3796 1246C 3776 1266 3772 1264 3777 1236z" stroke="none"  fill="#000000" fill-rule="nonzero" />
		<path  d="M3720 1230C 3720 1219 3727 1207 3735 1204C 3743 1200 3748 1194 3745 1190C 3742 1185 3750 1184 3762 1188C 3774 1191 3779 1195 3773 1197C 3766 1200 3763 1207 3766 1215C 3769 1222 3762 1233 3751 1239C 3724 1254 3720 1253 3720 1230z" stroke="none"  fill="#000000" fill-rule="nonzero" />
		<path  d="M3681 1113C 3680 1101 3685 1088 3690 1085C 3702 1078 3702 1087 3690 1115C 3682 1134 3681 1134 3681 1113z" stroke="none"  fill="#000000" fill-rule="nonzero" />
		<path  d="M3703 1063C 3700 1053 3695 1042 3693 1038C 3691 1033 3693 1030 3698 1030C 3703 1030 3710 1041 3712 1055C 3718 1084 3712 1088 3703 1063z" stroke="none"  fill="#000000" fill-rule="nonzero" />
		<path  d="M4482 1644C 4492 1634 4502 1629 4506 1632C 4509 1636 4501 1644 4488 1650C 4466 1662 4466 1662 4482 1644z" stroke="none"  fill="#000000" fill-rule="nonzero" />
		<path  d="M2787 1444C 2774 1431 2779 1075 2792 1062C 2806 1048 3087 1045 3108 1058C 3117 1065 3120 1111 3118 1256L3118 1256L3115 1445L2954 1448C 2866 1449 2791 1447 2787 1444zM2820 1427C 2793 1412 2784 1413 2795 1429C 2798 1435 2811 1440 2823 1440C 2844 1440 2844 1439 2820 1427zM3108 1420C 3112 1408 3110 1407 3099 1417C 3090 1424 3041 1431 2974 1433L2974 1433L2865 1436L2984 1436C 3081 1435 3104 1432 3108 1420zM3088 1390C 3090 1369 3086 1365 3065 1364C 3046 1362 3040 1367 3040 1384C 3039 1401 3037 1400 3026 1375C 3014 1350 3011 1348 3005 1362C 3001 1372 2993 1377 2987 1373C 2966 1360 2920 1365 2920 1380C 2919 1392 2917 1392 2906 1378C 2889 1356 2861 1355 2853 1376C 2848 1390 2844 1389 2829 1369L2829 1369L2810 1345L2810 1376C 2810 1393 2813 1410 2817 1414C 2821 1417 2883 1419 2954 1418L2954 1418L3085 1415L3088 1390zM2850 1340C 2850 1335 2857 1333 2865 1336C 2874 1340 2880 1336 2880 1329C 2881 1320 2886 1322 2896 1335C 2905 1347 2914 1351 2918 1345C 2926 1334 2980 1328 2980 1338C 2980 1342 3000 1345 3025 1345C 3066 1346 3070 1344 3070 1320C 3070 1300 3072 1298 3080 1310C 3087 1321 3090 1317 3090 1293C 3090 1257 3067 1247 3055 1278C 3049 1294 3048 1294 3039 1278C 3033 1268 3022 1260 3013 1260C 3004 1260 2991 1268 2984 1278C 2973 1292 2971 1292 2970 1280C 2970 1270 2960 1265 2940 1265C 2924 1265 2910 1268 2910 1273C 2910 1277 2906 1280 2900 1280C 2895 1280 2890 1273 2890 1265C 2890 1257 2886 1250 2880 1250C 2875 1250 2870 1259 2870 1270C 2870 1281 2866 1290 2860 1290C 2855 1290 2850 1283 2850 1274C 2850 1261 2847 1260 2836 1269C 2825 1278 2821 1278 2817 1268C 2814 1261 2811 1274 2811 1297C 2810 1335 2817 1347 2843 1349C 2847 1350 2850 1346 2850 1340zM2896 1241C 2899 1246 2907 1247 2913 1243C 2928 1234 2962 1234 2977 1243C 2984 1247 2993 1243 2999 1233C 3005 1223 3010 1220 3010 1227C 3010 1234 3017 1237 3025 1234C 3033 1230 3040 1232 3040 1238C 3040 1243 3051 1245 3065 1242C 3086 1238 3090 1232 3090 1204C 3090 1167 3067 1156 3055 1188C 3049 1204 3048 1204 3039 1188C 3028 1169 3002 1170 2989 1191C 2983 1201 2978 1202 2973 1194C 2963 1180 2910 1170 2910 1181C 2910 1186 2906 1190 2900 1190C 2895 1190 2890 1183 2890 1175C 2890 1167 2886 1160 2880 1160C 2875 1160 2870 1169 2870 1180C 2870 1191 2866 1200 2860 1200C 2855 1200 2850 1193 2850 1184C 2850 1171 2847 1170 2836 1179C 2825 1188 2821 1188 2817 1178C 2814 1171 2811 1175 2811 1188C 2810 1200 2815 1210 2820 1210C 2826 1210 2830 1219 2830 1229C 2830 1246 2834 1247 2860 1240C 2878 1235 2892 1235 2896 1241zM2916 1148C 2919 1145 2937 1146 2956 1150C 2983 1156 2993 1155 2997 1144C 3001 1133 3006 1132 3016 1141C 3024 1147 3030 1149 3030 1144C 3030 1139 3034 1140 3038 1147C 3042 1154 3055 1157 3068 1153C 3095 1146 3099 1096 3074 1086C 3050 1077 2837 1079 2821 1089C 2810 1096 2810 1103 2820 1126C 2831 1151 2838 1155 2872 1154C 2893 1153 2913 1150 2916 1148zM3099 1069C 3091 1064 3024 1060 2949 1060C 2831 1060 2811 1062 2799 1078C 2788 1092 2788 1093 2800 1083C 2810 1074 2856 1070 2952 1070C 3073 1070 3091 1072 3097 1087C 3102 1099 3105 1100 3108 1091C 3110 1084 3106 1074 3099 1069z" stroke="none"  fill="#000000" fill-rule="nonzero" />
		<path  d="M3180 1410C 3180 1397 3187 1390 3200 1390C 3213 1390 3220 1397 3220 1410C 3220 1423 3213 1430 3200 1430C 3187 1430 3180 1423 3180 1410zM3210 1410C 3210 1405 3206 1400 3200 1400C 3195 1400 3190 1405 3190 1410C 3190 1416 3195 1420 3200 1420C 3206 1420 3210 1416 3210 1410z" stroke="none"  fill="#000000" fill-rule="nonzero" />
		<path  d="M3292 1413C 3296 1391 3335 1388 3335 1410C 3335 1418 3324 1426 3312 1428C 3293 1431 3289 1428 3292 1413zM3320 1410C 3320 1405 3316 1400 3310 1400C 3305 1400 3300 1405 3300 1410C 3300 1416 3305 1420 3310 1420C 3316 1420 3320 1416 3320 1410z" stroke="none"  fill="#000000" fill-rule="nonzero" />
		<path  d="M3405 1420C 3401 1413 3402 1404 3408 1398C 3422 1384 3453 1396 3448 1413C 3442 1429 3414 1434 3405 1420z" stroke="none"  fill="#000000" fill-rule="nonzero" />
		<path  d="M3183 1324C 3175 1303 3196 1282 3211 1297C 3224 1310 3216 1340 3200 1340C 3194 1340 3187 1333 3183 1324z" stroke="none"  fill="#000000" fill-rule="nonzero" />
		<path  d="M3293 1324C 3284 1301 3306 1284 3325 1300C 3337 1310 3338 1316 3329 1326C 3314 1344 3301 1344 3293 1324z" stroke="none"  fill="#000000" fill-rule="nonzero" />
		<path  d="M3403 1324C 3400 1316 3402 1304 3409 1297C 3423 1283 3456 1312 3446 1329C 3436 1345 3410 1342 3403 1324zM3434 1309C 3431 1304 3424 1302 3419 1306C 3414 1309 3412 1316 3416 1321C 3419 1326 3426 1328 3431 1324C 3436 1321 3438 1314 3434 1309z" stroke="none"  fill="#000000" fill-rule="nonzero" />
		<path  d="M3180 1220C 3180 1207 3187 1200 3200 1200C 3213 1200 3220 1207 3220 1220C 3220 1233 3213 1240 3200 1240C 3187 1240 3180 1233 3180 1220zM3210 1220C 3210 1215 3206 1210 3200 1210C 3195 1210 3190 1215 3190 1220C 3190 1226 3195 1230 3200 1230C 3206 1230 3210 1226 3210 1220z" stroke="none"  fill="#000000" fill-rule="nonzero" />
		<path  d="M3295 1230C 3291 1223 3292 1214 3298 1208C 3312 1194 3343 1206 3338 1223C 3332 1239 3304 1244 3295 1230zM3320 1220C 3320 1215 3316 1210 3310 1210C 3305 1210 3300 1215 3300 1220C 3300 1226 3305 1230 3310 1230C 3316 1230 3320 1226 3320 1220z" stroke="none"  fill="#000000" fill-rule="nonzero" />
		<path  d="M3405 1230C 3401 1223 3402 1214 3408 1208C 3422 1194 3453 1206 3448 1223C 3442 1239 3414 1244 3405 1230z" stroke="none"  fill="#000000" fill-rule="nonzero" />
		<path  d="M3183 1134C 3175 1113 3196 1092 3211 1107C 3224 1120 3216 1150 3200 1150C 3194 1150 3187 1143 3183 1134z" stroke="none"  fill="#000000" fill-rule="nonzero" />
		<path  d="M3293 1134C 3290 1126 3292 1114 3298 1108C 3313 1093 3341 1116 3333 1136C 3326 1155 3301 1154 3293 1134zM3320 1130C 3320 1125 3315 1120 3309 1120C 3304 1120 3302 1125 3305 1130C 3308 1136 3313 1140 3316 1140C 3318 1140 3320 1136 3320 1130z" stroke="none"  fill="#000000" fill-rule="nonzero" />
		<path  d="M3404 1135C 3397 1117 3407 1100 3425 1100C 3440 1100 3449 1119 3443 1138C 3437 1155 3411 1153 3404 1135zM3427 1118C 3424 1110 3421 1113 3421 1124C 3420 1135 3423 1141 3426 1137C 3429 1134 3430 1125 3427 1118z" stroke="none"  fill="#000000" fill-rule="nonzero" />
		<path  d="M5173 645C 5173 623 5175 615 5177 628C 5179 640 5179 658 5177 668C 5174 677 5172 667 5173 645z" stroke="none"  fill="#000000" fill-rule="nonzero" />
	</g>
</g>
</svg>
