<?xml version="1.0" standalone="no"?>
<!DOCTYPE svg PUBLIC "-//W3C//DTD SVG 1.0//EN" "http://www.w3.org/TR/2001/REC-SVG-20010904/DTD/svg10.dtd">
<svg xmlns="http://www.w3.org/2000/svg" xmlns:xlink="http://www.w3.org/1999/xlink" id="body_1" width="44" height="36">

<g transform="matrix(0.11989101 0 0 0.11989101 -0 0.27248058)">
	<g transform="matrix(0.1 0 -0 -0.1 0 298)">
		<path  d="M200 2805L200 2630L225 2630C 248 2630 250 2627 250 2580C 250 2534 248 2530 226 2530C 205 2530 199 2521 176 2454C 154 2389 153 2376 165 2364C 185 2343 685 2343 705 2364C 717 2376 716 2389 694 2454C 670 2525 666 2530 639 2530C 611 2530 610 2531 610 2580C 610 2629 611 2630 640 2630L640 2630L670 2630L670 2805L670 2980L435 2980L200 2980L200 2805zM660 2805L660 2640L435 2640L210 2640L210 2805L210 2970L435 2970L660 2970L660 2805zM450 2600C 450 2589 446 2580 440 2580C 435 2580 430 2589 430 2600C 430 2611 435 2620 440 2620C 446 2620 450 2611 450 2600zM388 2603C 367 2601 331 2601 308 2603C 284 2605 301 2607 345 2607C 389 2607 408 2605 388 2603zM317 2514C 314 2511 305 2510 298 2513C 290 2516 293 2519 304 2519C 315 2520 321 2517 317 2514zM643 2513C 636 2511 624 2511 618 2513C 611 2516 616 2518 630 2518C 644 2518 649 2516 643 2513zM661 2448L680 2400L439 2400C 234 2400 199 2402 203 2414C 206 2422 212 2445 216 2464L216 2464L222 2500L432 2498L642 2495L661 2448z" stroke="none"  fill="#000000" fill-rule="nonzero" />
		<path  d="M220 2800L220 2650L430 2650L640 2650L640 2800L640 2950L430 2950L220 2950L220 2800zM630 2800L630 2660L435 2660L240 2660L240 2800L240 2940L435 2940L630 2940L630 2800z" stroke="none"  fill="#000000" fill-rule="nonzero" />
		<path  d="M230 2475C 230 2467 237 2460 245 2460C 253 2460 260 2467 260 2475C 260 2483 253 2490 245 2490C 237 2490 230 2483 230 2475z" stroke="none"  fill="#000000" fill-rule="nonzero" />
		<path  d="M280 2475C 280 2467 287 2460 295 2460C 303 2460 310 2467 310 2475C 310 2483 303 2490 295 2490C 287 2490 280 2483 280 2475z" stroke="none"  fill="#000000" fill-rule="nonzero" />
		<path  d="M330 2475C 330 2467 337 2460 345 2460C 353 2460 360 2467 360 2475C 360 2483 353 2490 345 2490C 337 2490 330 2483 330 2475z" stroke="none"  fill="#000000" fill-rule="nonzero" />
		<path  d="M380 2475C 380 2467 387 2460 395 2460C 403 2460 410 2467 410 2475C 410 2483 403 2490 395 2490C 387 2490 380 2483 380 2475z" stroke="none"  fill="#000000" fill-rule="nonzero" />
		<path  d="M430 2475C 430 2467 437 2460 445 2460C 453 2460 460 2467 460 2475C 460 2483 453 2490 445 2490C 437 2490 430 2483 430 2475z" stroke="none"  fill="#000000" fill-rule="nonzero" />
		<path  d="M490 2475C 490 2467 497 2460 505 2460C 514 2460 517 2466 514 2475C 510 2483 504 2490 499 2490C 494 2490 490 2483 490 2475z" stroke="none"  fill="#000000" fill-rule="nonzero" />
		<path  d="M537 2484C 524 2471 530 2460 551 2460C 562 2460 570 2465 568 2472C 563 2486 546 2493 537 2484z" stroke="none"  fill="#000000" fill-rule="nonzero" />
		<path  d="M590 2476C 590 2467 597 2460 606 2460C 623 2460 620 2482 602 2488C 595 2490 590 2485 590 2476z" stroke="none"  fill="#000000" fill-rule="nonzero" />
		<path  d="M230 2425C 230 2417 237 2410 245 2410C 253 2410 260 2417 260 2425C 260 2433 253 2440 245 2440C 237 2440 230 2433 230 2425z" stroke="none"  fill="#000000" fill-rule="nonzero" />
		<path  d="M280 2425C 280 2417 287 2410 295 2410C 303 2410 310 2417 310 2425C 310 2433 303 2440 295 2440C 287 2440 280 2433 280 2425z" stroke="none"  fill="#000000" fill-rule="nonzero" />
		<path  d="M330 2425C 330 2417 337 2410 345 2410C 353 2410 360 2417 360 2425C 360 2433 353 2440 345 2440C 337 2440 330 2433 330 2425z" stroke="none"  fill="#000000" fill-rule="nonzero" />
		<path  d="M380 2425C 380 2417 387 2410 395 2410C 403 2410 410 2417 410 2425C 410 2433 403 2440 395 2440C 387 2440 380 2433 380 2425z" stroke="none"  fill="#000000" fill-rule="nonzero" />
		<path  d="M430 2425C 430 2417 437 2410 445 2410C 453 2410 460 2417 460 2425C 460 2433 453 2440 445 2440C 437 2440 430 2433 430 2425z" stroke="none"  fill="#000000" fill-rule="nonzero" />
		<path  d="M490 2425C 490 2417 496 2410 503 2410C 511 2410 517 2417 517 2425C 517 2433 511 2440 503 2440C 496 2440 490 2433 490 2425z" stroke="none"  fill="#000000" fill-rule="nonzero" />
		<path  d="M535 2429C 525 2414 536 2406 555 2414C 564 2417 568 2424 565 2430C 557 2443 543 2443 535 2429z" stroke="none"  fill="#000000" fill-rule="nonzero" />
		<path  d="M590 2425C 590 2417 597 2410 605 2410C 613 2410 620 2417 620 2425C 620 2433 613 2440 605 2440C 597 2440 590 2433 590 2425z" stroke="none"  fill="#000000" fill-rule="nonzero" />
		<path  d="M1926 2936L1890 2892L1890 2411L1890 1930L2140 1930L2389 1930L2306 1813L2222 1695L1961 1692L1700 1690L1700 1822L1700 1955L1762 1954C 1851 1952 1857 1960 1827 2057C 1806 2128 1801 2135 1774 2140C 1748 2145 1745 2149 1744 2188C 1743 2228 1744 2230 1771 2230L1771 2230L1800 2230L1800 2410L1800 2590L1565 2590L1330 2590L1330 2410C 1330 2311 1333 2231 1338 2231C 1373 2237 1380 2229 1380 2185C 1380 2144 1378 2140 1356 2140C 1334 2140 1329 2131 1305 2059C 1269 1948 1265 1951 1498 1950L1498 1950L1680 1950L1680 1820L1680 1690L1601 1690C 1524 1690 1521 1691 1495 1723C 1480 1740 1429 1796 1381 1845C 1334 1895 1189 2048 1060 2185C 811 2450 681 2584 721 2535C 734 2519 777 2471 816 2430C 855 2389 925 2315 971 2265C 1018 2216 1135 2092 1231 1990C 1326 1888 1428 1780 1457 1750L1457 1750L1509 1696L1484 1685C 1466 1678 1570 1676 1832 1678C 2066 1680 2215 1677 2230 1671C 2247 1664 2129 1661 1845 1661C 1620 1661 1427 1661 1418 1660C 1407 1660 1400 1652 1400 1640C 1400 1620 1393 1620 1030 1620L1030 1620L660 1620L660 1750L660 1880L425 1880L190 1880L190 1705L190 1530L215 1530C 238 1530 240 1527 240 1480C 240 1434 238 1430 216 1430C 195 1430 189 1421 166 1354C 144 1289 143 1276 155 1264C 175 1243 675 1243 695 1264C 707 1276 706 1289 684 1354C 660 1425 656 1430 629 1430C 601 1430 600 1431 600 1480C 600 1529 601 1530 630 1530C 658 1530 660 1533 660 1565L660 1565L660 1600L1030 1600L1400 1600L1400 1565L1400 1530L1855 1530L2310 1530L2310 1593L2310 1656L2269 1671L2228 1686L2263 1735C 2283 1763 2321 1817 2348 1855C 2375 1894 2457 2011 2531 2115C 2605 2220 2686 2334 2711 2370C 2737 2406 2796 2491 2844 2559C 2892 2626 2930 2684 2928 2685C 2926 2687 2805 2520 2660 2314L2660 2314L2395 1939L2390 2417L2385 2895L2356 2938L2327 2980L2145 2980L1962 2980L1926 2936zM2344 2930L2370 2890L2140 2890L1910 2890L1938 2930L1965 2969L2141 2970L2317 2970L2344 2930zM2125 2410L2125 1940L2013 1940L1900 1940L1900 2005L1900 2070L2008 2072L2115 2074L2008 2077L1900 2081L1900 2125L1900 2170L2008 2172L2115 2174L2008 2177L1900 2181L1900 2530L1900 2880L2013 2880L2125 2880L2125 2410zM2374 2777C 2373 2721 2372 2510 2371 2308L2371 2308L2370 1940L2255 1940L2140 1940L2140 2315L2140 2690L2250 2690C 2341 2690 2360 2693 2360 2705C 2360 2717 2341 2720 2250 2720L2250 2720L2140 2720L2140 2800L2140 2880L2258 2880L2375 2880L2374 2777zM2308 2703C 2282 2701 2237 2701 2208 2703C 2179 2705 2200 2706 2255 2706C 2310 2706 2334 2705 2308 2703zM1790 2410L1790 2250L1565 2250L1340 2250L1340 2410L1340 2570L1565 2570L1790 2570L1790 2410zM1580 2210C 1580 2199 1576 2190 1570 2190C 1565 2190 1560 2199 1560 2210C 1560 2221 1565 2230 1570 2230C 1576 2230 1580 2221 1580 2210zM1513 2213C 1495 2211 1465 2211 1448 2213C 1430 2215 1444 2217 1480 2217C 1516 2217 1530 2215 1513 2213zM1416 2083C 1416 2074 1421 2065 1429 2062C 1439 2059 1442 2064 1438 2082C 1434 2102 1437 2106 1450 2103C 1460 2100 1467 2091 1466 2083C 1466 2074 1471 2065 1478 2063C 1485 2060 1490 2067 1490 2079C 1490 2091 1496 2100 1505 2100C 1513 2100 1517 2094 1514 2086C 1507 2067 1530 2054 1540 2071C 1545 2078 1546 2088 1544 2092C 1541 2096 1545 2100 1553 2100C 1561 2100 1567 2092 1566 2083C 1566 2073 1572 2065 1580 2065C 1588 2065 1594 2073 1594 2083C 1593 2092 1598 2100 1606 2100C 1614 2100 1620 2091 1620 2080C 1620 2058 1635 2053 1646 2071C 1649 2077 1646 2086 1639 2091C 1629 2097 1631 2100 1648 2100C 1664 2100 1670 2094 1670 2079C 1670 2067 1675 2060 1683 2063C 1689 2065 1694 2075 1694 2084C 1693 2093 1696 2100 1701 2100C 1706 2100 1713 2100 1717 2100C 1721 2100 1725 2093 1725 2085C 1725 2063 1744 2066 1750 2089C 1757 2118 1777 2102 1794 2052L1794 2052L1809 2010L1569 2010C 1345 2010 1329 2011 1334 2028C 1337 2037 1342 2057 1346 2073C 1352 2100 1369 2112 1366 2088C 1365 2073 1384 2070 1386 2085C 1387 2091 1388 2098 1389 2102C 1391 2117 1418 2098 1416 2083zM650 1705L650 1540L425 1540L200 1540L200 1705L200 1870L425 1870L650 1870L650 1705zM2300 1590L2300 1540L2185 1540L2070 1540L2070 1575L2070 1610L1740 1610C 1453 1610 1410 1612 1410 1625C 1410 1638 1466 1640 1855 1640L1855 1640L2300 1640L2300 1590zM1460 1575C 1460 1557 1455 1550 1440 1550C 1425 1550 1420 1557 1420 1575C 1420 1593 1425 1600 1440 1600C 1455 1600 1460 1593 1460 1575zM1500 1575C 1500 1559 1494 1550 1485 1550C 1476 1550 1470 1559 1470 1575C 1470 1591 1476 1600 1485 1600C 1494 1600 1500 1591 1500 1575zM1540 1575C 1540 1559 1534 1550 1525 1550C 1516 1550 1510 1559 1510 1575C 1510 1591 1516 1600 1525 1600C 1534 1600 1540 1591 1540 1575zM1580 1575C 1580 1559 1574 1550 1565 1550C 1556 1550 1550 1559 1550 1575C 1550 1591 1556 1600 1565 1600C 1574 1600 1580 1591 1580 1575zM1630 1575C 1630 1557 1625 1550 1610 1550C 1595 1550 1590 1557 1590 1575C 1590 1593 1595 1600 1610 1600C 1625 1600 1630 1593 1630 1575zM1670 1575C 1670 1559 1664 1550 1655 1550C 1646 1550 1640 1559 1640 1575C 1640 1591 1646 1600 1655 1600C 1664 1600 1670 1591 1670 1575zM1710 1575C 1710 1559 1704 1550 1695 1550C 1686 1550 1680 1559 1680 1575C 1680 1591 1686 1600 1695 1600C 1704 1600 1710 1591 1710 1575zM1760 1575C 1760 1559 1754 1550 1745 1550C 1736 1550 1730 1559 1730 1575C 1730 1591 1736 1600 1745 1600C 1754 1600 1760 1591 1760 1575zM1800 1575C 1800 1559 1794 1550 1785 1550C 1776 1550 1770 1559 1770 1575C 1770 1591 1776 1600 1785 1600C 1794 1600 1800 1591 1800 1575zM1840 1575C 1840 1559 1834 1550 1825 1550C 1816 1550 1810 1559 1810 1575C 1810 1591 1816 1600 1825 1600C 1834 1600 1840 1591 1840 1575zM1880 1575C 1880 1559 1874 1550 1865 1550C 1856 1550 1850 1559 1850 1575C 1850 1591 1856 1600 1865 1600C 1874 1600 1880 1591 1880 1575zM1920 1575C 1920 1559 1914 1550 1905 1550C 1896 1550 1890 1559 1890 1575C 1890 1591 1896 1600 1905 1600C 1914 1600 1920 1591 1920 1575zM1970 1575C 1970 1559 1964 1550 1955 1550C 1946 1550 1940 1559 1940 1575C 1940 1591 1946 1600 1955 1600C 1964 1600 1970 1591 1970 1575zM2010 1575C 2010 1559 2004 1550 1995 1550C 1986 1550 1980 1559 1980 1575C 1980 1591 1986 1600 1995 1600C 2004 1600 2010 1591 2010 1575zM2060 1575C 2060 1557 2055 1550 2040 1550C 2025 1550 2020 1557 2020 1575C 2020 1593 2025 1600 2040 1600C 2055 1600 2060 1593 2060 1575zM440 1500C 440 1489 436 1480 430 1480C 425 1480 420 1489 420 1500C 420 1511 425 1520 430 1520C 436 1520 440 1511 440 1500zM378 1503C 357 1501 321 1501 298 1503C 274 1505 291 1507 335 1507C 379 1507 398 1505 378 1503zM277 1414C 274 1411 265 1410 258 1413C 250 1416 253 1419 264 1419C 275 1420 281 1417 277 1414zM367 1414C 364 1411 355 1410 348 1413C 340 1416 343 1419 354 1419C 365 1420 371 1417 367 1414zM527 1414C 524 1411 515 1410 508 1413C 500 1416 503 1419 514 1419C 525 1420 531 1417 527 1414zM645 1364C 673 1297 684 1300 424 1300C 223 1300 189 1302 193 1314C 196 1322 202 1345 206 1364L206 1364L212 1400L421 1400L630 1400L645 1364z" stroke="none"  fill="#000000" fill-rule="nonzero" />
		<path  d="M1930 2690L1930 2620L2020 2620L2110 2620L2110 2690L2110 2760L2020 2760L1930 2760L1930 2690zM2092 2733C 2094 2724 2093 2697 2091 2673L2091 2673L2088 2630L2014 2630L1940 2630L1940 2690L1940 2750L2014 2750C 2076 2750 2089 2747 2092 2733z" stroke="none"  fill="#000000" fill-rule="nonzero" />
		<path  d="M1910 2140C 1910 2134 1950 2130 2010 2130C 2070 2130 2110 2134 2110 2140C 2110 2146 2070 2150 2010 2150C 1950 2150 1910 2146 1910 2140z" stroke="none"  fill="#000000" fill-rule="nonzero" />
		<path  d="M1910 2110C 1910 2104 1950 2100 2010 2100C 2070 2100 2110 2104 2110 2110C 2110 2116 2070 2120 2010 2120C 1950 2120 1910 2116 1910 2110z" stroke="none"  fill="#000000" fill-rule="nonzero" />
		<path  d="M1357 2553C 1353 2550 1350 2482 1350 2403L1350 2403L1350 2260L1560 2260L1770 2260L1770 2410L1770 2560L1567 2560C 1455 2560 1360 2557 1357 2553zM1760 2405L1760 2270L1565 2270L1370 2270L1370 2405L1370 2540L1565 2540L1760 2540L1760 2405z" stroke="none"  fill="#000000" fill-rule="nonzero" />
		<path  d="M1360 2035C 1360 2027 1367 2020 1375 2020C 1383 2020 1390 2027 1390 2035C 1390 2043 1383 2050 1375 2050C 1367 2050 1360 2043 1360 2035z" stroke="none"  fill="#000000" fill-rule="nonzero" />
		<path  d="M1410 2035C 1410 2027 1417 2020 1425 2020C 1433 2020 1440 2027 1440 2035C 1440 2043 1433 2050 1425 2050C 1417 2050 1410 2043 1410 2035z" stroke="none"  fill="#000000" fill-rule="nonzero" />
		<path  d="M1467 2043C 1455 2032 1459 2020 1475 2020C 1483 2020 1490 2027 1490 2035C 1490 2051 1478 2055 1467 2043z" stroke="none"  fill="#000000" fill-rule="nonzero" />
		<path  d="M1515 2039C 1505 2024 1516 2016 1535 2024C 1544 2027 1548 2034 1545 2040C 1537 2053 1523 2053 1515 2039z" stroke="none"  fill="#000000" fill-rule="nonzero" />
		<path  d="M1567 2044C 1554 2031 1560 2020 1581 2020C 1592 2020 1600 2025 1598 2032C 1593 2046 1576 2053 1567 2044z" stroke="none"  fill="#000000" fill-rule="nonzero" />
		<path  d="M1620 2035C 1620 2027 1627 2020 1635 2020C 1643 2020 1650 2027 1650 2035C 1650 2043 1643 2050 1635 2050C 1627 2050 1620 2043 1620 2035z" stroke="none"  fill="#000000" fill-rule="nonzero" />
		<path  d="M1667 2035C 1662 2025 1667 2020 1681 2020C 1693 2020 1700 2025 1698 2032C 1692 2050 1673 2052 1667 2035z" stroke="none"  fill="#000000" fill-rule="nonzero" />
		<path  d="M1720 2035C 1720 2027 1727 2020 1735 2020C 1743 2020 1750 2027 1750 2035C 1750 2043 1743 2050 1735 2050C 1727 2050 1720 2043 1720 2035z" stroke="none"  fill="#000000" fill-rule="nonzero" />
		<path  d="M210 1700L210 1550L420 1550L630 1550L630 1700L630 1850L420 1850L210 1850L210 1700zM620 1700L620 1560L425 1560L230 1560L230 1700L230 1840L425 1840L620 1840L620 1700z" stroke="none"  fill="#000000" fill-rule="nonzero" />
		<path  d="M2120 1590L2120 1550L2205 1550L2290 1550L2290 1590L2290 1630L2205 1630L2120 1630L2120 1590zM2280 1590L2280 1560L2205 1560L2130 1560L2130 1590L2130 1620L2205 1620L2280 1620L2280 1590z" stroke="none"  fill="#000000" fill-rule="nonzero" />
		<path  d="M220 1375C 220 1367 227 1360 235 1360C 243 1360 250 1367 250 1375C 250 1383 243 1390 235 1390C 227 1390 220 1383 220 1375z" stroke="none"  fill="#000000" fill-rule="nonzero" />
		<path  d="M270 1375C 270 1367 277 1360 285 1360C 293 1360 300 1367 300 1375C 300 1383 293 1390 285 1390C 277 1390 270 1383 270 1375z" stroke="none"  fill="#000000" fill-rule="nonzero" />
		<path  d="M320 1375C 320 1367 327 1360 335 1360C 343 1360 350 1367 350 1375C 350 1383 343 1390 335 1390C 327 1390 320 1383 320 1375z" stroke="none"  fill="#000000" fill-rule="nonzero" />
		<path  d="M370 1375C 370 1367 377 1360 385 1360C 393 1360 400 1367 400 1375C 400 1383 393 1390 385 1390C 377 1390 370 1383 370 1375z" stroke="none"  fill="#000000" fill-rule="nonzero" />
		<path  d="M420 1375C 420 1367 427 1360 435 1360C 443 1360 450 1367 450 1375C 450 1383 443 1390 435 1390C 427 1390 420 1383 420 1375z" stroke="none"  fill="#000000" fill-rule="nonzero" />
		<path  d="M480 1376C 480 1367 487 1360 496 1360C 513 1360 510 1382 492 1388C 485 1390 480 1385 480 1376z" stroke="none"  fill="#000000" fill-rule="nonzero" />
		<path  d="M527 1384C 514 1371 520 1360 541 1360C 552 1360 560 1365 558 1372C 553 1386 536 1393 527 1384z" stroke="none"  fill="#000000" fill-rule="nonzero" />
		<path  d="M580 1375C 580 1367 587 1360 595 1360C 603 1360 610 1367 610 1375C 610 1383 603 1390 595 1390C 587 1390 580 1383 580 1375z" stroke="none"  fill="#000000" fill-rule="nonzero" />
		<path  d="M220 1325C 220 1317 227 1310 235 1310C 243 1310 250 1317 250 1325C 250 1333 243 1340 235 1340C 227 1340 220 1333 220 1325z" stroke="none"  fill="#000000" fill-rule="nonzero" />
		<path  d="M270 1325C 270 1317 277 1310 285 1310C 293 1310 300 1317 300 1325C 300 1333 293 1340 285 1340C 277 1340 270 1333 270 1325z" stroke="none"  fill="#000000" fill-rule="nonzero" />
		<path  d="M320 1325C 320 1317 327 1310 335 1310C 343 1310 350 1317 350 1325C 350 1333 343 1340 335 1340C 327 1340 320 1333 320 1325z" stroke="none"  fill="#000000" fill-rule="nonzero" />
		<path  d="M370 1325C 370 1317 377 1310 385 1310C 393 1310 400 1317 400 1325C 400 1333 393 1340 385 1340C 377 1340 370 1333 370 1325z" stroke="none"  fill="#000000" fill-rule="nonzero" />
		<path  d="M420 1325C 420 1317 427 1310 435 1310C 443 1310 450 1317 450 1325C 450 1333 443 1340 435 1340C 427 1340 420 1333 420 1325z" stroke="none"  fill="#000000" fill-rule="nonzero" />
		<path  d="M480 1325C 480 1316 485 1310 491 1312C 497 1314 502 1320 502 1325C 502 1330 497 1336 491 1338C 485 1340 480 1334 480 1325z" stroke="none"  fill="#000000" fill-rule="nonzero" />
		<path  d="M525 1331C 518 1319 537 1307 550 1315C 561 1322 554 1340 540 1340C 535 1340 529 1336 525 1331z" stroke="none"  fill="#000000" fill-rule="nonzero" />
		<path  d="M580 1325C 580 1317 587 1310 595 1310C 603 1310 610 1317 610 1325C 610 1333 603 1340 595 1340C 587 1340 580 1333 580 1325z" stroke="none"  fill="#000000" fill-rule="nonzero" />
		<path  d="M2960 2785L2960 2610L2985 2610C 3008 2610 3010 2607 3010 2560C 3010 2514 3008 2510 2986 2510C 2965 2510 2959 2501 2936 2434C 2914 2369 2913 2356 2925 2344C 2945 2323 3445 2323 3465 2344C 3477 2356 3476 2369 3454 2434C 3430 2505 3426 2510 3399 2510C 3371 2510 3370 2511 3370 2560C 3370 2609 3371 2610 3400 2610L3400 2610L3430 2610L3430 2785L3430 2960L3195 2960L2960 2960L2960 2785zM3420 2785L3420 2620L3195 2620L2970 2620L2970 2785L2970 2950L3195 2950L3420 2950L3420 2785zM3210 2580C 3210 2569 3206 2560 3200 2560C 3195 2560 3190 2569 3190 2580C 3190 2591 3195 2600 3200 2600C 3206 2600 3210 2591 3210 2580zM3148 2583C 3127 2581 3091 2581 3068 2583C 3044 2585 3061 2587 3105 2587C 3149 2587 3168 2585 3148 2583zM3421 2428L3440 2380L3199 2380C 2994 2380 2959 2382 2963 2394C 2966 2402 2972 2425 2976 2444L2976 2444L2982 2480L3192 2478L3402 2475L3421 2428z" stroke="none"  fill="#000000" fill-rule="nonzero" />
		<path  d="M2980 2780L2980 2630L3190 2630L3400 2630L3400 2780L3400 2930L3190 2930L2980 2930L2980 2780zM3390 2780L3390 2640L3195 2640L3000 2640L3000 2780L3000 2920L3195 2920L3390 2920L3390 2780z" stroke="none"  fill="#000000" fill-rule="nonzero" />
		<path  d="M2990 2455C 2990 2447 2997 2440 3005 2440C 3013 2440 3020 2447 3020 2455C 3020 2463 3013 2470 3005 2470C 2997 2470 2990 2463 2990 2455z" stroke="none"  fill="#000000" fill-rule="nonzero" />
		<path  d="M3040 2455C 3040 2447 3047 2440 3055 2440C 3063 2440 3070 2447 3070 2455C 3070 2463 3063 2470 3055 2470C 3047 2470 3040 2463 3040 2455z" stroke="none"  fill="#000000" fill-rule="nonzero" />
		<path  d="M3090 2455C 3090 2447 3097 2440 3105 2440C 3113 2440 3120 2447 3120 2455C 3120 2463 3113 2470 3105 2470C 3097 2470 3090 2463 3090 2455z" stroke="none"  fill="#000000" fill-rule="nonzero" />
		<path  d="M3140 2455C 3140 2447 3147 2440 3155 2440C 3163 2440 3170 2447 3170 2455C 3170 2463 3163 2470 3155 2470C 3147 2470 3140 2463 3140 2455z" stroke="none"  fill="#000000" fill-rule="nonzero" />
		<path  d="M3197 2463C 3185 2452 3189 2440 3205 2440C 3213 2440 3220 2447 3220 2455C 3220 2471 3208 2475 3197 2463z" stroke="none"  fill="#000000" fill-rule="nonzero" />
		<path  d="M3250 2456C 3250 2447 3257 2440 3266 2440C 3283 2440 3280 2462 3262 2468C 3255 2470 3250 2465 3250 2456z" stroke="none"  fill="#000000" fill-rule="nonzero" />
		<path  d="M3295 2459C 3285 2444 3296 2436 3315 2444C 3324 2447 3328 2454 3325 2460C 3317 2473 3303 2473 3295 2459z" stroke="none"  fill="#000000" fill-rule="nonzero" />
		<path  d="M3350 2455C 3350 2447 3357 2440 3365 2440C 3373 2440 3380 2447 3380 2455C 3380 2463 3373 2470 3365 2470C 3357 2470 3350 2463 3350 2455z" stroke="none"  fill="#000000" fill-rule="nonzero" />
		<path  d="M2990 2405C 2990 2397 2997 2390 3005 2390C 3013 2390 3020 2397 3020 2405C 3020 2413 3013 2420 3005 2420C 2997 2420 2990 2413 2990 2405z" stroke="none"  fill="#000000" fill-rule="nonzero" />
		<path  d="M3040 2405C 3040 2397 3047 2390 3055 2390C 3063 2390 3070 2397 3070 2405C 3070 2413 3063 2420 3055 2420C 3047 2420 3040 2413 3040 2405z" stroke="none"  fill="#000000" fill-rule="nonzero" />
		<path  d="M3090 2405C 3090 2397 3097 2390 3105 2390C 3113 2390 3120 2397 3120 2405C 3120 2413 3113 2420 3105 2420C 3097 2420 3090 2413 3090 2405z" stroke="none"  fill="#000000" fill-rule="nonzero" />
		<path  d="M3140 2405C 3140 2397 3147 2390 3155 2390C 3163 2390 3170 2397 3170 2405C 3170 2413 3163 2420 3155 2420C 3147 2420 3140 2413 3140 2405z" stroke="none"  fill="#000000" fill-rule="nonzero" />
		<path  d="M3190 2405C 3190 2397 3197 2390 3205 2390C 3213 2390 3220 2397 3220 2405C 3220 2413 3213 2420 3205 2420C 3197 2420 3190 2413 3190 2405z" stroke="none"  fill="#000000" fill-rule="nonzero" />
		<path  d="M3250 2405C 3250 2396 3255 2390 3261 2392C 3267 2394 3272 2400 3272 2405C 3272 2410 3267 2416 3261 2418C 3255 2420 3250 2414 3250 2405z" stroke="none"  fill="#000000" fill-rule="nonzero" />
		<path  d="M3295 2409C 3285 2394 3296 2386 3315 2394C 3324 2397 3328 2404 3325 2410C 3317 2423 3303 2423 3295 2409z" stroke="none"  fill="#000000" fill-rule="nonzero" />
		<path  d="M3350 2405C 3350 2397 3357 2390 3365 2390C 3373 2390 3380 2397 3380 2405C 3380 2413 3373 2420 3365 2420C 3357 2420 3350 2413 3350 2405z" stroke="none"  fill="#000000" fill-rule="nonzero" />
		<path  d="M1417 2813C 1404 2801 1410 2790 1435 2778C 1469 2763 1467 2746 1433 2755C 1412 2760 1408 2759 1416 2750C 1430 2736 1472 2741 1478 2757C 1480 2764 1470 2775 1456 2781C 1422 2797 1422 2814 1456 2806C 1473 2801 1479 2803 1475 2810C 1468 2821 1427 2824 1417 2813z" stroke="none"  fill="#000000" fill-rule="nonzero" />
		<path  d="M1504 2786C 1501 2777 1500 2763 1504 2755C 1510 2738 1546 2735 1556 2751C 1560 2759 1556 2760 1541 2755C 1529 2751 1520 2753 1520 2759C 1520 2765 1529 2770 1541 2770C 1568 2770 1560 2794 1532 2798C 1519 2800 1507 2795 1504 2786z" stroke="none"  fill="#000000" fill-rule="nonzero" />
		<path  d="M1580 2770C 1580 2754 1585 2740 1590 2740C 1596 2740 1600 2749 1600 2760C 1600 2770 1608 2784 1618 2789C 1632 2798 1631 2799 1608 2800C 1584 2800 1580 2796 1580 2770z" stroke="none"  fill="#000000" fill-rule="nonzero" />
		<path  d="M1640 2795C 1640 2784 1664 2740 1670 2740C 1680 2740 1702 2792 1695 2799C 1692 2802 1684 2798 1679 2790C 1671 2779 1667 2778 1663 2788C 1659 2799 1640 2806 1640 2795z" stroke="none"  fill="#000000" fill-rule="nonzero" />
		<path  d="M1724 2786C 1721 2777 1720 2763 1724 2755C 1730 2738 1766 2735 1776 2751C 1780 2759 1776 2760 1761 2755C 1749 2751 1740 2753 1740 2759C 1740 2765 1749 2770 1761 2770C 1788 2770 1780 2794 1752 2798C 1739 2800 1727 2795 1724 2786z" stroke="none"  fill="#000000" fill-rule="nonzero" />
		<path  d="M1800 2770C 1800 2754 1805 2740 1810 2740C 1816 2740 1820 2749 1820 2760C 1820 2770 1828 2784 1838 2789C 1852 2798 1851 2799 1828 2800C 1804 2800 1800 2796 1800 2770z" stroke="none"  fill="#000000" fill-rule="nonzero" />
		<path  d="M260 2295C 260 2270 265 2250 270 2250C 276 2250 280 2255 280 2262C 280 2271 283 2271 292 2262C 309 2245 325 2247 310 2265C 300 2277 300 2283 310 2295C 325 2313 309 2315 292 2298C 283 2289 280 2292 280 2313C 280 2328 276 2340 270 2340C 265 2340 260 2320 260 2295z" stroke="none"  fill="#000000" fill-rule="nonzero" />
		<path  d="M14 2314C 17 2305 20 2293 20 2287C 20 2280 25 2268 30 2260C 39 2247 41 2247 51 2260C 59 2271 63 2272 67 2263C 76 2240 89 2250 99 2287C 110 2326 105 2344 89 2320C 81 2307 79 2307 70 2320C 61 2333 59 2333 49 2320C 41 2309 37 2308 33 2318C 26 2336 7 2333 14 2314z" stroke="none"  fill="#000000" fill-rule="nonzero" />
		<path  d="M408 2318C 399 2293 416 2255 435 2253C 446 2251 449 2253 443 2256C 427 2263 426 2300 441 2300C 447 2300 445 2307 436 2315C 418 2333 413 2334 408 2318z" stroke="none"  fill="#000000" fill-rule="nonzero" />
		<path  d="M538 2318C 529 2293 546 2255 565 2253C 576 2251 579 2253 573 2256C 557 2263 556 2300 571 2300C 577 2300 575 2307 566 2315C 548 2333 543 2334 538 2318z" stroke="none"  fill="#000000" fill-rule="nonzero" />
		<path  d="M3080 2275C 3080 2250 3085 2230 3090 2230C 3096 2230 3100 2235 3100 2242C 3100 2251 3103 2251 3112 2242C 3129 2225 3145 2227 3130 2245C 3120 2257 3120 2263 3130 2275C 3145 2293 3129 2295 3112 2278C 3103 2269 3100 2272 3100 2293C 3100 2308 3096 2320 3090 2320C 3085 2320 3080 2300 3080 2275z" stroke="none"  fill="#000000" fill-rule="nonzero" />
		<path  d="M124 2296C 114 2270 128 2248 152 2252C 169 2254 175 2262 175 2280C 175 2298 169 2306 152 2308C 139 2310 127 2305 124 2296zM160 2280C 160 2269 156 2260 150 2260C 145 2260 140 2269 140 2280C 140 2291 145 2300 150 2300C 156 2300 160 2291 160 2280z" stroke="none"  fill="#000000" fill-rule="nonzero" />
		<path  d="M200 2280C 200 2264 205 2250 210 2250C 216 2250 220 2259 220 2270C 220 2280 228 2294 238 2299C 252 2308 251 2309 228 2310C 204 2310 200 2306 200 2280z" stroke="none"  fill="#000000" fill-rule="nonzero" />
		<path  d="M344 2299C 340 2292 345 2283 356 2277C 373 2267 373 2266 355 2259C 336 2252 336 2251 357 2251C 386 2250 397 2270 374 2283C 357 2293 357 2294 375 2301C 394 2308 394 2309 373 2309C 361 2310 348 2305 344 2299z" stroke="none"  fill="#000000" fill-rule="nonzero" />
		<path  d="M484 2302C 503 2294 503 2293 481 2287C 450 2279 459 2256 494 2252C 519 2249 521 2251 518 2277C 516 2299 509 2306 490 2307C 469 2309 468 2308 484 2302zM500 2270C 500 2265 496 2260 490 2260C 485 2260 480 2265 480 2270C 480 2276 485 2280 490 2280C 496 2280 500 2276 500 2270z" stroke="none"  fill="#000000" fill-rule="nonzero" />
		<path  d="M590 2280C 590 2264 595 2250 600 2250C 606 2250 610 2264 610 2280C 610 2297 606 2310 600 2310C 595 2310 590 2297 590 2280z" stroke="none"  fill="#000000" fill-rule="nonzero" />
		<path  d="M634 2296C 624 2270 638 2248 662 2252C 679 2254 685 2262 685 2280C 685 2298 679 2306 662 2308C 649 2310 637 2305 634 2296zM670 2280C 670 2269 666 2260 660 2260C 655 2260 650 2269 650 2280C 650 2291 655 2300 660 2300C 666 2300 670 2291 670 2280z" stroke="none"  fill="#000000" fill-rule="nonzero" />
		<path  d="M710 2281C 710 2264 715 2250 720 2250C 726 2250 730 2261 730 2275C 730 2289 735 2300 740 2300C 746 2300 750 2289 750 2275C 750 2261 755 2250 761 2250C 767 2250 770 2262 768 2278C 766 2299 759 2306 738 2308C 713 2311 710 2308 710 2281z" stroke="none"  fill="#000000" fill-rule="nonzero" />
		<path  d="M2834 2294C 2837 2285 2840 2273 2840 2267C 2840 2260 2845 2248 2850 2240C 2859 2227 2861 2227 2871 2240C 2879 2251 2883 2252 2887 2243C 2896 2220 2909 2230 2919 2267C 2930 2306 2925 2324 2909 2300C 2901 2287 2899 2287 2890 2300C 2881 2313 2879 2313 2869 2300C 2861 2289 2857 2288 2853 2298C 2846 2316 2827 2313 2834 2294z" stroke="none"  fill="#000000" fill-rule="nonzero" />
		<path  d="M3228 2298C 3219 2273 3236 2235 3255 2233C 3266 2231 3269 2233 3263 2236C 3247 2243 3246 2280 3261 2280C 3267 2280 3265 2287 3256 2295C 3238 2313 3233 2314 3228 2298z" stroke="none"  fill="#000000" fill-rule="nonzero" />
		<path  d="M3358 2298C 3349 2273 3366 2235 3385 2233C 3396 2231 3399 2233 3393 2236C 3377 2243 3376 2280 3391 2280C 3397 2280 3395 2287 3386 2295C 3368 2313 3363 2314 3358 2298z" stroke="none"  fill="#000000" fill-rule="nonzero" />
		<path  d="M2944 2276C 2934 2250 2948 2228 2972 2232C 2989 2234 2995 2242 2995 2260C 2995 2278 2989 2286 2972 2288C 2959 2290 2947 2285 2944 2276zM2980 2260C 2980 2249 2976 2240 2970 2240C 2965 2240 2960 2249 2960 2260C 2960 2271 2965 2280 2970 2280C 2976 2280 2980 2271 2980 2260z" stroke="none"  fill="#000000" fill-rule="nonzero" />
		<path  d="M3020 2260C 3020 2244 3025 2230 3030 2230C 3036 2230 3040 2239 3040 2250C 3040 2260 3048 2274 3058 2279C 3072 2288 3071 2289 3048 2290C 3024 2290 3020 2286 3020 2260z" stroke="none"  fill="#000000" fill-rule="nonzero" />
		<path  d="M3164 2279C 3160 2272 3165 2263 3176 2257C 3193 2247 3193 2246 3175 2239C 3156 2232 3156 2231 3177 2231C 3206 2230 3217 2250 3194 2263C 3177 2273 3177 2274 3195 2281C 3214 2288 3214 2289 3193 2289C 3181 2290 3168 2285 3164 2279z" stroke="none"  fill="#000000" fill-rule="nonzero" />
		<path  d="M3304 2282C 3323 2274 3323 2273 3301 2267C 3270 2259 3279 2236 3314 2232C 3339 2229 3341 2231 3338 2257C 3336 2279 3329 2286 3310 2287C 3289 2289 3288 2288 3304 2282zM3320 2250C 3320 2245 3316 2240 3310 2240C 3305 2240 3300 2245 3300 2250C 3300 2256 3305 2260 3310 2260C 3316 2260 3320 2256 3320 2250z" stroke="none"  fill="#000000" fill-rule="nonzero" />
		<path  d="M3410 2260C 3410 2244 3415 2230 3420 2230C 3426 2230 3430 2244 3430 2260C 3430 2277 3426 2290 3420 2290C 3415 2290 3410 2277 3410 2260z" stroke="none"  fill="#000000" fill-rule="nonzero" />
		<path  d="M3454 2276C 3444 2250 3458 2228 3482 2232C 3499 2234 3505 2242 3505 2260C 3505 2278 3499 2286 3482 2288C 3469 2290 3457 2285 3454 2276zM3490 2260C 3490 2249 3486 2240 3480 2240C 3475 2240 3470 2249 3470 2260C 3470 2271 3475 2280 3480 2280C 3486 2280 3490 2271 3490 2260z" stroke="none"  fill="#000000" fill-rule="nonzero" />
		<path  d="M3530 2261C 3530 2244 3535 2230 3540 2230C 3546 2230 3550 2241 3550 2255C 3550 2269 3555 2280 3560 2280C 3566 2280 3570 2269 3570 2255C 3570 2241 3575 2230 3581 2230C 3587 2230 3590 2242 3588 2258C 3586 2279 3579 2286 3558 2288C 3533 2291 3530 2288 3530 2261z" stroke="none"  fill="#000000" fill-rule="nonzero" />
		<path  d="M3352 1948C 3342 1930 3318 1888 3300 1855C 3282 1822 3266 1794 3264 1792C 3263 1790 3253 1793 3241 1799C 3224 1809 3208 1799 3123 1729L3123 1729L3025 1648L3020 1582L3015 1515L2956 1494C 2917 1480 2894 1466 2889 1452C 2879 1427 2875 1430 3026 1342L3026 1342L3148 1270L3214 1291L3280 1312L3314 1291C 3332 1279 3352 1270 3358 1270C 3365 1270 3412 1294 3465 1323L3465 1323L3560 1375L3560 1494L3560 1613L3611 1709C 3670 1819 3679 1800 3530 1887C 3478 1918 3421 1951 3403 1961L3403 1961L3372 1980L3352 1948zM3495 1894C 3558 1857 3610 1826 3610 1824C 3610 1821 3587 1779 3559 1730L3559 1730L3509 1640L3479 1657C 3463 1667 3450 1678 3450 1682C 3450 1687 3464 1715 3481 1746C 3498 1776 3510 1803 3507 1806C 3504 1810 3487 1785 3471 1751C 3437 1685 3438 1685 3410 1700C 3393 1709 3394 1714 3431 1782C 3452 1821 3468 1855 3466 1857C 3464 1859 3445 1829 3424 1791C 3403 1752 3383 1720 3380 1720C 3377 1720 3368 1725 3360 1730C 3347 1738 3350 1749 3378 1801C 3420 1880 3413 1890 3370 1813C 3352 1781 3336 1754 3335 1752C 3329 1746 3269 1781 3273 1788C 3332 1891 3373 1960 3376 1960C 3379 1960 3432 1930 3495 1894zM3264 1771C 3281 1761 3350 1720 3418 1680C 3486 1641 3540 1604 3538 1600C 3534 1590 3364 1450 3356 1450C 3341 1450 3040 1634 3042 1641C 3046 1653 3213 1790 3224 1790C 3229 1790 3247 1782 3264 1771zM3194 1529L3350 1438L3350 1359L3350 1280L3324 1296C 3307 1308 3302 1316 3309 1323C 3315 1329 3320 1352 3320 1375L3320 1375L3320 1415L3191 1493C 3119 1535 3059 1570 3056 1570C 3052 1570 3050 1559 3050 1545C 3050 1531 3046 1520 3040 1520C 3035 1520 3030 1543 3030 1570C 3030 1598 3032 1620 3034 1620C 3037 1620 3109 1579 3194 1529zM3213 1424C 3255 1399 3290 1375 3290 1372C 3290 1368 3258 1355 3220 1344L3220 1344L3151 1323L3030 1393C 2963 1431 2911 1464 2913 1466C 2915 1468 2948 1481 2986 1493L2986 1493L3055 1516L3095 1492C 3117 1480 3170 1449 3213 1424zM3025 1383C 3088 1345 3140 1309 3140 1302C 3140 1292 3131 1294 3108 1308C 3090 1319 3036 1351 2988 1379C 2939 1408 2900 1435 2900 1440C 2900 1456 2906 1453 3025 1383z" stroke="none"  fill="#000000" fill-rule="nonzero" />
		<path  d="M2326 1551C 2338 1541 2491 1498 2497 1503C 2499 1506 2491 1510 2478 1514C 2465 1517 2424 1529 2386 1540C 2348 1551 2321 1556 2326 1551z" stroke="none"  fill="#000000" fill-rule="nonzero" />
		<path  d="M1253 1167C 1104 979 933 763 874 688L874 688L765 550L762 680L759 810L525 810L290 810L290 635L290 460L315 460C 338 460 340 457 340 410C 340 364 338 360 316 360C 295 360 289 351 266 284C 244 219 243 206 255 194C 275 173 775 173 795 194C 807 206 806 219 784 284C 760 355 756 360 729 360C 701 360 700 361 700 410C 700 459 701 460 730 460C 758 460 760 463 760 495C 760 525 791 568 996 827C 1126 991 1264 1166 1303 1215C 1342 1265 1410 1349 1453 1403C 1496 1458 1530 1503 1528 1505C 1526 1507 1402 1355 1253 1167zM750 635L750 470L525 470L300 470L300 635L300 800L525 800L750 800L750 635zM543 430C 547 415 543 410 530 410C 517 410 513 415 517 430C 520 441 526 450 530 450C 534 450 540 441 543 430zM478 433C 457 431 421 431 398 433C 374 435 391 437 435 437C 479 437 498 435 478 433zM751 278L770 230L529 230C 324 230 289 232 293 244C 296 252 302 275 306 294L306 294L312 330L522 328L732 325L751 278z" stroke="none"  fill="#000000" fill-rule="nonzero" />
		<path  d="M317 773C 313 770 310 702 310 623L310 623L310 480L520 480L730 480L730 630L730 780L527 780C 415 780 320 777 317 773zM720 630L720 490L525 490L330 490L330 630L330 770L525 770L720 770L720 630z" stroke="none"  fill="#000000" fill-rule="nonzero" />
		<path  d="M320 305C 320 297 327 290 335 290C 343 290 350 297 350 305C 350 313 343 320 335 320C 327 320 320 313 320 305z" stroke="none"  fill="#000000" fill-rule="nonzero" />
		<path  d="M377 313C 365 302 369 290 385 290C 393 290 400 297 400 305C 400 321 388 325 377 313z" stroke="none"  fill="#000000" fill-rule="nonzero" />
		<path  d="M420 305C 420 297 427 290 435 290C 443 290 450 297 450 305C 450 313 443 320 435 320C 427 320 420 313 420 305z" stroke="none"  fill="#000000" fill-rule="nonzero" />
		<path  d="M477 313C 465 302 469 290 485 290C 493 290 500 297 500 305C 500 321 488 325 477 313z" stroke="none"  fill="#000000" fill-rule="nonzero" />
		<path  d="M520 305C 520 297 527 290 535 290C 543 290 550 297 550 305C 550 313 543 320 535 320C 527 320 520 313 520 305z" stroke="none"  fill="#000000" fill-rule="nonzero" />
		<path  d="M580 305C 580 296 585 290 591 292C 597 294 602 300 602 305C 602 310 597 316 591 318C 585 320 580 314 580 305z" stroke="none"  fill="#000000" fill-rule="nonzero" />
		<path  d="M627 314C 614 301 620 290 641 290C 652 290 660 295 658 302C 653 316 636 323 627 314z" stroke="none"  fill="#000000" fill-rule="nonzero" />
		<path  d="M680 306C 680 297 687 290 696 290C 713 290 710 312 692 318C 685 320 680 315 680 306z" stroke="none"  fill="#000000" fill-rule="nonzero" />
		<path  d="M320 255C 320 247 327 240 335 240C 343 240 350 247 350 255C 350 263 343 270 335 270C 327 270 320 263 320 255z" stroke="none"  fill="#000000" fill-rule="nonzero" />
		<path  d="M370 255C 370 247 377 240 385 240C 393 240 400 247 400 255C 400 263 393 270 385 270C 377 270 370 263 370 255z" stroke="none"  fill="#000000" fill-rule="nonzero" />
		<path  d="M420 255C 420 247 427 240 435 240C 443 240 450 247 450 255C 450 263 443 270 435 270C 427 270 420 263 420 255z" stroke="none"  fill="#000000" fill-rule="nonzero" />
		<path  d="M470 255C 470 247 477 240 485 240C 493 240 500 247 500 255C 500 263 493 270 485 270C 477 270 470 263 470 255z" stroke="none"  fill="#000000" fill-rule="nonzero" />
		<path  d="M520 255C 520 247 527 240 535 240C 543 240 550 247 550 255C 550 263 543 270 535 270C 527 270 520 263 520 255z" stroke="none"  fill="#000000" fill-rule="nonzero" />
		<path  d="M580 255C 580 246 585 240 591 242C 597 244 602 250 602 255C 602 260 597 266 591 268C 585 270 580 264 580 255z" stroke="none"  fill="#000000" fill-rule="nonzero" />
		<path  d="M630 255C 630 246 635 240 641 242C 647 244 652 250 652 255C 652 260 647 266 641 268C 635 270 630 264 630 255z" stroke="none"  fill="#000000" fill-rule="nonzero" />
		<path  d="M680 255C 680 247 687 240 695 240C 703 240 710 247 710 255C 710 263 703 270 695 270C 687 270 680 263 680 255z" stroke="none"  fill="#000000" fill-rule="nonzero" />
		<path  d="M2002 1153L2000 800L1815 800L1630 800L1630 625L1630 450L1655 450C 1678 450 1680 447 1680 400C 1680 354 1678 350 1656 350C 1635 350 1629 341 1606 274C 1584 209 1583 196 1595 184C 1615 163 2115 163 2135 184C 2147 196 2146 209 2124 274C 2100 345 2096 350 2069 350C 2041 350 2040 351 2040 400C 2040 449 2041 450 2070 450L2070 450L2100 450L2100 625L2100 800L2055 800L2010 800L2007 1153L2005 1505L2002 1153zM2090 625L2090 460L1865 460L1640 460L1640 625L1640 790L1865 790L2090 790L2090 625zM1880 420C 1880 409 1876 400 1870 400C 1865 400 1860 409 1860 420C 1860 431 1865 440 1870 440C 1876 440 1880 431 1880 420zM1818 423C 1797 421 1761 421 1738 423C 1714 425 1731 427 1775 427C 1819 427 1838 425 1818 423zM2091 268L2110 220L1870 220C 1738 220 1630 223 1630 226C 1630 229 1635 251 1641 276L1641 276L1652 320L1862 318L2072 315L2091 268z" stroke="none"  fill="#000000" fill-rule="nonzero" />
		<path  d="M1652 623L1655 475L1863 472L2070 470L2070 620L2070 770L1860 770L1649 770L1652 623zM2060 620L2060 480L1865 480L1670 480L1670 620L1670 760L1865 760L2060 760L2060 620z" stroke="none"  fill="#000000" fill-rule="nonzero" />
		<path  d="M1660 295C 1660 287 1667 280 1675 280C 1683 280 1690 287 1690 295C 1690 303 1683 310 1675 310C 1667 310 1660 303 1660 295z" stroke="none"  fill="#000000" fill-rule="nonzero" />
		<path  d="M1717 303C 1705 292 1709 280 1725 280C 1733 280 1740 287 1740 295C 1740 311 1728 315 1717 303z" stroke="none"  fill="#000000" fill-rule="nonzero" />
		<path  d="M1760 295C 1760 287 1767 280 1775 280C 1783 280 1790 287 1790 295C 1790 303 1783 310 1775 310C 1767 310 1760 303 1760 295z" stroke="none"  fill="#000000" fill-rule="nonzero" />
		<path  d="M1810 295C 1810 287 1817 280 1825 280C 1833 280 1840 287 1840 295C 1840 303 1833 310 1825 310C 1817 310 1810 303 1810 295z" stroke="none"  fill="#000000" fill-rule="nonzero" />
		<path  d="M1860 295C 1860 287 1867 280 1875 280C 1883 280 1890 287 1890 295C 1890 303 1883 310 1875 310C 1867 310 1860 303 1860 295z" stroke="none"  fill="#000000" fill-rule="nonzero" />
		<path  d="M1920 295C 1920 287 1925 280 1930 280C 1936 280 1940 287 1940 295C 1940 303 1936 310 1930 310C 1925 310 1920 303 1920 295z" stroke="none"  fill="#000000" fill-rule="nonzero" />
		<path  d="M1967 303C 1954 291 1960 280 1980 280C 1993 280 1998 285 1994 295C 1987 311 1977 314 1967 303z" stroke="none"  fill="#000000" fill-rule="nonzero" />
		<path  d="M2020 295C 2020 287 2027 280 2035 280C 2043 280 2050 287 2050 295C 2050 303 2043 310 2035 310C 2027 310 2020 303 2020 295z" stroke="none"  fill="#000000" fill-rule="nonzero" />
		<path  d="M1660 245C 1660 237 1667 230 1675 230C 1683 230 1690 237 1690 245C 1690 253 1683 260 1675 260C 1667 260 1660 253 1660 245z" stroke="none"  fill="#000000" fill-rule="nonzero" />
		<path  d="M1710 245C 1710 237 1717 230 1725 230C 1733 230 1740 237 1740 245C 1740 253 1733 260 1725 260C 1717 260 1710 253 1710 245z" stroke="none"  fill="#000000" fill-rule="nonzero" />
		<path  d="M1760 245C 1760 237 1767 230 1775 230C 1783 230 1790 237 1790 245C 1790 253 1783 260 1775 260C 1767 260 1760 253 1760 245z" stroke="none"  fill="#000000" fill-rule="nonzero" />
		<path  d="M1810 245C 1810 237 1817 230 1825 230C 1833 230 1840 237 1840 245C 1840 253 1833 260 1825 260C 1817 260 1810 253 1810 245z" stroke="none"  fill="#000000" fill-rule="nonzero" />
		<path  d="M1860 245C 1860 237 1867 230 1875 230C 1883 230 1890 237 1890 245C 1890 253 1883 260 1875 260C 1867 260 1860 253 1860 245z" stroke="none"  fill="#000000" fill-rule="nonzero" />
		<path  d="M1920 245C 1920 236 1925 230 1931 232C 1937 234 1942 240 1942 245C 1942 250 1937 256 1931 258C 1925 260 1920 254 1920 245z" stroke="none"  fill="#000000" fill-rule="nonzero" />
		<path  d="M1965 249C 1955 234 1966 226 1985 234C 1994 237 1998 244 1995 250C 1987 263 1973 263 1965 249z" stroke="none"  fill="#000000" fill-rule="nonzero" />
		<path  d="M2020 245C 2020 237 2027 230 2035 230C 2043 230 2050 237 2050 245C 2050 253 2043 260 2035 260C 2027 260 2020 253 2020 245z" stroke="none"  fill="#000000" fill-rule="nonzero" />
		<path  d="M2580 1475C 2621 1462 2669 1448 2685 1445C 2702 1443 2681 1451 2640 1465C 2599 1478 2552 1492 2535 1495C 2519 1497 2539 1489 2580 1475z" stroke="none"  fill="#000000" fill-rule="nonzero" />
		<path  d="M2250 1488C 2250 1482 2432 1239 2854 681C 2959 543 3046 432 3048 434C 3050 436 2989 521 2913 622C 2836 722 2660 956 2520 1140C 2255 1491 2250 1498 2250 1488z" stroke="none"  fill="#000000" fill-rule="nonzero" />
		<path  d="M1660 1440C 1660 1418 1665 1400 1670 1400C 1676 1400 1680 1409 1680 1420C 1680 1431 1687 1440 1695 1440C 1703 1440 1710 1431 1710 1420C 1710 1409 1715 1400 1720 1400C 1726 1400 1730 1418 1730 1440C 1730 1462 1726 1480 1720 1480C 1715 1480 1710 1473 1710 1465C 1710 1457 1703 1450 1695 1450C 1687 1450 1680 1457 1680 1465C 1680 1473 1676 1480 1670 1480C 1665 1480 1660 1462 1660 1440z" stroke="none"  fill="#000000" fill-rule="nonzero" />
		<path  d="M1752 1443C 1755 1408 1758 1405 1785 1405C 1812 1405 1815 1408 1818 1443C 1820 1464 1817 1480 1811 1480C 1805 1480 1800 1464 1800 1445C 1800 1421 1795 1410 1785 1410C 1775 1410 1770 1421 1770 1445C 1770 1464 1765 1480 1759 1480C 1753 1480 1750 1464 1752 1443z" stroke="none"  fill="#000000" fill-rule="nonzero" />
		<path  d="M1840 1440C 1840 1402 1842 1400 1870 1400C 1906 1400 1915 1416 1901 1453C 1893 1473 1883 1480 1865 1480C 1842 1480 1840 1476 1840 1440zM1880 1460C 1880 1455 1876 1450 1870 1450C 1865 1450 1860 1455 1860 1460C 1860 1466 1865 1470 1870 1470C 1876 1470 1880 1466 1880 1460zM1890 1425C 1890 1417 1883 1410 1875 1410C 1867 1410 1860 1417 1860 1425C 1860 1433 1867 1440 1875 1440C 1883 1440 1890 1433 1890 1425z" stroke="none"  fill="#000000" fill-rule="nonzero" />
		<path  d="M2789 1414C 2830 1400 2865 1391 2867 1394C 2871 1398 2737 1441 2723 1439C 2719 1438 2748 1427 2789 1414z" stroke="none"  fill="#000000" fill-rule="nonzero" />
		<path  d="M260 1185C 260 1160 265 1140 270 1140C 276 1140 280 1145 280 1152C 280 1161 283 1161 292 1152C 309 1135 325 1137 310 1155C 300 1167 300 1173 310 1185C 325 1203 309 1205 292 1188C 283 1179 280 1182 280 1203C 280 1218 276 1230 270 1230C 265 1230 260 1210 260 1185z" stroke="none"  fill="#000000" fill-rule="nonzero" />
		<path  d="M3060 1191C 3060 1168 3065 1150 3070 1150C 3076 1150 3080 1156 3080 1164C 3080 1171 3089 1180 3101 1183C 3132 1191 3122 1224 3087 1228C 3062 1231 3060 1229 3060 1191zM3100 1205C 3100 1197 3096 1190 3090 1190C 3085 1190 3080 1197 3080 1205C 3080 1213 3085 1220 3090 1220C 3096 1220 3100 1213 3100 1205z" stroke="none"  fill="#000000" fill-rule="nonzero" />
		<path  d="M3318 1218C 3309 1193 3326 1155 3345 1153C 3356 1151 3359 1153 3353 1156C 3337 1163 3336 1200 3351 1200C 3357 1200 3355 1207 3346 1215C 3328 1233 3323 1234 3318 1218z" stroke="none"  fill="#000000" fill-rule="nonzero" />
		<path  d="M14 1204C 17 1195 20 1183 20 1177C 20 1170 25 1158 30 1150C 39 1137 41 1137 51 1150C 59 1161 63 1162 67 1153C 76 1130 89 1140 99 1177C 110 1216 105 1234 89 1210C 81 1197 79 1197 70 1210C 61 1223 59 1223 49 1210C 41 1199 37 1198 33 1208C 26 1226 7 1223 14 1204z" stroke="none"  fill="#000000" fill-rule="nonzero" />
		<path  d="M408 1208C 399 1183 416 1145 435 1143C 446 1141 449 1143 443 1146C 427 1153 426 1190 441 1190C 447 1190 445 1197 436 1205C 418 1223 413 1224 408 1208z" stroke="none"  fill="#000000" fill-rule="nonzero" />
		<path  d="M538 1208C 529 1183 546 1145 565 1143C 576 1141 579 1143 573 1146C 557 1153 556 1190 571 1190C 577 1190 575 1197 566 1205C 548 1223 543 1224 538 1208z" stroke="none"  fill="#000000" fill-rule="nonzero" />
		<path  d="M3140 1180C 3140 1164 3145 1150 3150 1150C 3156 1150 3160 1159 3160 1170C 3160 1180 3168 1194 3178 1199C 3192 1208 3191 1209 3168 1210C 3144 1210 3140 1206 3140 1180z" stroke="none"  fill="#000000" fill-rule="nonzero" />
		<path  d="M3200 1180C 3200 1164 3205 1150 3210 1150C 3216 1150 3220 1164 3220 1180C 3220 1197 3216 1210 3210 1210C 3205 1210 3200 1197 3200 1180z" stroke="none"  fill="#000000" fill-rule="nonzero" />
		<path  d="M3240 1181C 3240 1164 3245 1150 3250 1150C 3256 1150 3260 1161 3260 1175C 3260 1189 3265 1200 3270 1200C 3276 1200 3280 1189 3280 1175C 3280 1161 3285 1150 3291 1150C 3297 1150 3300 1162 3298 1178C 3296 1199 3289 1206 3268 1208C 3243 1211 3240 1208 3240 1181z" stroke="none"  fill="#000000" fill-rule="nonzero" />
		<path  d="M3374 1196C 3371 1187 3370 1173 3374 1165C 3380 1148 3416 1145 3426 1161C 3430 1169 3426 1170 3411 1165C 3399 1161 3390 1163 3390 1169C 3390 1175 3399 1180 3411 1180C 3438 1180 3430 1204 3402 1208C 3389 1210 3377 1205 3374 1196z" stroke="none"  fill="#000000" fill-rule="nonzero" />
		<path  d="M3450 1180C 3450 1164 3455 1150 3460 1150C 3466 1150 3470 1159 3470 1170C 3470 1180 3478 1194 3488 1199C 3502 1208 3501 1209 3478 1210C 3454 1210 3450 1206 3450 1180z" stroke="none"  fill="#000000" fill-rule="nonzero" />
		<path  d="M124 1186C 114 1160 128 1138 152 1142C 169 1144 175 1152 175 1170C 175 1188 169 1196 152 1198C 139 1200 127 1195 124 1186zM160 1170C 160 1159 156 1150 150 1150C 145 1150 140 1159 140 1170C 140 1181 145 1190 150 1190C 156 1190 160 1181 160 1170z" stroke="none"  fill="#000000" fill-rule="nonzero" />
		<path  d="M200 1170C 200 1154 205 1140 210 1140C 216 1140 220 1149 220 1160C 220 1170 228 1184 238 1189C 252 1198 251 1199 228 1200C 204 1200 200 1196 200 1170z" stroke="none"  fill="#000000" fill-rule="nonzero" />
		<path  d="M344 1189C 340 1182 345 1173 356 1167C 373 1157 373 1156 355 1149C 336 1142 336 1141 357 1141C 386 1140 397 1160 374 1173C 357 1183 357 1184 375 1191C 394 1198 394 1199 373 1199C 361 1200 348 1195 344 1189z" stroke="none"  fill="#000000" fill-rule="nonzero" />
		<path  d="M484 1192C 503 1184 503 1183 481 1177C 450 1169 459 1146 494 1142C 519 1139 521 1141 518 1167C 516 1189 509 1196 490 1197C 469 1199 468 1198 484 1192zM500 1160C 500 1155 496 1150 490 1150C 485 1150 480 1155 480 1160C 480 1166 485 1170 490 1170C 496 1170 500 1166 500 1160z" stroke="none"  fill="#000000" fill-rule="nonzero" />
		<path  d="M590 1170C 590 1154 595 1140 600 1140C 606 1140 610 1154 610 1170C 610 1187 606 1200 600 1200C 595 1200 590 1187 590 1170z" stroke="none"  fill="#000000" fill-rule="nonzero" />
		<path  d="M634 1186C 624 1160 638 1138 662 1142C 679 1144 685 1152 685 1170C 685 1188 679 1196 662 1198C 649 1200 637 1195 634 1186zM670 1170C 670 1159 666 1150 660 1150C 655 1150 650 1159 650 1170C 650 1181 655 1190 660 1190C 666 1190 670 1181 670 1170z" stroke="none"  fill="#000000" fill-rule="nonzero" />
		<path  d="M710 1171C 710 1154 715 1140 720 1140C 726 1140 730 1151 730 1165C 730 1179 735 1190 740 1190C 746 1190 750 1179 750 1165C 750 1151 755 1140 761 1140C 767 1140 770 1152 768 1168C 766 1189 759 1196 738 1198C 713 1201 710 1198 710 1171z" stroke="none"  fill="#000000" fill-rule="nonzero" />
		<path  d="M3050 675L3050 500L3075 500C 3098 500 3100 497 3100 450C 3100 404 3098 400 3076 400C 3055 400 3049 391 3026 324C 3004 259 3003 246 3015 234C 3035 213 3535 213 3555 234C 3567 246 3566 259 3544 324C 3520 395 3516 400 3489 400C 3461 400 3460 401 3460 450C 3460 499 3461 500 3490 500L3490 500L3520 500L3520 675L3520 850L3285 850L3050 850L3050 675zM3510 675L3510 510L3285 510L3060 510L3060 675L3060 840L3285 840L3510 840L3510 675zM3300 470C 3300 459 3296 450 3290 450C 3285 450 3280 459 3280 470C 3280 481 3285 490 3290 490C 3296 490 3300 481 3300 470zM3238 473C 3217 471 3181 471 3158 473C 3134 475 3151 477 3195 477C 3239 477 3258 475 3238 473zM3511 318L3530 270L3289 270L3048 270L3054 293C 3058 305 3063 327 3067 343L3067 343L3073 370L3282 368L3492 365L3511 318z" stroke="none"  fill="#000000" fill-rule="nonzero" />
		<path  d="M3077 813C 3073 810 3070 742 3070 663L3070 663L3070 520L3280 520L3490 520L3490 670L3490 820L3287 820C 3175 820 3080 817 3077 813zM3480 670L3480 530L3285 530L3090 530L3090 670L3090 810L3285 810L3480 810L3480 670z" stroke="none"  fill="#000000" fill-rule="nonzero" />
		<path  d="M3080 345C 3080 337 3087 330 3095 330C 3103 330 3110 337 3110 345C 3110 353 3103 360 3095 360C 3087 360 3080 353 3080 345z" stroke="none"  fill="#000000" fill-rule="nonzero" />
		<path  d="M3137 353C 3125 342 3129 330 3145 330C 3153 330 3160 337 3160 345C 3160 361 3148 365 3137 353z" stroke="none"  fill="#000000" fill-rule="nonzero" />
		<path  d="M3180 345C 3180 337 3187 330 3195 330C 3203 330 3210 337 3210 345C 3210 353 3203 360 3195 360C 3187 360 3180 353 3180 345z" stroke="none"  fill="#000000" fill-rule="nonzero" />
		<path  d="M3237 353C 3225 342 3229 330 3245 330C 3253 330 3260 337 3260 345C 3260 361 3248 365 3237 353z" stroke="none"  fill="#000000" fill-rule="nonzero" />
		<path  d="M3280 345C 3280 337 3287 330 3295 330C 3303 330 3310 337 3310 345C 3310 353 3303 360 3295 360C 3287 360 3280 353 3280 345z" stroke="none"  fill="#000000" fill-rule="nonzero" />
		<path  d="M3340 346C 3340 337 3347 330 3356 330C 3373 330 3370 352 3352 358C 3345 360 3340 355 3340 346z" stroke="none"  fill="#000000" fill-rule="nonzero" />
		<path  d="M3390 346C 3390 337 3397 330 3406 330C 3415 330 3420 335 3418 342C 3412 360 3390 363 3390 346z" stroke="none"  fill="#000000" fill-rule="nonzero" />
		<path  d="M3440 345C 3440 337 3447 330 3455 330C 3463 330 3470 337 3470 345C 3470 353 3463 360 3455 360C 3447 360 3440 353 3440 345z" stroke="none"  fill="#000000" fill-rule="nonzero" />
		<path  d="M3080 295C 3080 287 3087 280 3095 280C 3103 280 3110 287 3110 295C 3110 303 3103 310 3095 310C 3087 310 3080 303 3080 295z" stroke="none"  fill="#000000" fill-rule="nonzero" />
		<path  d="M3130 295C 3130 287 3137 280 3145 280C 3153 280 3160 287 3160 295C 3160 303 3153 310 3145 310C 3137 310 3130 303 3130 295z" stroke="none"  fill="#000000" fill-rule="nonzero" />
		<path  d="M3180 295C 3180 287 3187 280 3195 280C 3203 280 3210 287 3210 295C 3210 303 3203 310 3195 310C 3187 310 3180 303 3180 295z" stroke="none"  fill="#000000" fill-rule="nonzero" />
		<path  d="M3230 295C 3230 287 3237 280 3245 280C 3253 280 3260 287 3260 295C 3260 303 3253 310 3245 310C 3237 310 3230 303 3230 295z" stroke="none"  fill="#000000" fill-rule="nonzero" />
		<path  d="M3280 295C 3280 287 3287 280 3295 280C 3303 280 3310 287 3310 295C 3310 303 3303 310 3295 310C 3287 310 3280 303 3280 295z" stroke="none"  fill="#000000" fill-rule="nonzero" />
		<path  d="M3340 295C 3340 286 3345 280 3351 282C 3357 284 3362 290 3362 295C 3362 300 3357 306 3351 308C 3345 310 3340 304 3340 295z" stroke="none"  fill="#000000" fill-rule="nonzero" />
		<path  d="M3390 294C 3390 277 3412 280 3418 298C 3420 305 3415 310 3406 310C 3397 310 3390 303 3390 294z" stroke="none"  fill="#000000" fill-rule="nonzero" />
		<path  d="M3440 295C 3440 287 3447 280 3455 280C 3463 280 3470 287 3470 295C 3470 303 3463 310 3455 310C 3447 310 3440 303 3440 295z" stroke="none"  fill="#000000" fill-rule="nonzero" />
		<path  d="M3130 125C 3130 100 3135 80 3140 80C 3146 80 3150 85 3150 92C 3150 101 3153 101 3162 92C 3179 75 3195 77 3180 95C 3170 107 3170 113 3180 125C 3195 143 3179 145 3162 128C 3153 119 3150 122 3150 143C 3150 158 3146 170 3140 170C 3135 170 3130 150 3130 125z" stroke="none"  fill="#000000" fill-rule="nonzero" />
		<path  d="M2884 144C 2887 135 2890 123 2890 117C 2890 110 2895 98 2900 90C 2909 77 2911 77 2921 90C 2929 101 2933 102 2937 93C 2946 70 2959 80 2969 117C 2980 156 2975 174 2959 150C 2951 137 2949 137 2940 150C 2931 163 2929 163 2919 150C 2911 139 2907 138 2903 148C 2896 166 2877 163 2884 144z" stroke="none"  fill="#000000" fill-rule="nonzero" />
		<path  d="M3278 148C 3269 123 3286 85 3305 83C 3316 81 3319 83 3313 86C 3297 93 3296 130 3311 130C 3317 130 3315 137 3306 145C 3288 163 3283 164 3278 148z" stroke="none"  fill="#000000" fill-rule="nonzero" />
		<path  d="M3408 148C 3399 123 3416 85 3435 83C 3446 81 3449 83 3443 86C 3427 93 3426 130 3441 130C 3447 130 3445 137 3436 145C 3418 163 3413 164 3408 148z" stroke="none"  fill="#000000" fill-rule="nonzero" />
		<path  d="M320 95C 320 70 325 50 330 50C 336 50 340 55 340 62C 340 71 343 71 352 62C 369 45 385 47 370 65C 360 77 360 83 370 95C 385 113 369 115 352 98C 343 89 340 92 340 113C 340 128 336 140 330 140C 325 140 320 120 320 95z" stroke="none"  fill="#000000" fill-rule="nonzero" />
		<path  d="M1720 95C 1720 70 1725 50 1730 50C 1736 50 1740 55 1740 62C 1740 71 1743 71 1752 62C 1769 45 1785 47 1770 65C 1760 77 1760 83 1770 95C 1785 113 1769 115 1752 98C 1743 89 1740 92 1740 113C 1740 128 1736 140 1730 140C 1725 140 1720 120 1720 95z" stroke="none"  fill="#000000" fill-rule="nonzero" />
		<path  d="M2994 126C 2984 100 2998 78 3022 82C 3039 84 3045 92 3045 110C 3045 128 3039 136 3022 138C 3009 140 2997 135 2994 126zM3030 110C 3030 99 3026 90 3020 90C 3015 90 3010 99 3010 110C 3010 121 3015 130 3020 130C 3026 130 3030 121 3030 110z" stroke="none"  fill="#000000" fill-rule="nonzero" />
		<path  d="M3070 110C 3070 94 3075 80 3080 80C 3086 80 3090 89 3090 100C 3090 110 3098 124 3108 129C 3122 138 3121 139 3098 140C 3074 140 3070 136 3070 110z" stroke="none"  fill="#000000" fill-rule="nonzero" />
		<path  d="M3214 129C 3210 122 3215 113 3226 107C 3243 97 3243 96 3225 89C 3206 82 3206 81 3227 81C 3256 80 3267 100 3244 113C 3227 123 3227 124 3245 131C 3264 138 3264 139 3243 139C 3231 140 3218 135 3214 129z" stroke="none"  fill="#000000" fill-rule="nonzero" />
		<path  d="M3354 132C 3373 124 3373 123 3351 117C 3320 109 3329 86 3364 82C 3389 79 3391 81 3388 107C 3386 129 3379 136 3360 137C 3339 139 3338 138 3354 132zM3370 100C 3370 95 3366 90 3360 90C 3355 90 3350 95 3350 100C 3350 106 3355 110 3360 110C 3366 110 3370 106 3370 100z" stroke="none"  fill="#000000" fill-rule="nonzero" />
		<path  d="M3460 110C 3460 94 3465 80 3470 80C 3476 80 3480 94 3480 110C 3480 127 3476 140 3470 140C 3465 140 3460 127 3460 110z" stroke="none"  fill="#000000" fill-rule="nonzero" />
		<path  d="M3504 126C 3494 100 3508 78 3532 82C 3549 84 3555 92 3555 110C 3555 128 3549 136 3532 138C 3519 140 3507 135 3504 126zM3540 110C 3540 99 3536 90 3530 90C 3525 90 3520 99 3520 110C 3520 121 3525 130 3530 130C 3536 130 3540 121 3540 110z" stroke="none"  fill="#000000" fill-rule="nonzero" />
		<path  d="M3580 111C 3580 94 3585 80 3590 80C 3596 80 3600 91 3600 105C 3600 119 3605 130 3610 130C 3616 130 3620 119 3620 105C 3620 91 3625 80 3631 80C 3637 80 3640 92 3638 108C 3636 129 3629 136 3608 138C 3583 141 3580 138 3580 111z" stroke="none"  fill="#000000" fill-rule="nonzero" />
		<path  d="M74 114C 77 105 80 93 80 87C 80 80 85 68 90 60C 99 47 101 47 111 60C 119 71 123 72 127 63C 136 40 149 50 159 87C 170 126 165 144 149 120C 141 107 139 107 130 120C 121 133 119 133 109 120C 101 109 97 108 93 118C 86 136 67 133 74 114z" stroke="none"  fill="#000000" fill-rule="nonzero" />
		<path  d="M468 118C 459 93 476 55 495 53C 506 51 509 53 503 56C 487 63 486 100 501 100C 507 100 505 107 496 115C 478 133 473 134 468 118z" stroke="none"  fill="#000000" fill-rule="nonzero" />
		<path  d="M598 118C 589 93 606 55 625 53C 636 51 639 53 633 56C 617 63 616 100 631 100C 637 100 635 107 626 115C 608 133 603 134 598 118z" stroke="none"  fill="#000000" fill-rule="nonzero" />
		<path  d="M1474 114C 1477 105 1480 93 1480 87C 1480 80 1485 68 1490 60C 1499 47 1501 47 1511 60C 1519 71 1523 72 1527 63C 1536 40 1549 50 1559 87C 1570 126 1565 144 1549 120C 1541 107 1539 107 1530 120C 1521 133 1519 133 1509 120C 1501 109 1497 108 1493 118C 1486 136 1467 133 1474 114z" stroke="none"  fill="#000000" fill-rule="nonzero" />
		<path  d="M1868 118C 1859 93 1876 55 1895 53C 1906 51 1909 53 1903 56C 1887 63 1886 100 1901 100C 1907 100 1905 107 1896 115C 1878 133 1873 134 1868 118z" stroke="none"  fill="#000000" fill-rule="nonzero" />
		<path  d="M1998 118C 1989 93 2006 55 2025 53C 2036 51 2039 53 2033 56C 2017 63 2016 100 2031 100C 2037 100 2035 107 2026 115C 2008 133 2003 134 1998 118z" stroke="none"  fill="#000000" fill-rule="nonzero" />
		<path  d="M184 96C 174 70 188 48 212 52C 245 56 245 104 212 108C 199 110 187 105 184 96zM220 80C 220 69 216 60 210 60C 205 60 200 69 200 80C 200 91 205 100 210 100C 216 100 220 91 220 80z" stroke="none"  fill="#000000" fill-rule="nonzero" />
		<path  d="M260 80C 260 64 265 50 270 50C 276 50 280 59 280 70C 280 80 288 94 298 99C 312 108 311 109 288 110C 264 110 260 106 260 80z" stroke="none"  fill="#000000" fill-rule="nonzero" />
		<path  d="M404 99C 400 92 405 83 416 77C 433 67 433 66 415 59C 396 52 396 51 417 51C 446 50 457 70 434 83C 417 93 417 94 435 101C 454 108 454 109 433 109C 421 110 408 105 404 99z" stroke="none"  fill="#000000" fill-rule="nonzero" />
		<path  d="M544 102C 563 94 563 93 541 87C 510 79 519 56 554 52C 579 49 581 51 578 77C 576 99 569 106 550 107C 529 109 528 108 544 102zM560 70C 560 65 556 60 550 60C 545 60 540 65 540 70C 540 76 545 80 550 80C 556 80 560 76 560 70z" stroke="none"  fill="#000000" fill-rule="nonzero" />
		<path  d="M650 80C 650 64 655 50 660 50C 666 50 670 64 670 80C 670 97 666 110 660 110C 655 110 650 97 650 80z" stroke="none"  fill="#000000" fill-rule="nonzero" />
		<path  d="M694 96C 684 70 698 48 722 52C 739 54 745 62 745 80C 745 98 739 106 722 108C 709 110 697 105 694 96zM730 80C 730 69 726 60 720 60C 715 60 710 69 710 80C 710 91 715 100 720 100C 726 100 730 91 730 80z" stroke="none"  fill="#000000" fill-rule="nonzero" />
		<path  d="M770 81C 770 64 775 50 780 50C 786 50 790 61 790 75C 790 89 795 100 800 100C 806 100 810 89 810 75C 810 61 815 50 821 50C 827 50 830 62 828 78C 826 99 819 106 798 108C 773 111 770 108 770 81z" stroke="none"  fill="#000000" fill-rule="nonzero" />
		<path  d="M1584 96C 1574 70 1588 48 1612 52C 1629 54 1635 62 1635 80C 1635 98 1629 106 1612 108C 1599 110 1587 105 1584 96zM1620 80C 1620 69 1616 60 1610 60C 1605 60 1600 69 1600 80C 1600 91 1605 100 1610 100C 1616 100 1620 91 1620 80z" stroke="none"  fill="#000000" fill-rule="nonzero" />
		<path  d="M1660 80C 1660 64 1665 50 1670 50C 1676 50 1680 59 1680 70C 1680 80 1688 94 1698 99C 1712 108 1711 109 1688 110C 1664 110 1660 106 1660 80z" stroke="none"  fill="#000000" fill-rule="nonzero" />
		<path  d="M1804 99C 1800 92 1805 83 1816 77C 1833 67 1833 66 1815 59C 1796 52 1796 51 1817 51C 1846 50 1857 70 1834 83C 1817 93 1817 94 1835 101C 1854 108 1854 109 1833 109C 1821 110 1808 105 1804 99z" stroke="none"  fill="#000000" fill-rule="nonzero" />
		<path  d="M1944 102C 1963 94 1963 93 1941 87C 1910 79 1919 56 1954 52C 1979 49 1981 51 1978 77C 1976 99 1969 106 1950 107C 1929 109 1928 108 1944 102zM1960 70C 1960 65 1956 60 1950 60C 1945 60 1940 65 1940 70C 1940 76 1945 80 1950 80C 1956 80 1960 76 1960 70z" stroke="none"  fill="#000000" fill-rule="nonzero" />
		<path  d="M2050 80C 2050 64 2055 50 2060 50C 2066 50 2070 64 2070 80C 2070 97 2066 110 2060 110C 2055 110 2050 97 2050 80z" stroke="none"  fill="#000000" fill-rule="nonzero" />
		<path  d="M2094 96C 2084 70 2098 48 2122 52C 2139 54 2145 62 2145 80C 2145 98 2139 106 2122 108C 2109 110 2097 105 2094 96zM2130 80C 2130 69 2126 60 2120 60C 2115 60 2110 69 2110 80C 2110 91 2115 100 2120 100C 2126 100 2130 91 2130 80z" stroke="none"  fill="#000000" fill-rule="nonzero" />
		<path  d="M2170 81C 2170 64 2175 50 2180 50C 2186 50 2190 61 2190 75C 2190 89 2195 100 2200 100C 2206 100 2210 89 2210 75C 2210 61 2215 50 2221 50C 2227 50 2230 62 2228 78C 2226 99 2219 106 2198 108C 2173 111 2170 108 2170 81z" stroke="none"  fill="#000000" fill-rule="nonzero" />
	</g>
</g>
</svg>
